SplineFontDB: 3.2
FontName: KoreeneSans-BoldItalic
FullName: Koreene Sans Bold Italic
FamilyName: Koreene Sans
Weight: Bold
Copyright: (C) Copyright HanYang I&C Co.,Ltd. All rights reserved.
Version: 2.52
ItalicAngle: -9.4
UnderlinePosition: -244
UnderlineWidth: 90
Ascent: 1638
Descent: 410
InvalidEm: 0
sfntRevision: 0x00020147
LayerCount: 2
Layer: 0 1 "Back" 1
Layer: 1 1 "Fore" 0
XUID: [1021 531 -1996577725 1118872]
StyleMap: 0x0021
FSType: 0
OS2Version: 4
OS2_WeightWidthSlopeOnly: 0
OS2_UseTypoMetrics: 1
CreationTime: 1068260456
ModificationTime: 1706984687
PfmFamily: 81
TTFWeight: 700
TTFWidth: 5
LineGap: 512
VLineGap: 0
Panose: 0 0 0 0 0 0 0 0 0 0
OS2TypoAscent: 1940
OS2TypoAOffset: 0
OS2TypoDescent: -470
OS2TypoDOffset: 0
OS2TypoLinegap: 512
OS2WinAscent: 2196
OS2WinAOffset: 0
OS2WinDescent: 726
OS2WinDOffset: 0
HheadAscent: 1940
HheadAOffset: 0
HheadDescent: -470
HheadDOffset: 0
OS2SubXSize: 410
OS2SubYSize: 410
OS2SubXOff: 0
OS2SubYOff: 574
OS2SupXSize: 410
OS2SupYSize: 410
OS2SupXOff: 0
OS2SupYOff: 1926
OS2StrikeYSize: 204
OS2StrikeYPos: 1024
OS2CapHeight: 1470
OS2XHeight: 1072
OS2Vendor: 'HY  '
OS2CodePages: 2000019f.00000000
OS2UnicodeRanges: e10002ff.4000001b.00000000.00000000
Lookup: 1 0 0 "'aalt' Access All Alternates lookup 0" { "'aalt' Access All Alternates lookup 0 subtable"  } ['aalt' ('DFLT' <'dflt' > 'cyrl' <'dflt' > 'grek' <'dflt' > 'hang' <'dflt' > 'jamo' <'dflt' > 'latn' <'dflt' > ) ]
Lookup: 3 0 0 "'aalt' Access All Alternates lookup 1" { "'aalt' Access All Alternates lookup 1 subtable"  } ['aalt' ('DFLT' <'dflt' > 'cyrl' <'dflt' > 'grek' <'dflt' > 'hang' <'dflt' > 'jamo' <'dflt' > 'latn' <'dflt' > ) ]
Lookup: 1 0 0 "'locl' Localized Forms in Latin lookup 2" { "'locl' Localized Forms in Latin lookup 2 subtable"  } ['locl' ('latn' <'MOL ' > ) ]
Lookup: 1 0 0 "'locl' Localized Forms in Latin lookup 3" { "'locl' Localized Forms in Latin lookup 3 subtable"  } ['locl' ('latn' <'ROM ' > ) ]

StartChar: exclam
Encoding: 33 33 4
Width: 586
GlyphClass: 2
Flags: W
LayerCount: 2
Fore
SplineSet
44 -10 m 1,0,-1
 92 274 l 1,1,-1
 400 274 l 1,2,-1
 352 -10 l 1,3,-1
 44 -10 l 1,0,-1
382 416 m 1,4,-1
 156 416 l 1,5,-1
 314 1480 l 1,6,-1
 572 1480 l 1,7,-1
 382 416 l 1,4,-1
EndSplineSet
EndChar

StartChar: quotedbl
Encoding: 34 34 5
Width: 1070
GlyphClass: 2
Flags: W
LayerCount: 2
Fore
SplineSet
636 1034 m 1,0,-1
 912 1634 l 1,1,-1
 1176 1634 l 1,2,-1
 824 1034 l 1,3,-1
 636 1034 l 1,0,-1
200 1034 m 1,4,-1
 472 1634 l 1,5,-1
 740 1634 l 1,6,-1
 386 1034 l 1,7,-1
 200 1034 l 1,4,-1
EndSplineSet
EndChar

StartChar: numbersign
Encoding: 35 35 6
Width: 1422
GlyphClass: 2
Flags: W
LayerCount: 2
Fore
SplineSet
58 368 m 1,0,-1
 88 550 l 1,1,-1
 328 550 l 1,2,-1
 426 882 l 1,3,-1
 204 882 l 1,4,-1
 234 1064 l 1,5,-1
 476 1064 l 1,6,-1
 586 1430 l 1,7,-1
 798 1430 l 1,8,-1
 690 1064 l 1,9,-1
 988 1064 l 1,10,-1
 1098 1430 l 1,11,-1
 1310 1430 l 1,12,-1
 1202 1064 l 1,13,-1
 1418 1064 l 1,14,-1
 1388 882 l 1,15,-1
 1148 882 l 1,16,-1
 1052 550 l 1,17,-1
 1272 550 l 1,18,-1
 1242 368 l 1,19,-1
 998 368 l 1,20,-1
 892 4 l 1,21,-1
 678 4 l 1,22,-1
 786 368 l 1,23,-1
 488 368 l 1,24,-1
 378 4 l 1,25,-1
 166 4 l 1,26,-1
 274 368 l 1,27,-1
 58 368 l 1,0,-1
540 550 m 1,28,-1
 838 550 l 1,29,-1
 936 882 l 1,30,-1
 636 882 l 1,31,-1
 540 550 l 1,28,-1
EndSplineSet
EndChar

StartChar: dollar
Encoding: 36 36 7
Width: 1128
GlyphClass: 2
Flags: W
LayerCount: 2
Fore
SplineSet
38 306 m 1,0,-1
 228 392 l 1,1,2
 268 302 268 302 344 252 c 128,-1,3
 420 202 420 202 518 202 c 0,4,5
 612 202 612 202 684 254 c 128,-1,6
 756 306 756 306 772 404 c 0,7,8
 780 454 780 454 768 490 c 128,-1,9
 756 526 756 526 716 556 c 128,-1,10
 676 586 676 586 637 605 c 128,-1,11
 598 624 598 624 523 660 c 128,-1,12
 448 696 448 696 396 722 c 0,13,14
 174 844 174 844 212 1084 c 0,15,16
 232 1206 232 1206 335 1317 c 128,-1,17
 438 1428 438 1428 610 1456 c 1,18,-1
 636 1618 l 1,19,-1
 854 1618 l 1,20,-1
 826 1454 l 1,21,22
 930 1442 930 1442 1013 1363 c 128,-1,23
 1096 1284 1096 1284 1118 1194 c 1,24,-1
 926 1108 l 1,25,26
 848 1266 848 1266 688 1266 c 0,27,28
 594 1266 594 1266 528 1214 c 128,-1,29
 462 1162 462 1162 450 1082 c 0,30,31
 444 1050 444 1050 447 1024 c 128,-1,32
 450 998 450 998 467 977 c 128,-1,33
 484 956 484 956 500 940 c 128,-1,34
 516 924 516 924 552 904 c 128,-1,35
 588 884 588 884 614 872 c 128,-1,36
 640 860 640 860 693 836 c 128,-1,37
 746 812 746 812 780 798 c 0,38,39
 1054 670 1054 670 1014 424 c 0,40,41
 986 256 986 256 870 148 c 128,-1,42
 754 40 754 40 588 10 c 1,43,-1
 562 -144 l 1,44,-1
 344 -144 l 1,45,-1
 370 14 l 1,46,47
 260 24 260 24 165 109 c 128,-1,48
 70 194 70 194 38 306 c 1,0,-1
EndSplineSet
EndChar

StartChar: percent
Encoding: 37 37 8
Width: 1944
GlyphClass: 2
Flags: W
LayerCount: 2
Fore
SplineSet
1228 338 m 256,0,1
 1214 248 1214 248 1257 196 c 128,-1,2
 1300 144 1300 144 1372 144 c 256,3,4
 1444 144 1444 144 1503 197 c 128,-1,5
 1562 250 1562 250 1576 338 c 0,6,7
 1590 428 1590 428 1550 480 c 128,-1,8
 1510 532 1510 532 1436 532 c 256,9,10
 1362 532 1362 532 1302 480 c 128,-1,11
 1242 428 1242 428 1228 338 c 256,0,1
426 1132 m 0,12,13
 410 1040 410 1040 453 989 c 128,-1,14
 496 938 496 938 566 938 c 0,15,16
 638 938 638 938 697 991 c 128,-1,17
 756 1044 756 1044 770 1132 c 256,18,19
 784 1220 784 1220 744 1273 c 128,-1,20
 704 1326 704 1326 630 1326 c 256,21,22
 556 1326 556 1326 498 1273 c 128,-1,23
 440 1220 440 1220 426 1132 c 0,12,13
250 -10 m 1,24,-1
 1512 1480 l 1,25,-1
 1752 1480 l 1,26,-1
 488 -10 l 1,27,-1
 250 -10 l 1,24,-1
1010 338 m 0,28,29
 1036 498 1036 498 1163 605 c 128,-1,30
 1290 712 1290 712 1466 712 c 0,31,32
 1638 712 1638 712 1729 606 c 128,-1,33
 1820 500 1820 500 1794 338 c 0,34,35
 1766 172 1766 172 1638 69 c 128,-1,36
 1510 -34 1510 -34 1342 -34 c 0,37,38
 1168 -34 1168 -34 1076 71 c 128,-1,39
 984 176 984 176 1010 338 c 0,28,29
206 1132 m 0,40,41
 232 1292 232 1292 359 1398 c 128,-1,42
 486 1504 486 1504 660 1504 c 0,43,44
 832 1504 832 1504 925 1399 c 128,-1,45
 1018 1294 1018 1294 990 1132 c 0,46,47
 962 968 962 968 834 863 c 128,-1,48
 706 758 706 758 536 758 c 0,49,50
 364 758 364 758 272 864 c 128,-1,51
 180 970 180 970 206 1132 c 0,40,41
EndSplineSet
EndChar

StartChar: ampersand
Encoding: 38 38 9
Width: 1316
GlyphClass: 2
Flags: W
LayerCount: 2
Fore
SplineSet
292 392 m 0,0,1
 274 288 274 288 331 228 c 128,-1,2
 388 168 388 168 494 168 c 0,3,4
 630 168 630 168 762 290 c 1,5,-1
 524 698 l 1,6,7
 320 558 320 558 292 392 c 0,0,1
54 388 m 0,8,9
 100 664 100 664 440 866 c 1,10,11
 372 984 372 984 360 1040 c 0,12,13
 350 1090 350 1090 360 1142 c 0,14,15
 384 1290 384 1290 502 1380 c 128,-1,16
 620 1470 620 1470 796 1470 c 0,17,18
 946 1470 946 1470 1038 1392 c 128,-1,19
 1130 1314 1130 1314 1160 1196 c 1,20,-1
 972 1120 l 1,21,22
 912 1272 912 1272 782 1272 c 0,23,24
 706 1272 706 1272 656 1234 c 128,-1,25
 606 1196 606 1196 596 1136 c 0,26,27
 590 1104 590 1104 605 1057 c 128,-1,28
 620 1010 620 1010 661 930 c 128,-1,29
 702 850 702 850 740 784 c 128,-1,30
 778 718 778 718 856 590 c 0,31,32
 894 524 894 524 914 490 c 1,33,34
 972 594 972 594 1016 726 c 1,35,-1
 1222 690 l 1,36,37
 1152 474 1152 474 1026 302 c 1,38,-1
 1208 0 l 1,39,-1
 930 0 l 1,40,-1
 862 116 l 1,41,42
 678 -36 678 -36 456 -36 c 0,43,44
 232 -36 232 -36 128 87 c 128,-1,45
 24 210 24 210 54 388 c 0,8,9
EndSplineSet
EndChar

StartChar: quotesingle
Encoding: 39 39 10
Width: 658
GlyphClass: 2
Flags: W
LayerCount: 2
Fore
SplineSet
228 1034 m 1,0,-1
 502 1634 l 1,1,-1
 768 1634 l 1,2,-1
 414 1034 l 1,3,-1
 228 1034 l 1,0,-1
EndSplineSet
EndChar

StartChar: parenleft
Encoding: 40 40 11
Width: 840
GlyphClass: 2
Flags: W
LayerCount: 2
Fore
SplineSet
250 708 m 0,0,1
 340 1250 340 1250 748 1702 c 1,2,-1
 902 1604 l 1,3,4
 750 1404 750 1404 690 1304 c 0,5,6
 536 1042 536 1042 482 708 c 0,7,8
 434 422 434 422 470 222 c 128,-1,9
 506 22 506 22 606 -190 c 1,10,-1
 418 -290 l 1,11,12
 296 -68 296 -68 248 170 c 128,-1,13
 200 408 200 408 250 708 c 0,0,1
EndSplineSet
Substitution2: "'sups' Superscript lookup 5 subtable" uni207D
Substitution2: "'aalt' Access All Alternates lookup 0 subtable" uni207D
EndChar

StartChar: parenright
Encoding: 41 41 12
Width: 840
GlyphClass: 2
Flags: W
LayerCount: 2
Fore
SplineSet
-14 -190 m 1,0,1
 166 30 166 30 264 237 c 128,-1,2
 362 444 362 444 406 706 c 0,3,4
 432 864 432 864 433 997 c 128,-1,5
 434 1130 434 1130 409 1241 c 128,-1,6
 384 1352 384 1352 357 1427 c 128,-1,7
 330 1502 330 1502 282 1604 c 1,8,-1
 470 1702 l 1,9,10
 586 1494 586 1494 638 1257 c 128,-1,11
 690 1020 690 1020 638 706 c 0,12,13
 588 402 588 402 461 165 c 128,-1,14
 334 -72 334 -72 140 -290 c 1,15,-1
 -14 -190 l 1,0,1
EndSplineSet
Substitution2: "'sups' Superscript lookup 5 subtable" uni207E
Substitution2: "'aalt' Access All Alternates lookup 0 subtable" uni207E
EndChar

StartChar: asterisk
Encoding: 42 42 13
Width: 1088
GlyphClass: 2
Flags: W
LayerCount: 2
Fore
SplineSet
72 802 m 1,0,-1
 184 996 l 1,1,-1
 496 862 l 1,2,-1
 544 1220 l 1,3,-1
 758 1220 l 1,4,-1
 688 862 l 1,5,-1
 1044 996 l 1,6,-1
 1092 802 l 1,7,-1
 702 688 l 1,8,-1
 934 378 l 1,9,-1
 736 244 l 1,10,-1
 546 584 l 1,11,-1
 242 244 l 1,12,-1
 90 378 l 1,13,-1
 426 688 l 1,14,-1
 72 802 l 1,0,-1
EndSplineSet
EndChar

StartChar: plus
Encoding: 43 43 14
Width: 1086
GlyphClass: 2
Flags: W
LayerCount: 2
Fore
SplineSet
58 620 m 1,0,-1
 92 828 l 1,1,-1
 468 828 l 1,2,-1
 534 1220 l 1,3,-1
 762 1220 l 1,4,-1
 698 828 l 1,5,-1
 1080 828 l 1,6,-1
 1046 620 l 1,7,-1
 664 620 l 1,8,-1
 596 216 l 1,9,-1
 368 216 l 1,10,-1
 434 620 l 1,11,-1
 58 620 l 1,0,-1
EndSplineSet
Substitution2: "'sups' Superscript lookup 5 subtable" uni207A
Substitution2: "'aalt' Access All Alternates lookup 0 subtable" uni207A
EndChar

StartChar: comma
Encoding: 44 44 15
Width: 550
GlyphClass: 2
Flags: W
LayerCount: 2
Fore
SplineSet
-128 -314 m 1,0,-1
 146 288 l 1,1,-1
 412 288 l 1,2,-1
 60 -314 l 1,3,-1
 -128 -314 l 1,0,-1
EndSplineSet
EndChar

StartChar: hyphen
Encoding: 45 45 16
Width: 756
GlyphClass: 2
Flags: W
LayerCount: 2
Fore
SplineSet
70 620 m 1,0,-1
 104 828 l 1,1,-1
 736 828 l 1,2,-1
 702 620 l 1,3,-1
 70 620 l 1,0,-1
EndSplineSet
EndChar

StartChar: period
Encoding: 46 46 17
Width: 550
GlyphClass: 2
Flags: W
LayerCount: 2
Fore
SplineSet
26 0 m 1,0,-1
 72 286 l 1,1,-1
 380 286 l 1,2,-1
 332 0 l 1,3,-1
 26 0 l 1,0,-1
EndSplineSet
EndChar

StartChar: slash
Encoding: 47 47 18
Width: 740
GlyphClass: 2
Flags: W
LayerCount: 2
Fore
SplineSet
-140 -108 m 1,0,-1
 694 1564 l 1,1,-1
 936 1564 l 1,2,-1
 104 -108 l 1,3,-1
 -140 -108 l 1,0,-1
EndSplineSet
EndChar

StartChar: zero
Encoding: 48 48 19
Width: 1100
GlyphClass: 2
Flags: W
LayerCount: 2
Fore
SplineSet
352 734 m 0,0,1
 258 168 258 168 486 168 c 0,2,3
 548 168 548 168 601 215 c 128,-1,4
 654 262 654 262 693 345 c 128,-1,5
 732 428 732 428 758 523 c 128,-1,6
 784 618 784 618 804 734 c 0,7,8
 824 852 824 852 829 949 c 128,-1,9
 834 1046 834 1046 822 1128 c 128,-1,10
 810 1210 810 1210 771 1256 c 128,-1,11
 732 1302 732 1302 672 1302 c 0,12,13
 446 1302 446 1302 352 734 c 0,0,1
104 734 m 0,14,15
 140 952 140 952 209 1110 c 128,-1,16
 278 1268 278 1268 364 1349 c 128,-1,17
 450 1430 450 1430 534 1467 c 128,-1,18
 618 1504 618 1504 706 1504 c 0,19,20
 934 1504 934 1504 1022 1301 c 128,-1,21
 1110 1098 1110 1098 1050 734 c 0,22,23
 992 380 992 380 837 172 c 128,-1,24
 682 -36 682 -36 452 -36 c 0,25,26
 368 -36 368 -36 297 0 c 128,-1,27
 226 36 226 36 165 116 c 128,-1,28
 104 196 104 196 86 355 c 128,-1,29
 68 514 68 514 104 734 c 0,14,15
EndSplineSet
EndChar

StartChar: one
Encoding: 49 49 20
Width: 1100
GlyphClass: 2
Flags: W
LayerCount: 2
Fore
SplineSet
232 1036 m 1,0,-1
 262 1222 l 1,1,-1
 328 1222 l 2,2,3
 601 1222 601 1222 662 1446 c 2,4,-1
 668 1468 l 1,5,-1
 876 1468 l 1,6,-1
 630 0 l 5,7,-1
 384 0 l 5,8,-1
 556 1036 l 1,9,-1
 232 1036 l 1,0,-1
EndSplineSet
Substitution2: "'subs' Subscript lookup 6 subtable" uni2081
Substitution2: "'sups' Superscript lookup 5 subtable" onesuperior
Substitution2: "'sinf' Scientific Inferiors lookup 4 subtable" uni2081
AlternateSubs2: "'aalt' Access All Alternates lookup 1 subtable" uni2081 onesuperior
EndChar

StartChar: two
Encoding: 50 50 21
Width: 1100
GlyphClass: 2
Flags: W
LayerCount: 2
Fore
SplineSet
174 1108 m 1,0,1
 246 1292 246 1292 378 1398 c 128,-1,2
 510 1504 510 1504 696 1504 c 0,3,4
 890 1504 890 1504 996 1389 c 128,-1,5
 1102 1274 1102 1274 1070 1080 c 0,6,7
 1050 954 1050 954 975 851 c 128,-1,8
 900 748 900 748 776 644 c 0,9,10
 752 622 752 622 655 539 c 128,-1,11
 558 456 558 456 522 423 c 128,-1,12
 486 390 486 390 428 326 c 128,-1,13
 370 262 370 262 330 200 c 1,14,-1
 920 200 l 1,15,-1
 886 0 l 1,16,-1
 4 0 l 1,17,18
 18 88 18 88 62 176 c 128,-1,19
 106 264 106 264 154 329 c 128,-1,20
 202 394 202 394 286 477 c 128,-1,21
 370 560 370 560 424 606 c 128,-1,22
 478 652 478 652 576 734 c 0,23,24
 598 752 598 752 610 762 c 0,25,26
 794 918 794 918 822 1086 c 0,27,28
 838 1188 838 1188 794 1245 c 128,-1,29
 750 1302 750 1302 660 1302 c 0,30,31
 470 1302 470 1302 368 1046 c 1,32,-1
 174 1108 l 1,0,1
EndSplineSet
Substitution2: "'subs' Subscript lookup 6 subtable" uni2082
Substitution2: "'sups' Superscript lookup 5 subtable" twosuperior
Substitution2: "'sinf' Scientific Inferiors lookup 4 subtable" uni2082
AlternateSubs2: "'aalt' Access All Alternates lookup 1 subtable" uni2082 twosuperior
EndChar

StartChar: three
Encoding: 51 51 22
Width: 1100
GlyphClass: 2
Flags: W
LayerCount: 2
Fore
SplineSet
16 298 m 1,0,-1
 220 370 l 1,1,2
 272 168 272 168 464 168 c 0,3,4
 568 168 568 168 649 234 c 128,-1,5
 730 300 730 300 750 420 c 0,6,7
 768 530 768 530 701 599 c 128,-1,8
 634 668 634 668 516 668 c 0,9,10
 450 668 450 668 382 660 c 1,11,-1
 416 860 l 1,12,13
 462 856 462 856 538 856 c 0,14,15
 634 856 634 856 713 918 c 128,-1,16
 792 980 792 980 810 1088 c 0,17,18
 826 1182 826 1182 778 1242 c 128,-1,19
 730 1302 730 1302 640 1302 c 0,20,21
 484 1302 484 1302 376 1090 c 1,22,-1
 190 1154 l 1,23,24
 252 1308 252 1308 384 1406 c 128,-1,25
 516 1504 516 1504 688 1504 c 0,26,27
 890 1504 890 1504 989 1393 c 128,-1,28
 1088 1282 1088 1282 1060 1112 c 0,29,30
 1042 998 1042 998 970 909 c 128,-1,31
 898 820 898 820 806 774 c 1,32,33
 900 740 900 740 960 650 c 128,-1,34
 1020 560 1020 560 998 420 c 0,35,36
 962 206 962 206 809 86 c 128,-1,37
 656 -34 656 -34 432 -34 c 0,38,39
 252 -34 252 -34 143 63 c 128,-1,40
 34 160 34 160 16 298 c 1,0,-1
EndSplineSet
Substitution2: "'subs' Subscript lookup 6 subtable" uni2083
Substitution2: "'sups' Superscript lookup 5 subtable" threesuperior
Substitution2: "'sinf' Scientific Inferiors lookup 4 subtable" uni2083
AlternateSubs2: "'aalt' Access All Alternates lookup 1 subtable" uni2083 threesuperior
EndChar

StartChar: four
Encoding: 52 52 23
Width: 1100
GlyphClass: 2
Flags: W
LayerCount: 2
Fore
SplineSet
34 504 m 1,0,-1
 832 1470 l 1,1,-1
 1038 1470 l 1,2,-1
 876 508 l 1,3,-1
 1054 508 l 1,4,-1
 1020 306 l 1,5,-1
 842 306 l 1,6,-1
 790 0 l 5,7,-1
 552 0 l 5,8,-1
 606 306 l 1,9,-1
 2 306 l 1,10,-1
 34 504 l 1,0,-1
262 508 m 1,11,-1
 638 508 l 1,12,-1
 708 906 l 2,13,14
 728 1020 728 1020 748 1102 c 1,15,-1
 738 1102 l 1,16,17
 642 968 642 968 612 932 c 2,18,-1
 262 508 l 1,11,-1
EndSplineSet
Substitution2: "'subs' Subscript lookup 6 subtable" uni2084
Substitution2: "'sups' Superscript lookup 5 subtable" uni2074
Substitution2: "'sinf' Scientific Inferiors lookup 4 subtable" uni2084
AlternateSubs2: "'aalt' Access All Alternates lookup 1 subtable" uni2084 uni2074
EndChar

StartChar: five
Encoding: 53 53 24
Width: 1100
GlyphClass: 2
Flags: W
LayerCount: 2
Fore
SplineSet
28 274 m 1,0,-1
 238 346 l 1,1,2
 258 268 258 268 313 218 c 128,-1,3
 368 168 368 168 444 168 c 0,4,5
 560 168 560 168 640 247 c 128,-1,6
 720 326 720 326 742 458 c 0,7,8
 764 586 764 586 705 667 c 128,-1,9
 646 748 646 748 538 748 c 0,10,11
 404 748 404 748 282 616 c 1,12,-1
 138 674 l 1,13,-1
 346 1470 l 1,14,-1
 1076 1470 l 1,15,-1
 1042 1268 l 1,16,-1
 534 1268 l 1,17,-1
 428 882 l 1,18,19
 528 948 528 948 654 948 c 0,20,21
 838 948 838 948 931 817 c 128,-1,22
 1024 686 1024 686 988 462 c 0,23,24
 972 368 972 368 929 282 c 128,-1,25
 886 196 886 196 820 124 c 128,-1,26
 754 52 754 52 649 9 c 128,-1,27
 544 -34 544 -34 422 -34 c 0,28,29
 256 -34 256 -34 159 51 c 128,-1,30
 62 136 62 136 28 274 c 1,0,-1
EndSplineSet
EndChar

StartChar: six
Encoding: 54 54 25
Width: 1100
GlyphClass: 2
Flags: W
LayerCount: 2
Fore
SplineSet
316 468 m 0,0,1
 294 330 294 330 344 249 c 128,-1,2
 394 168 394 168 494 168 c 256,3,4
 594 168 594 168 669 248 c 128,-1,5
 744 328 744 328 766 468 c 0,6,7
 790 612 790 612 742 692 c 128,-1,8
 694 772 694 772 592 772 c 0,9,10
 494 772 494 772 416 688 c 128,-1,11
 338 604 338 604 316 468 c 0,0,1
100 668 m 0,12,13
 128 836 128 836 182 982 c 128,-1,14
 236 1128 236 1128 316 1247 c 128,-1,15
 396 1366 396 1366 510 1435 c 128,-1,16
 624 1504 624 1504 760 1504 c 0,17,18
 1048 1504 1048 1504 1122 1200 c 1,19,-1
 926 1134 l 1,20,21
 864 1302 864 1302 728 1302 c 0,22,23
 542 1302 542 1302 422 992 c 0,24,25
 394 918 394 918 368 824 c 1,26,27
 414 886 414 886 491 929 c 128,-1,28
 568 972 568 972 660 972 c 0,29,30
 852 972 852 972 949 830 c 128,-1,31
 1046 688 1046 688 1010 470 c 0,32,33
 974 250 974 250 829 108 c 128,-1,34
 684 -34 684 -34 468 -34 c 0,35,36
 242 -34 242 -34 148 122 c 0,37,38
 40 300 40 300 100 668 c 0,12,13
EndSplineSet
EndChar

StartChar: seven
Encoding: 55 55 26
Width: 1100
GlyphClass: 2
Flags: W
LayerCount: 2
Fore
SplineSet
202 1262 m 1,0,-1
 236 1470 l 1,1,-1
 1150 1470 l 1,2,-1
 1122 1304 l 1,3,4
 680 736 680 736 396 0 c 5,5,-1
 150 0 l 5,6,7
 370 620 370 620 836 1262 c 1,8,-1
 202 1262 l 1,0,-1
EndSplineSet
EndChar

StartChar: eight
Encoding: 56 56 27
Width: 1100
GlyphClass: 2
Flags: W
LayerCount: 2
Fore
SplineSet
444 1088 m 0,0,1
 428 990 428 990 473 931 c 128,-1,2
 518 872 518 872 602 872 c 256,3,4
 686 872 686 872 748 932 c 128,-1,5
 810 992 810 992 826 1088 c 0,6,7
 840 1178 840 1178 798 1240 c 128,-1,8
 756 1302 756 1302 672 1302 c 0,9,10
 586 1302 586 1302 522 1240 c 128,-1,11
 458 1178 458 1178 444 1088 c 0,0,1
42 404 m 0,12,13
 66 550 66 550 157 642 c 128,-1,14
 248 734 248 734 354 774 c 1,15,16
 164 884 164 884 200 1098 c 0,17,18
 230 1274 230 1274 374 1389 c 128,-1,19
 518 1504 518 1504 706 1504 c 0,20,21
 892 1504 892 1504 998 1389 c 128,-1,22
 1104 1274 1104 1274 1076 1098 c 0,23,24
 1040 882 1040 882 814 774 c 1,25,26
 914 730 914 730 973 637 c 128,-1,27
 1032 544 1032 544 1008 404 c 0,28,29
 976 208 976 208 819 87 c 128,-1,30
 662 -34 662 -34 452 -34 c 0,31,32
 250 -34 250 -34 129 81 c 128,-1,33
 8 196 8 196 42 404 c 0,12,13
290 416 m 0,34,35
 272 308 272 308 326 238 c 128,-1,36
 380 168 380 168 484 168 c 256,37,38
 588 168 588 168 666 238 c 128,-1,39
 744 308 744 308 762 416 c 0,40,41
 780 520 780 520 726 596 c 128,-1,42
 672 672 672 672 568 672 c 0,43,44
 466 672 466 672 387 597 c 128,-1,45
 308 522 308 522 290 416 c 0,34,35
EndSplineSet
EndChar

StartChar: nine
Encoding: 57 57 28
Width: 1100
GlyphClass: 2
Flags: W
LayerCount: 2
Fore
SplineSet
386 1006 m 0,0,1
 364 872 364 872 413 790 c 128,-1,2
 462 708 462 708 558 708 c 0,3,4
 658 708 658 708 733 791 c 128,-1,5
 808 874 808 874 830 1006 c 0,6,7
 852 1134 852 1134 805 1218 c 128,-1,8
 758 1302 758 1302 656 1302 c 0,9,10
 558 1302 558 1302 483 1219 c 128,-1,11
 408 1136 408 1136 386 1006 c 0,0,1
22 272 m 1,12,-1
 226 336 l 1,13,14
 282 168 282 168 424 168 c 0,15,16
 498 168 498 168 561 210 c 128,-1,17
 624 252 624 252 666 325 c 128,-1,18
 708 398 708 398 736 477 c 128,-1,19
 764 556 764 556 782 646 c 1,20,21
 672 510 672 510 492 510 c 256,22,23
 312 510 312 510 209 644 c 128,-1,24
 106 778 106 778 142 1004 c 0,25,26
 178 1224 178 1224 332 1364 c 128,-1,27
 486 1504 486 1504 688 1504 c 0,28,29
 860 1504 860 1504 956 1392 c 128,-1,30
 1052 1280 1052 1280 1064 1098 c 0,31,32
 1072 978 1072 978 1042 802 c 0,33,34
 976 404 976 404 813 185 c 128,-1,35
 650 -34 650 -34 388 -34 c 0,36,37
 238 -34 238 -34 143 59 c 128,-1,38
 48 152 48 152 22 272 c 1,12,-1
EndSplineSet
EndChar

StartChar: colon
Encoding: 58 58 29
Width: 550
GlyphClass: 2
Flags: W
LayerCount: 2
Fore
SplineSet
26 0 m 1,0,-1
 74 290 l 1,1,-1
 380 290 l 1,2,-1
 332 0 l 1,3,-1
 26 0 l 1,0,-1
156 788 m 1,4,-1
 204 1078 l 1,5,-1
 512 1078 l 1,6,-1
 464 788 l 1,7,-1
 156 788 l 1,4,-1
EndSplineSet
EndChar

StartChar: semicolon
Encoding: 59 59 30
Width: 550
GlyphClass: 2
Flags: W
LayerCount: 2
Fore
SplineSet
-128 -312 m 1,0,-1
 146 290 l 1,1,-1
 412 290 l 1,2,-1
 60 -312 l 1,3,-1
 -128 -312 l 1,0,-1
174 788 m 1,4,-1
 222 1078 l 1,5,-1
 530 1078 l 1,6,-1
 482 788 l 1,7,-1
 174 788 l 1,4,-1
EndSplineSet
EndChar

StartChar: less
Encoding: 60 60 31
Width: 1080
GlyphClass: 2
Flags: W
LayerCount: 2
Fore
SplineSet
78 604 m 1,0,-1
 114 822 l 1,1,-1
 1012 1430 l 1,2,-1
 1106 1250 l 1,3,-1
 324 714 l 1,4,-1
 928 174 l 1,5,-1
 774 -4 l 1,6,-1
 78 604 l 1,0,-1
EndSplineSet
EndChar

StartChar: equal
Encoding: 61 61 32
Width: 1080
GlyphClass: 2
Flags: W
LayerCount: 2
Fore
SplineSet
62 416 m 1,0,-1
 96 624 l 1,1,-1
 1000 624 l 1,2,-1
 966 416 l 1,3,-1
 62 416 l 1,0,-1
130 826 m 1,4,-1
 164 1036 l 1,5,-1
 1068 1036 l 1,6,-1
 1034 826 l 1,7,-1
 130 826 l 1,4,-1
EndSplineSet
Substitution2: "'sups' Superscript lookup 5 subtable" uni207C
Substitution2: "'aalt' Access All Alternates lookup 0 subtable" uni207C
EndChar

StartChar: greater
Encoding: 62 62 33
Width: 1080
GlyphClass: 2
Flags: W
LayerCount: 2
Fore
SplineSet
116 -4 m 1,0,-1
 20 174 l 1,1,-1
 802 714 l 1,2,-1
 198 1250 l 1,3,-1
 354 1430 l 1,4,-1
 1050 822 l 1,5,-1
 1014 604 l 1,6,-1
 116 -4 l 1,0,-1
EndSplineSet
EndChar

StartChar: question
Encoding: 63 63 34
Width: 1102
GlyphClass: 2
Flags: W
LayerCount: 2
Fore
SplineSet
204 1154 m 1,0,1
 272 1306 272 1306 408 1408 c 128,-1,2
 544 1510 544 1510 716 1510 c 0,3,4
 906 1510 906 1510 1007 1396 c 128,-1,5
 1108 1282 1108 1282 1076 1094 c 0,6,7
 1062 1006 1062 1006 1017 935 c 128,-1,8
 972 864 972 864 916 817 c 128,-1,9
 860 770 860 770 803 724 c 128,-1,10
 746 678 746 678 703 615 c 128,-1,11
 660 552 660 552 646 476 c 2,12,-1
 636 410 l 1,13,-1
 394 410 l 1,14,-1
 408 492 l 2,15,16
 420 570 420 570 455 636 c 128,-1,17
 490 702 490 702 534 745 c 128,-1,18
 578 788 578 788 626 832 c 128,-1,19
 674 876 674 876 717 912 c 128,-1,20
 760 948 760 948 792 998 c 128,-1,21
 824 1048 824 1048 834 1106 c 0,22,23
 848 1194 848 1194 809 1248 c 128,-1,24
 770 1302 770 1302 686 1302 c 0,25,26
 526 1302 526 1302 406 1082 c 1,27,-1
 204 1154 l 1,0,1
292 -10 m 1,28,-1
 340 274 l 1,29,-1
 646 274 l 1,30,-1
 600 -10 l 1,31,-1
 292 -10 l 1,28,-1
EndSplineSet
EndChar

StartChar: at
Encoding: 64 64 35
Width: 1816
GlyphClass: 2
Flags: W
LayerCount: 2
Fore
SplineSet
108 692 m 0,0,1
 170 1064 170 1064 450 1302 c 128,-1,2
 730 1540 730 1540 1106 1540 c 0,3,4
 1450 1540 1450 1540 1635 1328 c 128,-1,5
 1820 1116 1820 1116 1768 798 c 0,6,7
 1742 644 1742 644 1684 529 c 128,-1,8
 1626 414 1626 414 1552 351 c 128,-1,9
 1478 288 1478 288 1403 257 c 128,-1,10
 1328 226 1328 226 1256 226 c 0,11,12
 1178 226 1178 226 1125 275 c 128,-1,13
 1072 324 1072 324 1068 398 c 1,14,-1
 1066 398 l 1,15,16
 1030 332 1030 332 948 280 c 128,-1,17
 866 228 866 228 774 228 c 0,18,19
 632 228 632 228 554 338 c 128,-1,20
 476 448 476 448 506 628 c 0,21,22
 546 868 546 868 689 1005 c 128,-1,23
 832 1142 832 1142 1000 1142 c 0,24,25
 1124 1142 1124 1142 1180 1046 c 1,26,-1
 1200 1128 l 1,27,-1
 1376 1128 l 1,28,-1
 1246 540 l 2,29,30
 1246 534 1246 534 1246 530 c 0,31,32
 1236 472 1236 472 1251 439 c 128,-1,33
 1266 406 1266 406 1300 406 c 0,34,35
 1380 406 1380 406 1456 508 c 128,-1,36
 1532 610 1532 610 1562 784 c 0,37,38
 1604 1042 1604 1042 1473 1204 c 128,-1,39
 1342 1366 1342 1366 1078 1366 c 0,40,41
 792 1366 792 1366 577 1175 c 128,-1,42
 362 984 362 984 314 692 c 0,43,44
 262 380 262 380 409 199 c 128,-1,45
 556 18 556 18 838 18 c 0,46,47
 1050 18 1050 18 1252 76 c 1,48,-1
 1260 -86 l 1,49,50
 1060 -154 1060 -154 808 -154 c 0,51,52
 426 -154 426 -154 236 81 c 128,-1,53
 46 316 46 316 108 692 c 0,0,1
724 632 m 0,54,55
 710 546 710 546 739 483 c 128,-1,56
 768 420 768 420 836 420 c 0,57,58
 914 420 914 420 991 508 c 128,-1,59
 1068 596 1068 596 1102 798 c 0,60,61
 1114 872 1114 872 1086 919 c 128,-1,62
 1058 966 1058 966 988 966 c 0,63,64
 910 966 910 966 829 873 c 128,-1,65
 748 780 748 780 724 632 c 0,54,55
EndSplineSet
EndChar

StartChar: A
Encoding: 65 65 36
Width: 1290
GlyphClass: 2
Flags: W
LayerCount: 2
Fore
SplineSet
428 562 m 1,0,-1
 860 562 l 1,1,-1
 800 942 l 2,2,3
 796 984 796 984 788 1034 c 128,-1,4
 780 1084 780 1084 772 1144 c 128,-1,5
 764 1204 764 1204 762 1234 c 1,6,-1
 750 1234 l 1,7,8
 742 1216 742 1216 616 942 c 1,9,-1
 428 562 l 1,0,-1
-102 0 m 1,10,-1
 664 1470 l 1,11,-1
 928 1470 l 1,12,-1
 1204 0 l 1,13,-1
 950 0 l 1,14,-1
 890 364 l 1,15,-1
 334 364 l 1,16,-1
 154 0 l 1,17,-1
 -102 0 l 1,10,-1
EndSplineSet
Substitution2: "Single Substitution lookup 12 subtable" ordfeminine
EndChar

StartChar: B
Encoding: 66 66 37
Width: 1282
GlyphClass: 2
Flags: W
LayerCount: 2
Fore
SplineSet
58 0 m 1,0,-1
 300 1470 l 1,1,-1
 846 1470 l 2,2,3
 1078 1470 1078 1470 1175 1366 c 128,-1,4
 1272 1262 1272 1262 1242 1082 c 0,5,6
 1224 974 1224 974 1161 897 c 128,-1,7
 1098 820 1098 820 1012 776 c 1,8,9
 1096 744 1096 744 1151 652 c 128,-1,10
 1206 560 1206 560 1184 428 c 0,11,12
 1154 244 1154 244 1018 122 c 128,-1,13
 882 0 882 0 674 0 c 2,14,-1
 58 0 l 1,0,-1
330 208 m 1,15,-1
 666 208 l 2,16,17
 764 208 764 208 841 266 c 128,-1,18
 918 324 918 324 936 428 c 0,19,20
 952 526 952 526 900 589 c 128,-1,21
 848 652 848 652 736 652 c 2,22,-1
 404 652 l 1,23,-1
 330 208 l 1,15,-1
438 858 m 1,24,-1
 720 858 l 2,25,26
 824 858 824 858 898 909 c 128,-1,27
 972 960 972 960 990 1064 c 0,28,29
 1004 1154 1004 1154 958 1207 c 128,-1,30
 912 1260 912 1260 794 1260 c 2,31,-1
 504 1260 l 1,32,-1
 438 858 l 1,24,-1
EndSplineSet
EndChar

StartChar: C
Encoding: 67 67 38
Width: 1290
GlyphClass: 2
Flags: W
LayerCount: 2
Fore
SplineSet
98 736 m 0,0,1
 156 1090 156 1090 369 1297 c 128,-1,2
 582 1504 582 1504 864 1504 c 0,3,4
 1046 1504 1046 1504 1160 1402 c 128,-1,5
 1274 1300 1274 1300 1312 1148 c 1,6,-1
 1094 1080 l 1,7,8
 1014 1294 1014 1294 826 1294 c 0,9,10
 648 1294 648 1294 518 1142 c 128,-1,11
 388 990 388 990 346 736 c 0,12,13
 304 478 304 478 384 327 c 128,-1,14
 464 176 464 176 642 176 c 0,15,16
 758 176 758 176 857 247 c 128,-1,17
 956 318 956 318 1012 420 c 1,18,-1
 1218 352 l 1,19,20
 1180 284 1180 284 1126 222 c 128,-1,21
 1072 160 1072 160 997 100 c 128,-1,22
 922 40 922 40 822 3 c 128,-1,23
 722 -34 722 -34 610 -34 c 0,24,25
 334 -34 334 -34 186 172 c 128,-1,26
 38 378 38 378 98 736 c 0,0,1
EndSplineSet
EndChar

StartChar: D
Encoding: 68 68 39
Width: 1324
GlyphClass: 2
Flags: W
LayerCount: 2
Fore
SplineSet
58 0 m 1,0,-1
 300 1470 l 1,1,-1
 728 1470 l 2,2,3
 1054 1470 1054 1470 1199 1280 c 128,-1,4
 1344 1090 1344 1090 1286 736 c 0,5,6
 1266 616 1266 616 1226 511 c 128,-1,7
 1186 406 1186 406 1121 311 c 128,-1,8
 1056 216 1056 216 968 148 c 128,-1,9
 880 80 880 80 756 40 c 128,-1,10
 632 0 632 0 482 0 c 2,11,-1
 58 0 l 1,0,-1
330 206 m 1,12,-1
 490 206 l 2,13,14
 948 206 948 206 1036 736 c 0,15,16
 1082 1018 1082 1018 983 1140 c 128,-1,17
 884 1262 884 1262 668 1262 c 2,18,-1
 506 1262 l 1,19,-1
 330 206 l 1,12,-1
EndSplineSet
EndChar

StartChar: E
Encoding: 69 69 40
Width: 1166
GlyphClass: 2
Flags: W
LayerCount: 2
Fore
SplineSet
58 0 m 1,0,-1
 300 1470 l 1,1,-1
 1246 1470 l 1,2,-1
 1210 1260 l 1,3,-1
 504 1260 l 1,4,-1
 438 862 l 1,5,-1
 1076 862 l 1,6,-1
 1042 656 l 1,7,-1
 404 656 l 1,8,-1
 330 208 l 1,9,-1
 1054 208 l 1,10,-1
 1020 0 l 1,11,-1
 58 0 l 1,0,-1
EndSplineSet
EndChar

StartChar: F
Encoding: 70 70 41
Width: 1092
GlyphClass: 2
Flags: W
LayerCount: 2
Fore
SplineSet
58 0 m 1,0,-1
 300 1470 l 1,1,-1
 1218 1470 l 1,2,-1
 1182 1260 l 1,3,-1
 504 1260 l 1,4,-1
 436 840 l 1,5,-1
 1042 840 l 1,6,-1
 1008 634 l 1,7,-1
 402 634 l 1,8,-1
 296 0 l 1,9,-1
 58 0 l 1,0,-1
EndSplineSet
EndChar

StartChar: G
Encoding: 71 71 42
Width: 1376
GlyphClass: 2
Flags: W
LayerCount: 2
Fore
SplineSet
98 736 m 0,0,1
 154 1072 154 1072 366 1288 c 128,-1,2
 578 1504 578 1504 876 1504 c 0,3,4
 986 1504 986 1504 1074 1467 c 128,-1,5
 1162 1430 1162 1430 1214 1371 c 128,-1,6
 1266 1312 1266 1312 1295 1259 c 128,-1,7
 1324 1206 1324 1206 1340 1152 c 1,8,-1
 1122 1084 l 1,9,10
 1092 1142 1092 1142 1067 1181 c 128,-1,11
 1042 1220 1042 1220 983 1257 c 128,-1,12
 924 1294 924 1294 844 1294 c 0,13,14
 654 1294 654 1294 521 1141 c 128,-1,15
 388 988 388 988 346 736 c 0,16,17
 304 478 304 478 388 327 c 128,-1,18
 472 176 472 176 648 176 c 0,19,20
 798 176 798 176 899 265 c 128,-1,21
 1000 354 1000 354 1032 492 c 0,22,23
 1052 576 1052 576 1058 614 c 1,24,-1
 706 614 l 1,25,-1
 740 822 l 1,26,-1
 1326 822 l 1,27,-1
 1190 0 l 1,28,-1
 1024 0 l 1,29,-1
 1026 150 l 1,30,31
 878 -34 878 -34 604 -34 c 0,32,33
 332 -34 332 -34 186 175 c 128,-1,34
 40 384 40 384 98 736 c 0,0,1
EndSplineSet
EndChar

StartChar: H
Encoding: 72 72 43
Width: 1358
GlyphClass: 2
Flags: W
LayerCount: 2
Fore
SplineSet
58 0 m 1,0,-1
 300 1470 l 1,1,-1
 538 1470 l 1,2,-1
 436 858 l 1,3,-1
 1020 858 l 1,4,-1
 1122 1470 l 1,5,-1
 1358 1470 l 1,6,-1
 1116 0 l 1,7,-1
 878 0 l 1,8,-1
 986 652 l 1,9,-1
 402 652 l 1,10,-1
 294 0 l 1,11,-1
 58 0 l 1,0,-1
EndSplineSet
EndChar

StartChar: I
Encoding: 73 73 44
Width: 536
GlyphClass: 2
Flags: W
LayerCount: 2
Fore
SplineSet
58 0 m 1,0,-1
 300 1470 l 1,1,-1
 540 1470 l 1,2,-1
 296 0 l 1,3,-1
 58 0 l 1,0,-1
EndSplineSet
EndChar

StartChar: J
Encoding: 74 74 45
Width: 992
GlyphClass: 2
Flags: W
LayerCount: 2
Fore
SplineSet
-34 274 m 1,0,-1
 180 354 l 1,1,2
 188 278 188 278 232 227 c 128,-1,3
 276 176 276 176 350 176 c 0,4,5
 440 176 440 176 501 247 c 128,-1,6
 562 318 562 318 584 452 c 2,7,-1
 752 1470 l 1,8,-1
 992 1470 l 1,9,-1
 818 418 l 2,10,11
 782 202 782 202 653 84 c 128,-1,12
 524 -34 524 -34 320 -34 c 0,13,14
 154 -34 154 -34 68 55 c 128,-1,15
 -18 144 -18 144 -34 274 c 1,0,-1
EndSplineSet
EndChar

StartChar: K
Encoding: 75 75 46
Width: 1262
GlyphClass: 2
Flags: W
LayerCount: 2
Fore
SplineSet
58 0 m 1,0,-1
 300 1470 l 1,1,-1
 540 1470 l 1,2,-1
 430 804 l 1,3,-1
 434 804 l 1,4,-1
 1102 1470 l 1,5,-1
 1408 1470 l 1,6,-1
 742 826 l 1,7,-1
 1178 0 l 1,8,-1
 888 0 l 1,9,-1
 564 654 l 1,10,-1
 374 470 l 1,11,-1
 296 0 l 1,12,-1
 58 0 l 1,0,-1
EndSplineSet
EndChar

StartChar: L
Encoding: 76 76 47
Width: 1058
GlyphClass: 2
Flags: W
LayerCount: 2
Fore
SplineSet
58 0 m 1,0,-1
 300 1470 l 1,1,-1
 540 1470 l 1,2,-1
 330 208 l 1,3,-1
 984 208 l 1,4,-1
 948 0 l 1,5,-1
 58 0 l 1,0,-1
EndSplineSet
EndChar

StartChar: M
Encoding: 77 77 48
Width: 1650
GlyphClass: 2
Flags: W
LayerCount: 2
Fore
SplineSet
58 0 m 1,0,-1
 300 1470 l 1,1,-1
 592 1470 l 1,2,-1
 732 786 l 2,3,4
 746 710 746 710 767 579 c 128,-1,5
 788 448 788 448 794 408 c 1,6,-1
 800 408 l 1,7,8
 936 678 936 678 992 786 c 2,9,-1
 1354 1470 l 1,10,-1
 1650 1470 l 1,11,-1
 1408 0 l 1,12,-1
 1170 0 l 1,13,-1
 1280 668 l 2,14,15
 1308 834 1308 834 1382 1120 c 1,16,-1
 1376 1120 l 1,17,-1
 1220 808 l 1,18,-1
 836 84 l 1,19,-1
 658 84 l 1,20,-1
 516 808 l 1,21,-1
 460 1122 l 1,22,-1
 452 1122 l 1,23,24
 436 854 436 854 404 668 c 2,25,-1
 294 0 l 1,26,-1
 58 0 l 1,0,-1
EndSplineSet
EndChar

StartChar: N
Encoding: 78 78 49
Width: 1368
GlyphClass: 2
Flags: W
LayerCount: 2
Fore
SplineSet
58 0 m 1,0,-1
 300 1470 l 1,1,-1
 552 1470 l 1,2,-1
 964 364 l 1,3,-1
 972 364 l 1,4,5
 978 560 978 560 1014 788 c 2,6,-1
 1128 1470 l 1,7,-1
 1368 1470 l 1,8,-1
 1126 0 l 1,9,-1
 874 0 l 1,10,-1
 570 794 l 1,11,-1
 460 1100 l 1,12,-1
 450 1100 l 1,13,14
 442 882 442 882 408 676 c 2,15,-1
 296 0 l 1,16,-1
 58 0 l 1,0,-1
EndSplineSet
EndChar

StartChar: O
Encoding: 79 79 50
Width: 1378
GlyphClass: 2
Flags: W
LayerCount: 2
Fore
SplineSet
98 734 m 0,0,1
 156 1080 156 1080 361 1292 c 128,-1,2
 566 1504 566 1504 846 1504 c 256,3,4
 1126 1504 1126 1504 1259 1293 c 128,-1,5
 1392 1082 1392 1082 1336 734 c 256,6,7
 1278 386 1278 386 1074 176 c 128,-1,8
 870 -34 870 -34 590 -34 c 256,9,10
 310 -34 310 -34 175 176 c 128,-1,11
 40 386 40 386 98 734 c 0,0,1
346 734 m 0,12,13
 304 476 304 476 378 326 c 128,-1,14
 452 176 452 176 626 176 c 0,15,16
 796 176 796 176 921 325 c 128,-1,17
 1046 474 1046 474 1088 734 c 0,18,19
 1130 990 1130 990 1058 1142 c 128,-1,20
 986 1294 986 1294 810 1294 c 0,21,22
 638 1294 638 1294 513 1142 c 128,-1,23
 388 990 388 990 346 734 c 0,12,13
EndSplineSet
Substitution2: "Single Substitution lookup 12 subtable" ordmasculine
EndChar

StartChar: P
Encoding: 80 80 51
Width: 1250
GlyphClass: 2
Flags: W
LayerCount: 2
Fore
SplineSet
58 0 m 1,0,-1
 300 1470 l 1,1,-1
 862 1470 l 2,2,3
 1088 1470 1088 1470 1194 1346 c 128,-1,4
 1300 1222 1300 1222 1266 1020 c 0,5,6
 1232 812 1232 812 1082 691 c 128,-1,7
 932 570 932 570 718 570 c 2,8,-1
 390 570 l 1,9,-1
 296 0 l 1,10,-1
 58 0 l 1,0,-1
424 778 m 1,11,-1
 718 778 l 2,12,13
 842 778 842 778 922 840 c 128,-1,14
 1002 902 1002 902 1022 1020 c 256,15,16
 1042 1138 1042 1138 984 1199 c 128,-1,17
 926 1260 926 1260 796 1260 c 2,18,-1
 504 1260 l 1,19,-1
 424 778 l 1,11,-1
EndSplineSet
EndChar

StartChar: Q
Encoding: 81 81 52
Width: 1378
GlyphClass: 2
Flags: W
LayerCount: 2
Fore
SplineSet
98 734 m 0,0,1
 156 1084 156 1084 362 1294 c 128,-1,2
 568 1504 568 1504 846 1504 c 256,3,4
 1124 1504 1124 1504 1258 1292 c 128,-1,5
 1392 1080 1392 1080 1336 734 c 0,6,7
 1280 400 1280 400 1086 190 c 1,8,-1
 1218 22 l 1,9,-1
 1060 -102 l 1,10,-1
 932 62 l 1,11,12
 778 -34 778 -34 590 -34 c 0,13,14
 310 -34 310 -34 176 178 c 128,-1,15
 42 390 42 390 98 734 c 0,0,1
618 462 m 1,16,-1
 776 590 l 1,17,-1
 950 364 l 1,18,19
 1050 508 1050 508 1088 734 c 0,20,21
 1132 996 1132 996 1058 1145 c 128,-1,22
 984 1294 984 1294 810 1294 c 256,23,24
 638 1294 638 1294 513 1143 c 128,-1,25
 388 992 388 992 346 734 c 256,26,27
 304 476 304 476 378 326 c 128,-1,28
 452 176 452 176 626 176 c 0,29,30
 724 176 724 176 804 224 c 1,31,-1
 618 462 l 1,16,-1
EndSplineSet
EndChar

StartChar: R
Encoding: 82 82 53
Width: 1294
GlyphClass: 2
Flags: W
LayerCount: 2
Fore
SplineSet
428 796 m 1,0,-1
 732 796 l 2,1,2
 854 796 854 796 929 857 c 128,-1,3
 1004 918 1004 918 1024 1034 c 0,4,5
 1040 1136 1040 1136 983 1198 c 128,-1,6
 926 1260 926 1260 802 1260 c 2,7,-1
 504 1260 l 1,8,-1
 428 796 l 1,0,-1
58 0 m 1,9,-1
 300 1470 l 1,10,-1
 882 1470 l 2,11,12
 1104 1470 1104 1470 1204 1351 c 128,-1,13
 1304 1232 1304 1232 1274 1054 c 0,14,15
 1250 904 1250 904 1168 809 c 128,-1,16
 1086 714 1086 714 996 680 c 1,17,18
 1056 632 1056 632 1077 578 c 128,-1,19
 1098 524 1098 524 1100 414 c 0,20,21
 1108 196 1108 196 1188 0 c 1,22,-1
 920 0 l 1,23,24
 858 154 858 154 846 396 c 0,25,26
 840 490 840 490 809 539 c 128,-1,27
 778 588 778 588 696 588 c 2,28,-1
 394 588 l 1,29,-1
 296 0 l 1,30,-1
 58 0 l 1,9,-1
EndSplineSet
EndChar

StartChar: S
Encoding: 83 83 54
Width: 1184
GlyphClass: 2
Flags: W
LayerCount: 2
Fore
SplineSet
4 314 m 1,0,-1
 228 386 l 1,1,2
 264 294 264 294 350 235 c 128,-1,3
 436 176 436 176 552 176 c 0,4,5
 672 176 672 176 756 236 c 128,-1,6
 840 296 840 296 854 390 c 0,7,8
 870 490 870 490 803 546 c 128,-1,9
 736 602 736 602 592 654 c 0,10,11
 392 726 392 726 326 770 c 0,12,13
 148 882 148 882 184 1098 c 0,14,15
 214 1280 214 1280 373 1392 c 128,-1,16
 532 1504 532 1504 758 1504 c 0,17,18
 944 1504 944 1504 1061 1415 c 128,-1,19
 1178 1326 1178 1326 1216 1190 c 1,20,-1
 1002 1120 l 1,21,22
 916 1294 916 1294 720 1294 c 0,23,24
 602 1294 602 1294 524 1240 c 128,-1,25
 446 1186 446 1186 432 1098 c 0,26,27
 428 1072 428 1072 430 1049 c 128,-1,28
 432 1026 432 1026 445 1005 c 128,-1,29
 458 984 458 984 468 970 c 128,-1,30
 478 956 478 956 505 939 c 128,-1,31
 532 922 532 922 547 913 c 128,-1,32
 562 904 562 904 600 889 c 128,-1,33
 638 874 638 874 654 868 c 128,-1,34
 670 862 670 862 715 846 c 128,-1,35
 760 830 760 830 774 826 c 0,36,37
 854 798 854 798 912 766 c 128,-1,38
 970 734 970 734 1023 685 c 128,-1,39
 1076 636 1076 636 1097 563 c 128,-1,40
 1118 490 1118 490 1104 400 c 0,41,42
 1070 194 1070 194 906 80 c 128,-1,43
 742 -34 742 -34 512 -34 c 0,44,45
 314 -34 314 -34 180 60 c 128,-1,46
 46 154 46 154 4 314 c 1,0,-1
EndSplineSet
EndChar

StartChar: T
Encoding: 84 84 55
Width: 1104
GlyphClass: 2
Flags: W
LayerCount: 2
Fore
SplineSet
132 1260 m 1,0,-1
 168 1470 l 1,1,-1
 1240 1470 l 1,2,-1
 1204 1260 l 1,3,-1
 790 1260 l 1,4,-1
 580 0 l 1,5,-1
 340 0 l 1,6,-1
 548 1260 l 1,7,-1
 132 1260 l 1,0,-1
EndSplineSet
EndChar

StartChar: U
Encoding: 85 85 56
Width: 1350
GlyphClass: 2
Flags: W
LayerCount: 2
Fore
SplineSet
140 550 m 2,0,-1
 294 1470 l 1,1,-1
 536 1470 l 1,2,-1
 384 550 l 2,3,4
 352 360 352 360 413 268 c 128,-1,5
 474 176 474 176 610 176 c 0,6,7
 752 176 752 176 844 272 c 128,-1,8
 936 368 936 368 966 550 c 2,9,-1
 1118 1470 l 1,10,-1
 1360 1470 l 1,11,-1
 1208 550 l 2,12,13
 1162 270 1162 270 1001 118 c 128,-1,14
 840 -34 840 -34 576 -34 c 0,15,16
 322 -34 322 -34 207 113 c 128,-1,17
 92 260 92 260 140 550 c 2,0,-1
EndSplineSet
EndChar

StartChar: V
Encoding: 86 86 57
Width: 1198
GlyphClass: 2
Flags: W
LayerCount: 2
Fore
SplineSet
152 1470 m 1,0,-1
 412 1470 l 1,1,-1
 512 620 l 1,2,3
 542 290 542 290 546 256 c 1,4,-1
 552 254 l 1,5,6
 626 426 626 426 706 620 c 2,7,-1
 1088 1470 l 1,8,-1
 1348 1470 l 1,9,-1
 640 0 l 1,10,-1
 372 0 l 1,11,-1
 152 1470 l 1,0,-1
EndSplineSet
EndChar

StartChar: W
Encoding: 87 87 58
Width: 1708
GlyphClass: 2
Flags: W
LayerCount: 2
Fore
SplineSet
172 1470 m 1,0,-1
 424 1470 l 1,1,-1
 438 660 l 2,2,3
 436 452 436 452 434 266 c 1,4,-1
 444 266 l 1,5,6
 550 574 550 574 580 660 c 2,7,-1
 882 1470 l 1,8,-1
 1126 1470 l 1,9,-1
 1162 660 l 2,10,11
 1166 598 1166 598 1168 449 c 128,-1,12
 1170 300 1170 300 1170 266 c 1,13,-1
 1178 266 l 1,14,15
 1198 324 1198 324 1243 463 c 128,-1,16
 1288 602 1288 602 1308 660 c 2,17,-1
 1586 1470 l 1,18,-1
 1840 1470 l 1,19,-1
 1272 0 l 1,20,-1
 998 0 l 1,21,-1
 966 800 l 2,22,23
 958 1146 958 1146 960 1172 c 1,24,-1
 952 1172 l 1,25,26
 952 1168 952 1168 822 800 c 2,27,-1
 528 0 l 1,28,-1
 254 0 l 1,29,-1
 172 1470 l 1,0,-1
EndSplineSet
EndChar

StartChar: X
Encoding: 88 88 59
Width: 1206
GlyphClass: 2
Flags: W
LayerCount: 2
Fore
SplineSet
-90 0 m 1,0,-1
 496 754 l 1,1,-1
 176 1470 l 1,2,-1
 460 1470 l 1,3,-1
 582 1150 l 2,4,5
 592 1118 592 1118 620 1047 c 128,-1,6
 648 976 648 976 662 936 c 1,7,-1
 668 936 l 1,8,9
 676 948 676 948 824 1150 c 2,10,-1
 1052 1470 l 1,11,-1
 1334 1470 l 1,12,-1
 778 754 l 1,13,-1
 1116 0 l 1,14,-1
 836 0 l 1,15,-1
 696 344 l 2,16,17
 678 386 678 386 608 566 c 1,18,-1
 602 566 l 1,19,20
 464 374 464 374 440 344 c 2,21,-1
 190 0 l 1,22,-1
 -90 0 l 1,0,-1
EndSplineSet
EndChar

StartChar: Y
Encoding: 89 89 60
Width: 1228
GlyphClass: 2
Flags: W
LayerCount: 2
Fore
SplineSet
146 1470 m 1,0,-1
 420 1470 l 1,1,-1
 572 1036 l 2,2,3
 628 870 628 870 650 796 c 1,4,-1
 658 796 l 1,5,6
 710 874 710 874 816 1036 c 2,7,-1
 1110 1470 l 1,8,-1
 1386 1470 l 1,9,-1
 742 596 l 1,10,-1
 644 0 l 1,11,-1
 404 0 l 1,12,-1
 502 596 l 1,13,-1
 146 1470 l 1,0,-1
EndSplineSet
EndChar

StartChar: Z
Encoding: 90 90 61
Width: 1170
GlyphClass: 2
Flags: W
LayerCount: 2
Fore
SplineSet
-6 178 m 1,0,-1
 920 1260 l 1,1,-1
 232 1260 l 1,2,-1
 266 1470 l 1,3,-1
 1250 1470 l 1,4,-1
 1220 1288 l 1,5,-1
 292 208 l 1,6,-1
 1060 208 l 1,7,-1
 1026 0 l 1,8,-1
 -36 0 l 1,9,-1
 -6 178 l 1,0,-1
EndSplineSet
EndChar

StartChar: bracketleft
Encoding: 91 91 62
Width: 836
GlyphClass: 2
Flags: W
LayerCount: 2
Fore
SplineSet
92 -240 m 1,0,-1
 406 1652 l 1,1,-1
 868 1652 l 1,2,-1
 836 1458 l 1,3,-1
 606 1458 l 1,4,-1
 358 -44 l 1,5,-1
 586 -44 l 1,6,-1
 554 -240 l 1,7,-1
 92 -240 l 1,0,-1
EndSplineSet
EndChar

StartChar: backslash
Encoding: 92 92 63
Width: 712
GlyphClass: 2
Flags: W
LayerCount: 2
Fore
SplineSet
138 1564 m 1,0,-1
 378 1564 l 1,1,-1
 632 -106 l 1,2,-1
 392 -106 l 1,3,-1
 138 1564 l 1,0,-1
EndSplineSet
EndChar

StartChar: bracketright
Encoding: 93 93 64
Width: 836
GlyphClass: 2
Flags: W
LayerCount: 2
Fore
SplineSet
50 -44 m 1,0,-1
 284 -44 l 1,1,-1
 532 1458 l 1,2,-1
 298 1458 l 1,3,-1
 330 1652 l 1,4,-1
 796 1652 l 1,5,-1
 482 -240 l 1,6,-1
 18 -240 l 1,7,-1
 50 -44 l 1,0,-1
EndSplineSet
EndChar

StartChar: asciicircum
Encoding: 94 94 65
Width: 1034
GlyphClass: 2
Flags: W
LayerCount: 2
Fore
SplineSet
76 920 m 1,0,-1
 584 1618 l 1,1,-1
 800 1618 l 1,2,-1
 1074 920 l 1,3,-1
 836 920 l 1,4,-1
 704 1300 l 1,5,-1
 662 1430 l 1,6,-1
 660 1430 l 1,7,-1
 316 920 l 1,8,-1
 76 920 l 1,0,-1
EndSplineSet
EndChar

StartChar: underscore
Encoding: 95 95 66
Width: 952
GlyphClass: 2
Flags: W
LayerCount: 2
Fore
SplineSet
-86 -16 m 1,0,-1
 852 -16 l 1,1,-1
 820 -210 l 1,2,-1
 -118 -210 l 1,3,-1
 -86 -16 l 1,0,-1
EndSplineSet
EndChar

StartChar: grave
Encoding: 96 96 67
Width: 658
GlyphClass: 2
Flags: W
LayerCount: 2
Fore
SplineSet
400 1034 m 1,0,-1
 246 1634 l 1,1,-1
 510 1634 l 1,2,-1
 588 1034 l 1,3,-1
 400 1034 l 1,0,-1
EndSplineSet
EndChar

StartChar: a
Encoding: 97 97 68
Width: 1026
GlyphClass: 2
Flags: W
LayerCount: 2
Fore
SplineSet
238 302 m 0,0,1
 228 242 228 242 267 202 c 128,-1,2
 306 162 306 162 380 162 c 0,3,4
 486 162 486 162 574 236 c 128,-1,5
 662 310 662 310 682 432 c 2,6,-1
 698 530 l 1,7,8
 612 510 612 510 494 490 c 0,9,10
 264 454 264 454 238 302 c 0,0,1
12 280 m 0,11,12
 62 584 62 584 498 650 c 0,13,14
 658 674 658 674 724 696 c 1,15,-1
 734 752 l 2,16,17
 746 830 746 830 701 875 c 128,-1,18
 656 920 656 920 566 920 c 0,19,20
 400 920 400 920 254 774 c 1,21,-1
 140 898 l 1,22,23
 236 996 236 996 354 1051 c 128,-1,24
 472 1106 472 1106 596 1106 c 0,25,26
 820 1106 820 1106 898 990 c 128,-1,27
 976 874 976 874 942 666 c 2,28,-1
 832 0 l 1,29,-1
 616 0 l 1,30,-1
 638 134 l 1,31,32
 596 66 596 66 509 16 c 128,-1,33
 422 -34 422 -34 316 -34 c 0,34,35
 150 -34 150 -34 70 54 c 128,-1,36
 -10 142 -10 142 12 280 c 0,11,12
EndSplineSet
Substitution2: "Single Substitution lookup 12 subtable" ordfeminine
EndChar

StartChar: b
Encoding: 98 98 69
Width: 1096
GlyphClass: 2
Flags: W
LayerCount: 2
Fore
SplineSet
34 0 m 1,0,-1
 284 1518 l 1,1,-1
 502 1518 l 1,2,-1
 410 952 l 1,3,4
 460 1014 460 1014 535 1060 c 128,-1,5
 610 1106 610 1106 696 1106 c 0,6,7
 884 1106 884 1106 980 954 c 128,-1,8
 1076 802 1076 802 1032 538 c 0,9,10
 1012 416 1012 416 969 318 c 128,-1,11
 926 220 926 220 874 156 c 128,-1,12
 822 92 822 92 757 48 c 128,-1,13
 692 4 692 4 631 -15 c 128,-1,14
 570 -34 570 -34 510 -34 c 0,15,16
 422 -34 422 -34 357 17 c 128,-1,17
 292 68 292 68 270 138 c 1,18,-1
 248 0 l 1,19,-1
 34 0 l 1,0,-1
338 538 m 0,20,21
 310 366 310 366 358 267 c 128,-1,22
 406 168 406 168 512 168 c 0,23,24
 612 168 612 168 693 262 c 128,-1,25
 774 356 774 356 804 538 c 0,26,27
 832 706 832 706 786 806 c 128,-1,28
 740 906 740 906 634 906 c 256,29,30
 528 906 528 906 447 804 c 128,-1,31
 366 702 366 702 338 538 c 0,20,21
EndSplineSet
EndChar

StartChar: c
Encoding: 99 99 70
Width: 972
GlyphClass: 2
Flags: W
LayerCount: 2
Fore
SplineSet
54 536 m 0,0,1
 96 794 96 794 254 950 c 128,-1,2
 412 1106 412 1106 620 1106 c 0,3,4
 770 1106 770 1106 858 1009 c 128,-1,5
 946 912 946 912 952 788 c 1,6,-1
 754 732 l 1,7,8
 744 802 744 802 701 854 c 128,-1,9
 658 906 658 906 586 906 c 0,10,11
 472 906 472 906 390 800 c 128,-1,12
 308 694 308 694 282 536 c 0,13,14
 252 360 252 360 306 264 c 128,-1,15
 360 168 360 168 464 168 c 0,16,17
 542 168 542 168 611 224 c 128,-1,18
 680 280 680 280 716 354 c 1,19,-1
 896 296 l 1,20,21
 840 166 840 166 711 66 c 128,-1,22
 582 -34 582 -34 432 -34 c 0,23,24
 224 -34 224 -34 117 121 c 128,-1,25
 10 276 10 276 54 536 c 0,0,1
EndSplineSet
EndChar

StartChar: d
Encoding: 100 100 71
Width: 1096
GlyphClass: 2
Flags: W
LayerCount: 2
Fore
SplineSet
56 538 m 0,0,1
 100 800 100 800 248 953 c 128,-1,2
 396 1106 396 1106 582 1106 c 0,3,4
 670 1106 670 1106 730 1060 c 128,-1,5
 790 1014 790 1014 816 954 c 1,6,-1
 908 1518 l 1,7,-1
 1128 1518 l 1,8,-1
 878 0 l 1,9,-1
 662 0 l 1,10,-1
 686 140 l 1,11,12
 644 68 644 68 563 17 c 128,-1,13
 482 -34 482 -34 392 -34 c 0,14,15
 312 -34 312 -34 244 -2 c 128,-1,16
 176 30 176 30 122 95 c 128,-1,17
 68 160 68 160 50 274 c 128,-1,18
 32 388 32 388 56 538 c 0,0,1
282 538 m 0,19,20
 252 362 252 362 301 265 c 128,-1,21
 350 168 350 168 456 168 c 0,22,23
 558 168 558 168 640 267 c 128,-1,24
 722 366 722 366 750 538 c 0,25,26
 778 702 778 702 732 804 c 128,-1,27
 686 906 686 906 580 906 c 0,28,29
 468 906 468 906 389 805 c 128,-1,30
 310 704 310 704 282 538 c 0,19,20
EndSplineSet
EndChar

StartChar: e
Encoding: 101 101 72
Width: 1050
GlyphClass: 2
Flags: W
LayerCount: 2
Fore
SplineSet
56 540 m 0,0,1
 100 800 100 800 260 953 c 128,-1,2
 420 1106 420 1106 620 1106 c 0,3,4
 822 1106 822 1106 927 952 c 128,-1,5
 1032 798 1032 798 990 550 c 0,6,7
 982 502 982 502 970 456 c 1,8,-1
 266 456 l 1,9,10
 246 332 246 332 301 244 c 128,-1,11
 356 156 356 156 478 156 c 0,12,13
 564 156 564 156 634 200 c 128,-1,14
 704 244 704 244 750 312 c 1,15,-1
 924 246 l 1,16,17
 854 126 854 126 730 46 c 128,-1,18
 606 -34 606 -34 442 -34 c 0,19,20
 230 -34 230 -34 121 122 c 128,-1,21
 12 278 12 278 56 540 c 0,0,1
296 620 m 1,22,-1
 776 620 l 1,23,24
 796 744 796 744 749 830 c 128,-1,25
 702 916 702 916 590 916 c 0,26,27
 480 916 480 916 399 828 c 128,-1,28
 318 740 318 740 296 620 c 1,22,-1
EndSplineSet
EndChar

StartChar: f
Encoding: 102 102 73
Width: 654
GlyphClass: 2
Flags: W
LayerCount: 2
Fore
SplineSet
90 872 m 1,0,-1
 124 1072 l 1,1,-1
 280 1072 l 1,2,-1
 298 1188 l 2,3,4
 326 1352 326 1352 418 1435 c 128,-1,5
 510 1518 510 1518 652 1518 c 2,6,-1
 812 1518 l 1,7,-1
 780 1320 l 1,8,-1
 650 1320 l 2,9,10
 594 1320 594 1320 563 1284 c 128,-1,11
 532 1248 532 1248 520 1170 c 2,12,-1
 504 1072 l 1,13,-1
 716 1072 l 1,14,-1
 682 872 l 1,15,-1
 470 872 l 1,16,-1
 326 0 l 1,17,-1
 102 0 l 1,18,-1
 246 872 l 1,19,-1
 90 872 l 1,0,-1
EndSplineSet
EndChar

StartChar: g
Encoding: 103 103 74
Width: 1068
GlyphClass: 2
Flags: W
LayerCount: 2
Fore
SplineSet
290 556 m 0,0,1
 262 392 262 392 308 301 c 128,-1,2
 354 210 354 210 454 210 c 256,3,4
 554 210 554 210 628 299 c 128,-1,5
 702 388 702 388 730 558 c 0,6,7
 758 722 758 722 713 814 c 128,-1,8
 668 906 668 906 572 906 c 0,9,10
 470 906 470 906 393 811 c 128,-1,11
 316 716 316 716 290 556 c 0,0,1
64 554 m 0,12,13
 106 804 106 804 249 955 c 128,-1,14
 392 1106 392 1106 574 1106 c 0,15,16
 668 1106 668 1106 724 1057 c 128,-1,17
 780 1008 780 1008 796 948 c 1,18,-1
 818 1072 l 1,19,-1
 1038 1072 l 1,20,-1
 884 148 l 2,21,22
 834 -154 834 -154 698 -300 c 128,-1,23
 562 -446 562 -446 332 -446 c 0,24,25
 76 -446 76 -446 -28 -238 c 1,26,-1
 136 -130 l 1,27,28
 218 -256 218 -256 368 -256 c 0,29,30
 464 -256 464 -256 541 -178 c 128,-1,31
 618 -100 618 -100 642 26 c 0,32,33
 658 100 658 100 666 148 c 1,34,35
 624 90 624 90 550 50 c 128,-1,36
 476 10 476 10 402 10 c 0,37,38
 210 10 210 10 117 159 c 128,-1,39
 24 308 24 308 64 554 c 0,12,13
EndSplineSet
EndChar

StartChar: h
Encoding: 104 104 75
Width: 1056
GlyphClass: 2
Flags: W
LayerCount: 2
Fore
SplineSet
34 0 m 1,0,-1
 284 1518 l 1,1,-1
 502 1518 l 1,2,-1
 410 962 l 1,3,-1
 416 962 l 1,4,5
 466 1024 466 1024 544 1065 c 128,-1,6
 622 1106 622 1106 702 1106 c 0,7,8
 848 1106 848 1106 928 1006 c 128,-1,9
 1008 906 1008 906 972 690 c 2,10,-1
 858 0 l 1,11,-1
 638 0 l 1,12,-1
 746 660 l 2,13,14
 786 906 786 906 630 906 c 0,15,16
 534 906 534 906 453 818 c 128,-1,17
 372 730 372 730 354 614 c 2,18,-1
 252 0 l 1,19,-1
 34 0 l 1,0,-1
EndSplineSet
Substitution2: "'sups' Superscript lookup 5 subtable" uni02B0
Substitution2: "'aalt' Access All Alternates lookup 0 subtable" uni02B0
EndChar

StartChar: i
Encoding: 105 105 76
Width: 494
GlyphClass: 2
Flags: W
LayerCount: 2
Fore
SplineSet
240 1232 m 1,0,-1
 282 1490 l 1,1,-1
 518 1490 l 1,2,-1
 476 1232 l 1,3,-1
 240 1232 l 1,0,-1
44 0 m 1,4,-1
 222 1072 l 1,5,-1
 440 1072 l 1,6,-1
 262 0 l 1,7,-1
 44 0 l 1,4,-1
EndSplineSet
EndChar

StartChar: j
Encoding: 106 106 77
Width: 510
GlyphClass: 2
Flags: W
LayerCount: 2
Fore
SplineSet
254 1232 m 1,0,-1
 296 1490 l 1,1,-1
 536 1490 l 1,2,-1
 494 1232 l 1,3,-1
 254 1232 l 1,0,-1
-150 -222 m 1,4,-1
 -116 -222 l 2,5,6
 24 -222 24 -222 58 -14 c 2,7,-1
 238 1072 l 1,8,-1
 460 1072 l 1,9,-1
 278 -22 l 2,10,11
 244 -222 244 -222 145 -322 c 128,-1,12
 46 -422 46 -422 -112 -422 c 2,13,-1
 -184 -422 l 1,14,-1
 -150 -222 l 1,4,-1
EndSplineSet
Substitution2: "'sups' Superscript lookup 5 subtable" uni02B2
Substitution2: "'aalt' Access All Alternates lookup 0 subtable" uni02B2
EndChar

StartChar: k
Encoding: 107 107 78
Width: 994
GlyphClass: 2
Flags: W
LayerCount: 2
Fore
SplineSet
36 0 m 1,0,-1
 286 1518 l 1,1,-1
 506 1518 l 1,2,-1
 362 644 l 1,3,-1
 794 1072 l 1,4,-1
 1074 1072 l 1,5,-1
 626 636 l 1,6,-1
 920 0 l 1,7,-1
 658 0 l 1,8,-1
 454 470 l 1,9,-1
 310 328 l 1,10,-1
 256 0 l 1,11,-1
 36 0 l 1,0,-1
EndSplineSet
EndChar

StartChar: l
Encoding: 108 108 79
Width: 488
GlyphClass: 2
Flags: W
LayerCount: 2
Fore
SplineSet
40 0 m 1,0,-1
 292 1518 l 1,1,-1
 512 1518 l 1,2,-1
 260 0 l 1,3,-1
 40 0 l 1,0,-1
EndSplineSet
Substitution2: "'sups' Superscript lookup 5 subtable" uni02E1
Substitution2: "'aalt' Access All Alternates lookup 0 subtable" uni02E1
EndChar

StartChar: m
Encoding: 109 109 80
Width: 1558
GlyphClass: 2
Flags: W
LayerCount: 2
Fore
SplineSet
22 0 m 1,0,-1
 200 1072 l 1,1,-1
 414 1072 l 1,2,-1
 394 948 l 1,3,4
 430 1002 430 1002 507 1054 c 128,-1,5
 584 1106 584 1106 682 1106 c 0,6,7
 848 1106 848 1106 896 914 c 1,8,9
 914 940 914 940 938 966 c 128,-1,10
 962 992 962 992 1004 1028 c 128,-1,11
 1046 1064 1046 1064 1106 1085 c 128,-1,12
 1166 1106 1166 1106 1234 1106 c 0,13,14
 1544 1106 1544 1106 1474 690 c 2,15,-1
 1360 0 l 1,16,-1
 1136 0 l 1,17,-1
 1250 682 l 2,18,19
 1268 794 1268 794 1248 850 c 128,-1,20
 1228 906 1228 906 1152 906 c 0,21,22
 1060 906 1060 906 992 827 c 128,-1,23
 924 748 924 748 906 632 c 2,24,-1
 800 0 l 1,25,-1
 582 0 l 1,26,-1
 696 688 l 2,27,28
 732 906 732 906 594 906 c 0,29,30
 498 906 498 906 434 831 c 128,-1,31
 370 756 370 756 350 636 c 2,32,-1
 244 0 l 1,33,-1
 22 0 l 1,0,-1
EndSplineSet
EndChar

StartChar: n
Encoding: 110 110 81
Width: 1046
GlyphClass: 2
Flags: W
LayerCount: 2
Fore
SplineSet
22 0 m 1,0,-1
 200 1072 l 1,1,-1
 414 1072 l 1,2,-1
 392 936 l 1,3,-1
 394 936 l 1,4,5
 430 996 430 996 511 1051 c 128,-1,6
 592 1106 592 1106 704 1106 c 0,7,8
 856 1106 856 1106 929 1007 c 128,-1,9
 1002 908 1002 908 966 690 c 2,10,-1
 852 0 l 1,11,-1
 630 0 l 1,12,-1
 738 658 l 2,13,14
 780 906 780 906 620 906 c 0,15,16
 524 906 524 906 446 824 c 128,-1,17
 368 742 368 742 346 620 c 2,18,-1
 244 0 l 1,19,-1
 22 0 l 1,0,-1
EndSplineSet
Substitution2: "'sups' Superscript lookup 5 subtable" uni207F
Substitution2: "'aalt' Access All Alternates lookup 0 subtable" uni207F
EndChar

StartChar: o
Encoding: 111 111 82
Width: 1054
GlyphClass: 2
Flags: W
LayerCount: 2
Fore
SplineSet
282 536 m 0,0,1
 252 350 252 350 309 259 c 128,-1,2
 366 168 366 168 464 168 c 0,3,4
 560 168 560 168 647 259 c 128,-1,5
 734 350 734 350 764 536 c 0,6,7
 796 724 796 724 739 815 c 128,-1,8
 682 906 682 906 586 906 c 256,9,10
 490 906 490 906 402 815 c 128,-1,11
 314 724 314 724 282 536 c 0,0,1
54 536 m 0,12,13
 94 774 94 774 242 940 c 128,-1,14
 390 1106 390 1106 620 1106 c 0,15,16
 846 1106 846 1106 939 940 c 128,-1,17
 1032 774 1032 774 992 536 c 0,18,19
 980 460 980 460 954 386 c 128,-1,20
 928 312 928 312 882 235 c 128,-1,21
 836 158 836 158 776 99 c 128,-1,22
 716 40 716 40 626 3 c 128,-1,23
 536 -34 536 -34 432 -34 c 256,24,25
 328 -34 328 -34 250 3 c 128,-1,26
 172 40 172 40 130 96 c 128,-1,27
 88 152 88 152 66 229 c 128,-1,28
 44 306 44 306 43 382 c 128,-1,29
 42 458 42 458 54 536 c 0,12,13
EndSplineSet
Substitution2: "Single Substitution lookup 12 subtable" ordmasculine
EndChar

StartChar: p
Encoding: 112 112 83
Width: 1096
GlyphClass: 2
Flags: W
LayerCount: 2
Fore
SplineSet
340 538 m 0,0,1
 312 368 312 368 356 268 c 128,-1,2
 400 168 400 168 512 168 c 0,3,4
 614 168 614 168 695 265 c 128,-1,5
 776 362 776 362 806 538 c 0,6,7
 834 706 834 706 788 806 c 128,-1,8
 742 906 742 906 634 906 c 256,9,10
 526 906 526 906 446 803 c 128,-1,11
 366 700 366 700 340 538 c 0,0,1
-40 -438 m 1,12,-1
 210 1072 l 1,13,-1
 424 1072 l 1,14,-1
 400 932 l 1,15,16
 522 1106 522 1106 696 1106 c 0,17,18
 882 1106 882 1106 978 953 c 128,-1,19
 1074 800 1074 800 1032 538 c 0,20,21
 1008 390 1008 390 950 276 c 128,-1,22
 892 162 892 162 817 97 c 128,-1,23
 742 32 742 32 663 -1 c 128,-1,24
 584 -34 584 -34 508 -34 c 0,25,26
 410 -34 410 -34 352 14 c 128,-1,27
 294 62 294 62 274 124 c 1,28,-1
 180 -438 l 1,29,-1
 -40 -438 l 1,12,-1
EndSplineSet
EndChar

StartChar: q
Encoding: 113 113 84
Width: 1096
GlyphClass: 2
Flags: W
LayerCount: 2
Fore
SplineSet
282 538 m 0,0,1
 252 362 252 362 300 265 c 128,-1,2
 348 168 348 168 456 168 c 256,3,4
 562 168 562 168 642 267 c 128,-1,5
 722 366 722 366 750 538 c 0,6,7
 776 700 776 700 732 803 c 128,-1,8
 688 906 688 906 580 906 c 0,9,10
 468 906 468 906 388 803 c 128,-1,11
 308 700 308 700 282 538 c 0,0,1
56 538 m 0,12,13
 100 800 100 800 247 953 c 128,-1,14
 394 1106 394 1106 580 1106 c 0,15,16
 668 1106 668 1106 729 1057 c 128,-1,17
 790 1008 790 1008 818 932 c 1,18,-1
 840 1072 l 1,19,-1
 1054 1072 l 1,20,-1
 804 -438 l 1,21,-1
 584 -438 l 1,22,-1
 678 126 l 1,23,24
 632 60 632 60 558 13 c 128,-1,25
 484 -34 484 -34 392 -34 c 0,26,27
 314 -34 314 -34 246 -1 c 128,-1,28
 178 32 178 32 124 97 c 128,-1,29
 70 162 70 162 51 276 c 128,-1,30
 32 390 32 390 56 538 c 0,12,13
EndSplineSet
EndChar

StartChar: r
Encoding: 114 114 85
Width: 702
GlyphClass: 2
Flags: W
LayerCount: 2
Fore
SplineSet
22 0 m 1,0,-1
 200 1072 l 1,1,-1
 412 1072 l 1,2,-1
 394 958 l 1,3,4
 438 1016 438 1016 508 1061 c 128,-1,5
 578 1106 578 1106 664 1106 c 0,6,7
 744 1106 744 1106 792 1082 c 1,8,-1
 756 868 l 1,9,10
 694 890 694 890 630 890 c 0,11,12
 514 890 514 890 437 796 c 128,-1,13
 360 702 360 702 334 546 c 2,14,-1
 244 0 l 1,15,-1
 22 0 l 1,0,-1
EndSplineSet
Substitution2: "'sups' Superscript lookup 5 subtable" uni02B3
Substitution2: "'aalt' Access All Alternates lookup 0 subtable" uni02B3
EndChar

StartChar: s
Encoding: 115 115 86
Width: 932
GlyphClass: 2
Flags: W
LayerCount: 2
Fore
SplineSet
-14 224 m 1,0,-1
 164 322 l 1,1,2
 242 158 242 158 410 158 c 0,3,4
 492 158 492 158 546 192 c 128,-1,5
 600 226 600 226 610 284 c 0,6,7
 618 330 618 330 585 366 c 128,-1,8
 552 402 552 402 510 419 c 128,-1,9
 468 436 468 436 386 466 c 0,10,11
 370 472 370 472 366 474 c 0,12,13
 306 496 306 496 266 517 c 128,-1,14
 226 538 226 538 184 575 c 128,-1,15
 142 612 142 612 127 667 c 128,-1,16
 112 722 112 722 122 794 c 0,17,18
 146 934 146 934 273 1020 c 128,-1,19
 400 1106 400 1106 568 1106 c 0,20,21
 692 1106 692 1106 791 1036 c 128,-1,22
 890 966 890 966 926 858 c 1,23,-1
 762 764 l 1,24,25
 684 914 684 914 538 914 c 0,26,27
 456 914 456 914 407 880 c 128,-1,28
 358 846 358 846 348 790 c 0,29,30
 340 744 340 744 372 707 c 128,-1,31
 404 670 404 670 442 654 c 128,-1,32
 480 638 480 638 550 612 c 0,33,34
 568 606 568 606 576 602 c 0,35,36
 870 496 870 496 836 282 c 0,37,38
 814 150 814 150 695 58 c 128,-1,39
 576 -34 576 -34 382 -34 c 0,40,41
 234 -34 234 -34 131 35 c 128,-1,42
 28 104 28 104 -14 224 c 1,0,-1
EndSplineSet
Substitution2: "'hist' Historical Forms lookup 11 subtable" longs
Substitution2: "'sups' Superscript lookup 5 subtable" uni02E2
AlternateSubs2: "'aalt' Access All Alternates lookup 1 subtable" uni02E2 longs
EndChar

StartChar: t
Encoding: 116 116 87
Width: 692
GlyphClass: 2
Flags: W
LayerCount: 2
Fore
SplineSet
82 872 m 1,0,-1
 114 1072 l 1,1,-1
 270 1072 l 1,2,-1
 322 1390 l 1,3,-1
 544 1390 l 1,4,-1
 492 1072 l 1,5,-1
 724 1072 l 1,6,-1
 690 872 l 1,7,-1
 458 872 l 1,8,-1
 372 344 l 2,9,10
 360 268 360 268 382 234 c 128,-1,11
 404 200 404 200 466 200 c 2,12,-1
 582 200 l 1,13,-1
 548 0 l 1,14,-1
 404 0 l 2,15,16
 92 0 92 0 148 328 c 2,17,-1
 238 872 l 1,18,-1
 82 872 l 1,0,-1
EndSplineSet
EndChar

StartChar: u
Encoding: 117 117 88
Width: 1044
GlyphClass: 2
Flags: W
LayerCount: 2
Fore
SplineSet
76 388 m 2,0,-1
 190 1072 l 1,1,-1
 410 1072 l 1,2,-1
 302 418 l 2,3,4
 260 168 260 168 428 168 c 0,5,6
 528 168 528 168 600 258 c 128,-1,7
 672 348 672 348 692 472 c 2,8,-1
 790 1072 l 1,9,-1
 1010 1072 l 1,10,-1
 834 0 l 1,11,-1
 620 0 l 1,12,-1
 642 124 l 1,13,-1
 640 124 l 1,14,15
 606 66 606 66 528 16 c 128,-1,16
 450 -34 450 -34 346 -34 c 0,17,18
 284 -34 284 -34 232 -14 c 128,-1,19
 180 6 180 6 134 49 c 128,-1,20
 88 92 88 92 72 180 c 128,-1,21
 56 268 56 268 76 388 c 2,0,-1
EndSplineSet
EndChar

StartChar: v
Encoding: 118 118 89
Width: 986
GlyphClass: 2
Flags: W
LayerCount: 2
Fore
SplineSet
98 1072 m 1,0,-1
 344 1072 l 1,1,-1
 404 522 l 2,2,3
 410 466 410 466 419 353 c 128,-1,4
 428 240 428 240 430 198 c 1,5,-1
 434 198 l 1,6,7
 452 242 452 242 501 355 c 128,-1,8
 550 468 550 468 574 522 c 2,9,-1
 816 1072 l 1,10,-1
 1060 1072 l 1,11,-1
 528 0 l 1,12,-1
 274 0 l 1,13,-1
 98 1072 l 1,0,-1
EndSplineSet
EndChar

StartChar: w
Encoding: 119 119 90
Width: 1404
GlyphClass: 2
Flags: W
LayerCount: 2
Fore
SplineSet
98 1072 m 1,0,-1
 340 1072 l 1,1,-1
 354 534 l 2,2,3
 354 470 354 470 358 228 c 1,4,-1
 364 228 l 1,5,6
 382 280 382 280 420 388 c 128,-1,7
 458 496 458 496 472 534 c 2,8,-1
 668 1072 l 1,9,-1
 904 1072 l 1,10,-1
 924 530 l 2,11,12
 922 486 922 486 926 384 c 128,-1,13
 930 282 930 282 930 228 c 1,14,-1
 936 228 l 1,15,16
 954 280 954 280 994 396 c 128,-1,17
 1034 512 1034 512 1040 534 c 2,18,-1
 1234 1072 l 1,19,-1
 1474 1072 l 1,20,-1
 1020 0 l 1,21,-1
 772 0 l 1,22,-1
 752 522 l 2,23,24
 748 642 748 642 750 818 c 1,25,-1
 742 818 l 1,26,27
 722 760 722 760 686 654 c 128,-1,28
 650 548 650 548 640 522 c 2,29,-1
 444 0 l 1,30,-1
 196 0 l 1,31,-1
 98 1072 l 1,0,-1
EndSplineSet
Substitution2: "'sups' Superscript lookup 5 subtable" uni02B7
Substitution2: "'aalt' Access All Alternates lookup 0 subtable" uni02B7
EndChar

StartChar: x
Encoding: 120 120 91
Width: 1008
GlyphClass: 2
Flags: W
LayerCount: 2
Fore
SplineSet
-84 0 m 1,0,-1
 368 550 l 1,1,-1
 112 1072 l 1,2,-1
 382 1072 l 1,3,-1
 474 840 l 2,4,5
 508 748 508 748 522 710 c 1,6,-1
 530 710 l 1,7,8
 568 764 568 764 620 840 c 2,9,-1
 790 1072 l 1,10,-1
 1062 1072 l 1,11,-1
 632 550 l 1,12,-1
 904 0 l 1,13,-1
 638 0 l 1,14,-1
 532 258 l 2,15,16
 520 282 520 282 503 325 c 128,-1,17
 486 368 486 368 478 392 c 1,18,-1
 470 392 l 1,19,20
 460 380 460 380 372 258 c 2,21,-1
 180 0 l 1,22,-1
 -84 0 l 1,0,-1
EndSplineSet
Substitution2: "'sups' Superscript lookup 5 subtable" uni02E3
Substitution2: "'aalt' Access All Alternates lookup 0 subtable" uni02E3
EndChar

StartChar: y
Encoding: 121 121 92
Width: 986
GlyphClass: 2
Flags: W
LayerCount: 2
Fore
SplineSet
96 1072 m 1,0,-1
 342 1072 l 1,1,-1
 424 520 l 2,2,3
 442 368 442 368 450 274 c 1,4,-1
 458 274 l 1,5,6
 470 306 470 306 564 520 c 2,7,-1
 816 1072 l 1,8,-1
 1060 1072 l 1,9,-1
 436 -142 l 2,10,11
 352 -304 352 -304 252 -371 c 128,-1,12
 152 -438 152 -438 20 -438 c 2,13,-1
 -50 -438 l 1,14,-1
 -16 -242 l 1,15,-1
 16 -242 l 2,16,17
 96 -242 96 -242 152 -206 c 128,-1,18
 208 -170 208 -170 254 -80 c 2,19,-1
 304 26 l 1,20,-1
 96 1072 l 1,0,-1
EndSplineSet
Substitution2: "'sups' Superscript lookup 5 subtable" uni02B8
Substitution2: "'aalt' Access All Alternates lookup 0 subtable" uni02B8
EndChar

StartChar: z
Encoding: 122 122 93
Width: 924
GlyphClass: 2
Flags: W
LayerCount: 2
Fore
SplineSet
-50 0 m 1,0,-1
 -24 156 l 1,1,-1
 620 872 l 1,2,-1
 136 872 l 1,3,-1
 168 1072 l 1,4,-1
 944 1072 l 1,5,-1
 920 926 l 1,6,-1
 272 200 l 1,7,-1
 822 200 l 1,8,-1
 790 0 l 1,9,-1
 -50 0 l 1,0,-1
EndSplineSet
EndChar

StartChar: braceleft
Encoding: 123 123 94
Width: 846
GlyphClass: 2
Flags: W
LayerCount: 2
Fore
SplineSet
114 614 m 1,0,-1
 144 796 l 1,1,-1
 204 796 l 2,2,3
 252 796 252 796 288 853 c 128,-1,4
 324 910 324 910 342 1010 c 2,5,-1
 402 1370 l 2,6,7
 424 1506 424 1506 510 1579 c 128,-1,8
 596 1652 596 1652 722 1652 c 2,9,-1
 884 1652 l 1,10,-1
 852 1458 l 1,11,-1
 732 1458 l 2,12,13
 692 1458 692 1458 664 1428 c 128,-1,14
 636 1398 636 1398 628 1344 c 2,15,-1
 568 980 l 2,16,17
 538 800 538 800 384 704 c 1,18,19
 506 616 506 616 478 438 c 2,20,-1
 418 74 l 2,21,22
 398 -44 398 -44 486 -44 c 2,23,-1
 604 -44 l 1,24,-1
 572 -240 l 1,25,-1
 408 -240 l 2,26,27
 288 -240 288 -240 223 -169 c 128,-1,28
 158 -98 158 -98 180 40 c 2,29,-1
 242 408 l 2,30,31
 256 494 256 494 239 554 c 128,-1,32
 222 614 222 614 174 614 c 2,33,-1
 114 614 l 1,0,-1
EndSplineSet
EndChar

StartChar: bar
Encoding: 124 124 95
Width: 550
GlyphClass: 2
Flags: W
LayerCount: 2
Fore
SplineSet
14 -312 m 1,0,-1
 350 1720 l 1,1,-1
 582 1720 l 1,2,-1
 246 -312 l 1,3,-1
 14 -312 l 1,0,-1
EndSplineSet
EndChar

StartChar: braceright
Encoding: 125 125 96
Width: 846
GlyphClass: 2
Flags: W
LayerCount: 2
Fore
SplineSet
42 -44 m 1,0,-1
 162 -44 l 2,1,2
 248 -44 248 -44 268 74 c 2,3,-1
 328 438 l 2,4,5
 356 612 356 612 512 706 c 1,6,7
 388 800 388 800 418 980 c 2,8,-1
 478 1344 l 2,9,10
 486 1398 486 1398 469 1428 c 128,-1,11
 452 1458 452 1458 412 1458 c 2,12,-1
 292 1458 l 1,13,-1
 324 1652 l 1,14,-1
 488 1652 l 2,15,16
 612 1652 612 1652 674 1579 c 128,-1,17
 736 1506 736 1506 714 1370 c 2,18,-1
 654 1010 l 2,19,20
 618 796 618 796 720 796 c 2,21,-1
 784 796 l 1,22,-1
 754 614 l 1,23,-1
 690 614 l 2,24,25
 640 614 640 614 604 554 c 128,-1,26
 568 494 568 494 554 408 c 2,27,-1
 494 40 l 2,28,29
 472 -98 472 -98 382 -169 c 128,-1,30
 292 -240 292 -240 174 -240 c 2,31,-1
 10 -240 l 1,32,-1
 42 -44 l 1,0,-1
EndSplineSet
EndChar

StartChar: asciitilde
Encoding: 126 126 97
Width: 1528
GlyphClass: 2
Flags: W
LayerCount: 2
Fore
SplineSet
120 600 m 1,0,1
 308 944 308 944 594 944 c 0,2,3
 674 944 674 944 739 904 c 128,-1,4
 804 864 804 864 840 817 c 128,-1,5
 876 770 876 770 922 730 c 128,-1,6
 968 690 968 690 1014 690 c 0,7,8
 1054 690 1054 690 1090 706 c 128,-1,9
 1126 722 1126 722 1150 740 c 128,-1,10
 1174 758 1174 758 1200 793 c 128,-1,11
 1226 828 1226 828 1238 848 c 128,-1,12
 1250 868 1250 868 1270 906 c 1,13,-1
 1458 816 l 1,14,15
 1274 470 1274 470 986 470 c 0,16,17
 922 470 922 470 868 497 c 128,-1,18
 814 524 814 524 777 561 c 128,-1,19
 740 598 740 598 707 636 c 128,-1,20
 674 674 674 674 636 701 c 128,-1,21
 598 728 598 728 558 728 c 0,22,23
 424 728 424 728 306 512 c 1,24,-1
 120 600 l 1,0,1
EndSplineSet
EndChar

StartChar: exclamdown
Encoding: 161 161 99
Width: 586
GlyphClass: 2
Flags: W
LayerCount: 2
Fore
SplineSet
2 -406 m 1,0,-1
 196 654 l 1,1,-1
 420 654 l 1,2,-1
 260 -406 l 1,3,-1
 2 -406 l 1,0,-1
178 798 m 1,4,-1
 224 1080 l 1,5,-1
 532 1080 l 1,6,-1
 486 798 l 1,7,-1
 178 798 l 1,4,-1
EndSplineSet
EndChar

StartChar: cent
Encoding: 162 162 100
Width: 1002
GlyphClass: 2
Flags: W
LayerCount: 2
Fore
SplineSet
56 538 m 0,0,1
 90 748 90 748 213 901 c 128,-1,2
 336 1054 336 1054 518 1090 c 1,3,-1
 544 1246 l 1,4,-1
 754 1246 l 1,5,-1
 728 1092 l 1,6,7
 842 1064 842 1064 908 977 c 128,-1,8
 974 890 974 890 982 788 c 1,9,-1
 780 732 l 1,10,11
 766 802 766 802 724 854 c 128,-1,12
 682 906 682 906 608 906 c 0,13,14
 486 906 486 906 402 801 c 128,-1,15
 318 696 318 696 292 538 c 0,16,17
 264 370 264 370 316 269 c 128,-1,18
 368 168 368 168 484 168 c 0,19,20
 566 168 566 168 635 222 c 128,-1,21
 704 276 704 276 740 354 c 1,22,-1
 924 298 l 1,23,24
 880 194 880 194 781 103 c 128,-1,25
 682 12 682 12 544 -22 c 1,26,-1
 518 -186 l 1,27,-1
 308 -186 l 1,28,-1
 336 -18 l 1,29,30
 176 14 176 14 97 163 c 128,-1,31
 18 312 18 312 56 538 c 0,0,1
EndSplineSet
EndChar

StartChar: sterling
Encoding: 163 163 101
Width: 1174
GlyphClass: 2
Flags: W
LayerCount: 2
Fore
SplineSet
80 620 m 1,0,-1
 114 828 l 1,1,-1
 320 828 l 1,2,-1
 370 1122 l 2,3,4
 400 1306 400 1306 537 1405 c 128,-1,5
 674 1504 674 1504 876 1504 c 0,6,7
 1010 1504 1010 1504 1099 1431 c 128,-1,8
 1188 1358 1188 1358 1220 1268 c 1,9,-1
 1024 1174 l 1,10,11
 966 1290 966 1290 842 1290 c 0,12,13
 750 1290 750 1290 684 1242 c 128,-1,14
 618 1194 618 1194 602 1098 c 2,15,-1
 558 828 l 1,16,-1
 952 828 l 1,17,-1
 918 620 l 1,18,-1
 524 620 l 1,19,-1
 494 438 l 2,20,21
 470 290 470 290 406 230 c 1,22,23
 478 244 478 244 516 244 c 0,24,25
 572 244 572 244 658 209 c 128,-1,26
 744 174 744 174 812 174 c 0,27,28
 920 174 920 174 1042 234 c 1,29,-1
 1074 34 l 1,30,31
 912 -34 912 -34 776 -34 c 0,32,33
 710 -34 710 -34 588 1 c 128,-1,34
 466 36 466 36 406 36 c 0,35,36
 336 36 336 36 241 22 c 128,-1,37
 146 8 146 8 84 -8 c 2,38,-1
 24 -22 l 1,39,-1
 -8 150 l 1,40,41
 216 200 216 200 254 426 c 2,42,-1
 286 620 l 1,43,-1
 80 620 l 1,0,-1
EndSplineSet
EndChar

StartChar: currency
Encoding: 164 164 102
Width: 1280
GlyphClass: 2
Flags: W
LayerCount: 2
Fore
SplineSet
-6 298 m 1,0,-1
 242 500 l 1,1,2
 192 596 192 596 214 728 c 0,3,4
 236 864 236 864 316 958 c 1,5,-1
 136 1158 l 1,6,-1
 322 1312 l 1,7,-1
 490 1112 l 1,8,9
 620 1186 620 1186 744 1186 c 0,10,11
 862 1186 862 1186 974 1112 c 1,12,-1
 1208 1312 l 1,13,-1
 1342 1158 l 1,14,-1
 1096 958 l 1,15,16
 1146 868 1146 868 1124 728 c 0,17,18
 1102 596 1102 596 1018 500 c 1,19,-1
 1198 298 l 1,20,-1
 1014 144 l 1,21,-1
 846 344 l 1,22,23
 716 270 716 270 592 270 c 0,24,25
 464 270 464 270 364 344 c 1,26,-1
 128 144 l 1,27,-1
 -6 298 l 1,0,-1
424 728 m 0,28,29
 408 626 408 626 464 553 c 128,-1,30
 520 480 520 480 628 480 c 256,31,32
 736 480 736 480 815 552 c 128,-1,33
 894 624 894 624 912 728 c 256,34,35
 930 832 930 832 873 904 c 128,-1,36
 816 976 816 976 710 976 c 0,37,38
 602 976 602 976 521 901 c 128,-1,39
 440 826 440 826 424 728 c 0,28,29
EndSplineSet
EndChar

StartChar: yen
Encoding: 165 165 103
Width: 1226
GlyphClass: 2
Flags: W
LayerCount: 2
Fore
SplineSet
146 1470 m 1,0,-1
 420 1470 l 1,1,-1
 568 1126 l 2,2,3
 634 966 634 966 664 886 c 1,4,-1
 672 886 l 1,5,6
 698 924 698 924 727 964 c 128,-1,7
 756 1004 756 1004 793 1052 c 128,-1,8
 830 1100 830 1100 850 1126 c 2,9,-1
 1110 1470 l 1,10,-1
 1386 1470 l 1,11,-1
 876 842 l 1,12,-1
 1156 842 l 1,13,-1
 1126 668 l 1,14,-1
 752 668 l 1,15,-1
 720 472 l 1,16,-1
 1094 472 l 1,17,-1
 1066 300 l 1,18,-1
 690 300 l 1,19,-1
 642 0 l 1,20,-1
 402 0 l 1,21,-1
 452 300 l 1,22,-1
 78 300 l 1,23,-1
 106 472 l 1,24,-1
 480 472 l 1,25,-1
 512 668 l 1,26,-1
 138 668 l 1,27,-1
 168 842 l 1,28,-1
 446 842 l 1,29,-1
 146 1470 l 1,0,-1
EndSplineSet
EndChar

StartChar: brokenbar
Encoding: 166 166 104
Width: 550
GlyphClass: 2
Flags: W
LayerCount: 2
Fore
SplineSet
216 908 m 1,0,-1
 350 1720 l 1,1,-1
 582 1720 l 1,2,-1
 448 908 l 1,3,-1
 216 908 l 1,0,-1
14 -310 m 1,4,-1
 148 498 l 1,5,-1
 380 498 l 1,6,-1
 246 -310 l 1,7,-1
 14 -310 l 1,4,-1
EndSplineSet
EndChar

StartChar: section
Encoding: 167 167 105
Width: 1066
GlyphClass: 2
Flags: W
LayerCount: 2
Fore
SplineSet
-6 108 m 1,0,-1
 168 226 l 1,1,2
 202 170 202 170 267 134 c 128,-1,3
 332 98 332 98 416 98 c 0,4,5
 596 98 596 98 614 198 c 0,6,7
 620 232 620 232 599 256 c 128,-1,8
 578 280 578 280 530 304 c 2,9,-1
 340 404 l 2,10,11
 98 522 98 522 132 718 c 0,12,13
 158 874 158 874 336 992 c 1,14,15
 244 1082 244 1082 262 1200 c 0,16,17
 284 1336 284 1336 404 1420 c 128,-1,18
 524 1504 524 1504 738 1504 c 0,19,20
 1004 1504 1004 1504 1120 1300 c 1,21,-1
 948 1176 l 1,22,23
 856 1300 856 1300 698 1300 c 0,24,25
 612 1300 612 1300 560 1273 c 128,-1,26
 508 1246 508 1246 500 1198 c 0,27,28
 498 1180 498 1180 502 1165 c 128,-1,29
 506 1150 506 1150 519 1135 c 128,-1,30
 532 1120 532 1120 545 1110 c 128,-1,31
 558 1100 558 1100 582 1086 c 128,-1,32
 606 1072 606 1072 625 1063 c 128,-1,33
 644 1054 644 1054 677 1039 c 128,-1,34
 710 1024 710 1024 728 1012 c 0,35,36
 878 936 878 936 926 892 c 0,37,38
 1030 798 1030 798 1006 652 c 0,39,40
 980 494 980 494 816 380 c 1,41,42
 870 300 870 300 852 198 c 0,43,44
 828 58 828 58 710 -25 c 128,-1,45
 592 -108 592 -108 382 -108 c 0,46,47
 242 -108 242 -108 137 -44 c 128,-1,48
 32 20 32 20 -6 108 c 1,0,-1
374 724 m 0,49,50
 364 666 364 666 394 633 c 128,-1,51
 424 600 424 600 496 564 c 2,52,-1
 650 486 l 1,53,54
 754 568 754 568 768 652 c 0,55,56
 776 702 776 702 742 738 c 128,-1,57
 708 774 708 774 638 810 c 2,58,-1
 498 888 l 1,59,60
 388 814 388 814 374 724 c 0,49,50
EndSplineSet
EndChar

StartChar: dieresis
Encoding: 168 168 106
Width: 982
GlyphClass: 2
Flags: W
LayerCount: 2
Fore
SplineSet
282 1210 m 1,0,-1
 324 1470 l 1,1,-1
 572 1470 l 1,2,-1
 530 1210 l 1,3,-1
 282 1210 l 1,0,-1
668 1210 m 1,4,-1
 710 1470 l 1,5,-1
 960 1470 l 1,6,-1
 916 1210 l 1,7,-1
 668 1210 l 1,4,-1
EndSplineSet
EndChar

StartChar: copyright
Encoding: 169 169 107
Width: 1660
GlyphClass: 2
Flags: W
LayerCount: 2
Fore
SplineSet
486 746 m 0,0,1
 522 966 522 966 653 1088 c 128,-1,2
 784 1210 784 1210 962 1210 c 0,3,4
 1094 1210 1094 1210 1162 1135 c 128,-1,5
 1230 1060 1230 1060 1244 952 c 1,6,-1
 1074 902 l 1,7,8
 1038 1040 1038 1040 936 1040 c 256,9,10
 834 1040 834 1040 769 964 c 128,-1,11
 704 888 704 888 682 746 c 0,12,13
 656 594 656 594 699 522 c 128,-1,14
 742 450 742 450 838 450 c 0,15,16
 904 450 904 450 958 494 c 128,-1,17
 1012 538 1012 538 1044 600 c 1,18,-1
 1198 552 l 1,19,20
 1150 436 1150 436 1046 358 c 128,-1,21
 942 280 942 280 808 280 c 0,22,23
 630 280 630 280 540 402 c 128,-1,24
 450 524 450 524 486 746 c 0,0,1
94 744 m 0,25,26
 154 1104 154 1104 408 1322 c 128,-1,27
 662 1540 662 1540 992 1540 c 0,28,29
 1326 1540 1326 1540 1506 1320 c 128,-1,30
 1686 1100 1686 1100 1628 744 c 0,31,32
 1570 392 1570 392 1316 171 c 128,-1,33
 1062 -50 1062 -50 730 -50 c 256,34,35
 398 -50 398 -50 216 166 c 128,-1,36
 34 382 34 382 94 744 c 0,25,26
268 744 m 256,37,38
 220 452 220 452 354 277 c 128,-1,39
 488 102 488 102 754 102 c 0,40,41
 1010 102 1010 102 1208 272 c 128,-1,42
 1406 442 1406 442 1456 744 c 0,43,44
 1504 1038 1504 1038 1367 1213 c 128,-1,45
 1230 1388 1230 1388 968 1388 c 0,46,47
 704 1388 704 1388 510 1212 c 128,-1,48
 316 1036 316 1036 268 744 c 256,37,38
EndSplineSet
EndChar

StartChar: ordfeminine
Encoding: 170 170 108
Width: 748
GlyphClass: 2
Flags: W
LayerCount: 2
Fore
SplineSet
54 570 m 1,0,-1
 80 722 l 1,1,-1
 724 722 l 1,2,-1
 698 570 l 1,3,-1
 54 570 l 1,0,-1
294 1072 m 0,4,5
 288 1032 288 1032 314 1004 c 128,-1,6
 340 976 340 976 394 976 c 0,7,8
 470 976 470 976 532 1028 c 128,-1,9
 594 1080 594 1080 608 1164 c 2,10,-1
 620 1234 l 1,11,12
 594 1228 594 1228 544 1219 c 128,-1,13
 494 1210 494 1210 469 1205 c 128,-1,14
 444 1200 444 1200 407 1188 c 128,-1,15
 370 1176 370 1176 351 1162 c 128,-1,16
 332 1148 332 1148 315 1125 c 128,-1,17
 298 1102 298 1102 294 1072 c 0,4,5
126 1060 m 0,18,19
 138 1134 138 1134 181 1186 c 128,-1,20
 224 1238 224 1238 289 1265 c 128,-1,21
 354 1292 354 1292 412 1307 c 128,-1,22
 470 1322 470 1322 542 1333 c 128,-1,23
 614 1344 614 1344 640 1352 c 1,24,-1
 646 1390 l 2,25,26
 656 1446 656 1446 622 1477 c 128,-1,27
 588 1508 588 1508 524 1508 c 0,28,29
 404 1508 404 1508 302 1404 c 1,30,-1
 214 1490 l 1,31,32
 272 1550 272 1550 362 1593 c 128,-1,33
 452 1636 452 1636 546 1636 c 0,34,35
 710 1636 710 1636 768 1556 c 128,-1,36
 826 1476 826 1476 800 1328 c 2,37,-1
 724 860 l 1,38,-1
 566 860 l 1,39,-1
 582 956 l 1,40,41
 492 838 492 838 350 838 c 0,42,43
 230 838 230 838 170 899 c 128,-1,44
 110 960 110 960 126 1060 c 0,18,19
EndSplineSet
EndChar

StartChar: guillemotleft
Encoding: 171 171 109
Width: 1006
GlyphClass: 2
Flags: W
LayerCount: 2
Fore
SplineSet
62 530 m 1,0,-1
 468 1022 l 1,1,-1
 616 908 l 1,2,-1
 310 530 l 1,3,-1
 488 156 l 1,4,-1
 306 40 l 1,5,-1
 62 530 l 1,0,-1
452 530 m 1,6,-1
 852 998 l 1,7,-1
 992 872 l 1,8,-1
 696 530 l 1,9,-1
 878 184 l 1,10,-1
 698 62 l 1,11,-1
 452 530 l 1,6,-1
EndSplineSet
EndChar

StartChar: logicalnot
Encoding: 172 172 110
Width: 1076
GlyphClass: 2
Flags: W
LayerCount: 2
Fore
SplineSet
88 590 m 1,0,-1
 122 800 l 1,1,-1
 1034 800 l 1,2,-1
 940 238 l 1,3,-1
 722 238 l 1,4,-1
 780 590 l 1,5,-1
 88 590 l 1,0,-1
EndSplineSet
EndChar

StartChar: uni00AD
Encoding: 173 173 111
Width: 1088
GlyphClass: 2
Flags: W
LayerCount: 2
Fore
SplineSet
112 628 m 1,0,-1
 146 836 l 1,1,-1
 1032 836 l 1,2,-1
 998 628 l 1,3,-1
 112 628 l 1,0,-1
EndSplineSet
EndChar

StartChar: registered
Encoding: 174 174 112
Width: 1660
GlyphClass: 2
Flags: W
LayerCount: 2
Fore
SplineSet
482 288 m 1,0,-1
 632 1190 l 1,1,-1
 996 1190 l 2,2,3
 1132 1190 1132 1190 1192 1112 c 128,-1,4
 1252 1034 1252 1034 1234 924 c 0,5,6
 1208 772 1208 772 1084 706 c 1,7,8
 1112 676 1112 676 1121 643 c 128,-1,9
 1130 610 1130 610 1134 550 c 0,10,11
 1140 452 1140 452 1198 288 c 1,12,-1
 982 288 l 1,13,14
 938 374 938 374 932 532 c 0,15,16
 930 612 930 612 914 626 c 0,17,18
 900 642 900 642 876 642 c 2,19,-1
 736 642 l 1,20,-1
 678 288 l 1,21,-1
 482 288 l 1,0,-1
762 794 m 1,22,-1
 902 794 l 2,23,24
 954 794 954 794 989 824 c 128,-1,25
 1024 854 1024 854 1032 906 c 0,26,27
 1040 950 1040 950 1015 981 c 128,-1,28
 990 1012 990 1012 938 1012 c 2,29,-1
 798 1012 l 1,30,-1
 762 794 l 1,22,-1
96 748 m 0,31,32
 156 1108 156 1108 409 1324 c 128,-1,33
 662 1540 662 1540 992 1540 c 0,34,35
 1326 1540 1326 1540 1506 1320 c 128,-1,36
 1686 1100 1686 1100 1628 748 c 0,37,38
 1570 394 1570 394 1317 172 c 128,-1,39
 1064 -50 1064 -50 730 -50 c 0,40,41
 400 -50 400 -50 218 168 c 128,-1,42
 36 386 36 386 96 748 c 0,31,32
268 748 m 0,43,44
 218 452 218 452 351 282 c 128,-1,45
 484 112 484 112 756 112 c 0,46,47
 1018 112 1018 112 1213 280 c 128,-1,48
 1408 448 1408 448 1458 748 c 0,49,50
 1508 1046 1508 1046 1367 1212 c 128,-1,51
 1226 1378 1226 1378 966 1378 c 0,52,53
 698 1378 698 1378 507 1208 c 128,-1,54
 316 1038 316 1038 268 748 c 0,43,44
EndSplineSet
EndChar

StartChar: macron
Encoding: 175 175 113
Width: 964
GlyphClass: 2
Flags: W
LayerCount: 2
Fore
SplineSet
140 1384 m 1,0,-1
 174 1590 l 1,1,-1
 1134 1590 l 1,2,-1
 1100 1384 l 1,3,-1
 140 1384 l 1,0,-1
EndSplineSet
EndChar

StartChar: degree
Encoding: 176 176 114
Width: 818
GlyphClass: 2
Flags: W
LayerCount: 2
Fore
SplineSet
258 1220 m 0,0,1
 276 1328 276 1328 363 1405 c 128,-1,2
 450 1482 450 1482 564 1482 c 0,3,4
 672 1482 672 1482 736 1408 c 128,-1,5
 800 1334 800 1334 780 1220 c 0,6,7
 762 1108 762 1108 672 1032 c 128,-1,8
 582 956 582 956 476 956 c 0,9,10
 366 956 366 956 303 1032 c 128,-1,11
 240 1108 240 1108 258 1220 c 0,0,1
406 1220 m 0,12,13
 398 1168 398 1168 424 1134 c 128,-1,14
 450 1100 450 1100 500 1100 c 0,15,16
 548 1100 548 1100 585 1134 c 128,-1,17
 622 1168 622 1168 632 1220 c 0,18,19
 640 1268 640 1268 614 1302 c 128,-1,20
 588 1336 588 1336 540 1336 c 0,21,22
 490 1336 490 1336 452 1302 c 128,-1,23
 414 1268 414 1268 406 1220 c 0,12,13
EndSplineSet
EndChar

StartChar: plusminus
Encoding: 177 177 115
Width: 1094
GlyphClass: 2
Flags: W
LayerCount: 2
Fore
SplineSet
108 798 m 1,0,-1
 140 1000 l 1,1,-1
 504 1000 l 1,2,-1
 558 1326 l 1,3,-1
 786 1326 l 1,4,-1
 732 1000 l 1,5,-1
 1096 1000 l 1,6,-1
 1062 798 l 1,7,-1
 700 798 l 1,8,-1
 646 478 l 1,9,-1
 416 478 l 1,10,-1
 470 798 l 1,11,-1
 108 798 l 1,0,-1
6 158 m 1,12,-1
 40 362 l 1,13,-1
 988 362 l 1,14,-1
 954 158 l 1,15,-1
 6 158 l 1,12,-1
EndSplineSet
EndChar

StartChar: twosuperior
Encoding: 178 178 116
Width: 636
GlyphClass: 2
Flags: W
LayerCount: 2
Fore
SplineSet
180 1388 m 1,0,1
 196 1428 196 1428 210 1453 c 128,-1,2
 224 1478 224 1478 262 1529 c 128,-1,3
 300 1580 300 1580 359 1609 c 128,-1,4
 418 1638 418 1638 496 1638 c 0,5,6
 614 1638 614 1638 675 1568 c 128,-1,7
 736 1498 736 1498 718 1382 c 0,8,9
 698 1260 698 1260 554 1132 c 0,10,11
 540 1118 540 1118 476 1064 c 128,-1,12
 412 1010 412 1010 375 974 c 128,-1,13
 338 938 338 938 310 898 c 1,14,-1
 636 898 l 1,15,-1
 612 754 l 1,16,-1
 84 754 l 1,17,18
 104 878 104 878 177 968 c 128,-1,19
 250 1058 250 1058 434 1212 c 0,20,21
 536 1296 536 1296 552 1384 c 0,22,23
 560 1436 560 1436 538 1465 c 128,-1,24
 516 1494 516 1494 472 1494 c 0,25,26
 374 1494 374 1494 314 1348 c 1,27,-1
 180 1388 l 1,0,1
EndSplineSet
EndChar

StartChar: threesuperior
Encoding: 179 179 117
Width: 638
GlyphClass: 2
Flags: W
LayerCount: 2
Fore
SplineSet
92 946 m 1,0,-1
 232 996 l 1,1,2
 264 878 264 878 360 878 c 0,3,4
 414 878 414 878 457 911 c 128,-1,5
 500 944 500 944 510 1008 c 0,6,7
 520 1064 520 1064 485 1098 c 128,-1,8
 450 1132 450 1132 388 1132 c 0,9,10
 330 1132 330 1132 298 1128 c 1,11,-1
 322 1272 l 1,12,13
 386 1268 386 1268 406 1268 c 0,14,15
 456 1268 456 1268 495 1298 c 128,-1,16
 534 1328 534 1328 542 1384 c 0,17,18
 550 1432 550 1432 526 1463 c 128,-1,19
 502 1494 502 1494 456 1494 c 0,20,21
 408 1494 408 1494 377 1462 c 128,-1,22
 346 1430 346 1430 318 1372 c 1,23,-1
 186 1414 l 1,24,25
 214 1484 214 1484 256 1531 c 128,-1,26
 298 1578 298 1578 343 1599 c 128,-1,27
 388 1620 388 1620 421 1628 c 128,-1,28
 454 1636 454 1636 488 1636 c 0,29,30
 608 1636 608 1636 669 1569 c 128,-1,31
 730 1502 730 1502 714 1400 c 0,32,33
 694 1276 694 1276 586 1210 c 1,34,35
 700 1144 700 1144 678 1008 c 0,36,37
 656 880 656 880 565 807 c 128,-1,38
 474 734 474 734 338 734 c 0,39,40
 240 734 240 734 172 789 c 128,-1,41
 104 844 104 844 92 946 c 1,0,-1
EndSplineSet
EndChar

StartChar: acute
Encoding: 180 180 118
Width: 728
GlyphClass: 2
Flags: W
LayerCount: 2
Fore
SplineSet
272 1294 m 1,0,-1
 536 1644 l 1,1,-1
 816 1644 l 1,2,-1
 466 1294 l 1,3,-1
 272 1294 l 1,0,-1
EndSplineSet
EndChar

StartChar: uni00B5
Encoding: 181 181 119
Width: 1058
GlyphClass: 2
Flags: W
LayerCount: 2
Fore
SplineSet
-40 -438 m 1,0,-1
 210 1072 l 1,1,-1
 430 1072 l 1,2,-1
 322 418 l 2,3,4
 280 168 280 168 448 168 c 0,5,6
 550 168 550 168 621 259 c 128,-1,7
 692 350 692 350 712 472 c 2,8,-1
 810 1072 l 1,9,-1
 1032 1072 l 1,10,-1
 856 0 l 1,11,-1
 642 0 l 1,12,-1
 662 120 l 1,13,-1
 660 120 l 1,14,15
 628 62 628 62 550 14 c 128,-1,16
 472 -34 472 -34 376 -34 c 0,17,18
 296 -34 296 -34 256 20 c 1,19,-1
 180 -438 l 1,20,-1
 -40 -438 l 1,0,-1
EndSplineSet
EndChar

StartChar: paragraph
Encoding: 182 182 120
Width: 1222
GlyphClass: 2
Flags: W
LayerCount: 2
Fore
SplineSet
178 1096 m 0,0,1
 212 1298 212 1298 336 1420 c 128,-1,2
 460 1542 460 1542 656 1542 c 2,3,-1
 1238 1542 l 1,4,-1
 960 -144 l 1,5,-1
 768 -144 l 1,6,-1
 1012 1326 l 1,7,-1
 870 1326 l 1,8,-1
 626 -144 l 1,9,-1
 436 -144 l 1,10,-1
 566 644 l 1,11,12
 520 632 520 632 480 632 c 0,13,14
 320 632 320 632 230 752 c 128,-1,15
 140 872 140 872 178 1096 c 0,0,1
EndSplineSet
EndChar

StartChar: periodcentered
Encoding: 183 183 121
Width: 654
GlyphClass: 2
Flags: W
LayerCount: 2
Fore
SplineSet
176 564 m 1,0,-1
 224 850 l 1,1,-1
 530 850 l 1,2,-1
 482 564 l 1,3,-1
 176 564 l 1,0,-1
EndSplineSet
EndChar

StartChar: cedilla
Encoding: 184 184 122
Width: 592
GlyphClass: 2
Flags: W
LayerCount: 2
Fore
SplineSet
-60 -266 m 1,0,1
 14 -282 14 -282 60 -282 c 0,2,3
 160 -282 160 -282 168 -228 c 0,4,5
 180 -160 180 -160 6 -150 c 1,6,-1
 156 80 l 1,7,-1
 358 80 l 1,8,-1
 280 -42 l 1,9,10
 408 -90 408 -90 382 -232 c 0,11,12
 368 -322 368 -322 289 -386 c 128,-1,13
 210 -450 210 -450 48 -450 c 0,14,15
 -42 -450 -42 -450 -88 -434 c 1,16,-1
 -60 -266 l 1,0,1
EndSplineSet
EndChar

StartChar: onesuperior
Encoding: 185 185 123
Width: 622
GlyphClass: 2
Flags: W
LayerCount: 2
Fore
SplineSet
208 1346 m 1,0,-1
 232 1480 l 1,1,-1
 280 1480 l 2,2,3
 434 1480 434 1480 454 1592 c 2,4,-1
 460 1626 l 1,5,-1
 606 1626 l 1,6,-1
 462 756 l 1,7,-1
 296 756 l 1,8,-1
 394 1346 l 1,9,-1
 208 1346 l 1,0,-1
EndSplineSet
EndChar

StartChar: ordmasculine
Encoding: 186 186 124
Width: 762
GlyphClass: 2
Flags: W
LayerCount: 2
Fore
SplineSet
320 1238 m 0,0,1
 298 1108 298 1108 339 1044 c 128,-1,2
 380 980 380 980 450 980 c 256,3,4
 518 980 518 980 581 1044 c 128,-1,5
 644 1108 644 1108 666 1238 c 0,6,7
 688 1370 688 1370 646 1433 c 128,-1,8
 604 1496 604 1496 534 1496 c 256,9,10
 464 1496 464 1496 403 1433 c 128,-1,11
 342 1370 342 1370 320 1238 c 0,0,1
150 1238 m 0,12,13
 178 1406 178 1406 285 1522 c 128,-1,14
 392 1638 392 1638 558 1638 c 256,15,16
 724 1638 724 1638 792 1522 c 128,-1,17
 860 1406 860 1406 834 1238 c 0,18,19
 822 1170 822 1170 794 1105 c 128,-1,20
 766 1040 766 1040 720 978 c 128,-1,21
 674 916 674 916 597 877 c 128,-1,22
 520 838 520 838 426 838 c 0,23,24
 334 838 334 838 269 875 c 128,-1,25
 204 912 204 912 178 974 c 128,-1,26
 152 1036 152 1036 145 1102 c 128,-1,27
 138 1168 138 1168 150 1238 c 0,12,13
56 582 m 1,28,-1
 80 730 l 1,29,-1
 738 730 l 1,30,-1
 712 582 l 1,31,-1
 56 582 l 1,28,-1
EndSplineSet
EndChar

StartChar: guillemotright
Encoding: 187 187 125
Width: 1004
GlyphClass: 2
Flags: W
LayerCount: 2
Fore
SplineSet
118 872 m 1,0,-1
 300 998 l 1,1,-1
 546 530 l 1,2,-1
 144 62 l 1,3,-1
 4 184 l 1,4,-1
 300 530 l 1,5,-1
 118 872 l 1,0,-1
386 158 m 1,6,-1
 688 530 l 1,7,-1
 506 908 l 1,8,-1
 694 1022 l 1,9,-1
 936 530 l 1,10,-1
 530 40 l 1,11,-1
 386 158 l 1,6,-1
EndSplineSet
EndChar

StartChar: onequarter
Encoding: 188 188 126
Width: 1894
GlyphClass: 3
Flags: W
LayerCount: 2
Fore
SplineSet
1246 282 m 1,0,-1
 1428 282 l 1,1,-1
 1460 480 l 2,2,3
 1462 496 1462 496 1471 540 c 128,-1,4
 1480 584 1480 584 1480 590 c 1,5,-1
 1408 490 l 1,6,-1
 1246 282 l 1,0,-1
226 1250 m 1,7,-1
 254 1416 l 1,8,-1
 320 1416 l 2,9,10
 488 1416 488 1416 508 1538 c 2,11,-1
 516 1586 l 1,12,-1
 694 1586 l 1,13,-1
 528 580 l 1,14,-1
 324 580 l 1,15,-1
 436 1250 l 1,16,-1
 226 1250 l 1,7,-1
210 -102 m 1,17,-1
 1406 1564 l 1,18,-1
 1624 1564 l 1,19,-1
 432 -102 l 1,20,-1
 210 -102 l 1,17,-1
1036 264 m 1,21,-1
 1566 914 l 1,22,-1
 1734 914 l 1,23,-1
 1630 282 l 1,24,-1
 1742 282 l 1,25,-1
 1712 106 l 1,26,-1
 1600 106 l 1,27,-1
 1566 -100 l 1,28,-1
 1364 -100 l 1,29,-1
 1398 106 l 1,30,-1
 1010 106 l 1,31,-1
 1036 264 l 1,21,-1
EndSplineSet
Ligature2: "'frac' Diagonal Fractions lookup 7 subtable" one fraction four
Ligature2: "'frac' Diagonal Fractions lookup 7 subtable" one slash four
EndChar

StartChar: onehalf
Encoding: 189 189 127
Width: 1890
GlyphClass: 3
Flags: W
LayerCount: 2
Fore
SplineSet
182 -102 m 1,0,-1
 1392 1564 l 1,1,-1
 1608 1564 l 1,2,-1
 406 -102 l 1,3,-1
 182 -102 l 1,0,-1
1130 630 m 1,4,5
 1244 924 1244 924 1500 924 c 0,6,7
 1634 924 1634 924 1708 844 c 128,-1,8
 1782 764 1782 764 1760 628 c 0,9,10
 1748 560 1748 560 1709 497 c 128,-1,11
 1670 434 1670 434 1631 395 c 128,-1,12
 1592 356 1592 356 1524 298 c 0,13,14
 1346 148 1346 148 1300 84 c 1,15,-1
 1668 84 l 1,16,-1
 1638 -92 l 1,17,-1
 1024 -92 l 1,18,19
 1046 46 1046 46 1125 149 c 128,-1,20
 1204 252 1204 252 1424 438 c 0,21,22
 1540 534 1540 534 1556 630 c 0,23,24
 1566 686 1566 686 1542 717 c 128,-1,25
 1518 748 1518 748 1470 748 c 0,26,27
 1438 748 1438 748 1411 734 c 128,-1,28
 1384 720 1384 720 1368 704 c 128,-1,29
 1352 688 1352 688 1335 658 c 128,-1,30
 1318 628 1318 628 1313 616 c 128,-1,31
 1308 604 1308 604 1296 576 c 1,32,-1
 1130 630 l 1,4,5
226 1250 m 1,33,-1
 254 1416 l 1,34,-1
 320 1416 l 2,35,36
 488 1416 488 1416 508 1538 c 2,37,-1
 516 1586 l 1,38,-1
 694 1586 l 1,39,-1
 528 580 l 1,40,-1
 324 580 l 1,41,-1
 436 1250 l 1,42,-1
 226 1250 l 1,33,-1
EndSplineSet
Ligature2: "'frac' Diagonal Fractions lookup 7 subtable" one fraction two
Ligature2: "'frac' Diagonal Fractions lookup 7 subtable" one slash two
EndChar

StartChar: threequarters
Encoding: 190 190 128
Width: 1896
GlyphClass: 3
Flags: W
LayerCount: 2
Fore
SplineSet
136 816 m 1,0,-1
 308 878 l 1,1,2
 342 742 342 742 452 742 c 0,3,4
 510 742 510 742 556 777 c 128,-1,5
 602 812 602 812 612 880 c 0,6,7
 622 942 622 942 585 979 c 128,-1,8
 548 1016 548 1016 478 1016 c 0,9,10
 422 1016 422 1016 370 1010 c 1,11,-1
 400 1190 l 1,12,13
 440 1186 440 1186 500 1186 c 0,14,15
 552 1186 552 1186 596 1218 c 128,-1,16
 640 1250 640 1250 650 1310 c 0,17,18
 658 1360 658 1360 634 1394 c 128,-1,19
 610 1428 610 1428 560 1428 c 0,20,21
 520 1428 520 1428 489 1404 c 128,-1,22
 458 1380 458 1380 441 1354 c 128,-1,23
 424 1328 424 1328 404 1286 c 1,24,-1
 244 1340 l 1,25,26
 300 1478 300 1478 398 1541 c 128,-1,27
 496 1604 496 1604 598 1604 c 0,28,29
 738 1604 738 1604 808 1525 c 128,-1,30
 878 1446 878 1446 858 1326 c 0,31,32
 836 1194 836 1194 718 1114 c 1,33,34
 844 1036 844 1036 818 880 c 0,35,36
 794 734 794 734 687 649 c 128,-1,37
 580 564 580 564 426 564 c 0,38,39
 320 564 320 564 237 623 c 128,-1,40
 154 682 154 682 136 816 c 1,0,-1
1048 264 m 1,41,-1
 1574 914 l 1,42,-1
 1744 914 l 1,43,-1
 1638 282 l 1,44,-1
 1752 282 l 1,45,-1
 1724 106 l 1,46,-1
 1610 106 l 1,47,-1
 1576 -100 l 1,48,-1
 1376 -100 l 1,49,-1
 1410 106 l 1,50,-1
 1022 106 l 1,51,-1
 1048 264 l 1,41,-1
1256 282 m 1,52,-1
 1438 282 l 1,53,-1
 1470 472 l 2,54,55
 1472 488 1472 488 1481 536 c 128,-1,56
 1490 584 1490 584 1492 590 c 1,57,-1
 1414 484 l 1,58,-1
 1256 282 l 1,52,-1
316 -102 m 1,59,-1
 1534 1564 l 1,60,-1
 1750 1564 l 1,61,-1
 538 -102 l 1,62,-1
 316 -102 l 1,59,-1
EndSplineSet
Ligature2: "'frac' Diagonal Fractions lookup 7 subtable" three fraction four
Ligature2: "'frac' Diagonal Fractions lookup 7 subtable" three slash four
EndChar

StartChar: questiondown
Encoding: 191 191 129
Width: 1102
GlyphClass: 2
Flags: W
LayerCount: 2
Fore
SplineSet
16 -22 m 0,0,1
 30 66 30 66 76 138 c 128,-1,2
 122 210 122 210 178 257 c 128,-1,3
 234 304 234 304 290 350 c 128,-1,4
 346 396 346 396 390 459 c 128,-1,5
 434 522 434 522 448 600 c 2,6,-1
 458 660 l 1,7,-1
 698 660 l 1,8,-1
 686 580 l 2,9,10
 670 486 670 486 625 412 c 128,-1,11
 580 338 580 338 524 289 c 128,-1,12
 468 240 468 240 413 195 c 128,-1,13
 358 150 358 150 316 93 c 128,-1,14
 274 36 274 36 262 -34 c 0,15,16
 248 -124 248 -124 287 -176 c 128,-1,17
 326 -228 326 -228 408 -228 c 0,18,19
 566 -228 566 -228 686 -10 c 1,20,-1
 888 -82 l 1,21,22
 822 -234 822 -234 685 -336 c 128,-1,23
 548 -438 548 -438 376 -438 c 0,24,25
 186 -438 186 -438 85 -324 c 128,-1,26
 -16 -210 -16 -210 16 -22 c 0,0,1
446 800 m 1,27,-1
 492 1080 l 1,28,-1
 800 1080 l 1,29,-1
 754 800 l 1,30,-1
 446 800 l 1,27,-1
EndSplineSet
EndChar

StartChar: AE
Encoding: 198 198 136
Width: 1870
GlyphClass: 2
Flags: W
LayerCount: 2
Fore
SplineSet
528 562 m 1,0,-1
 904 562 l 1,1,-1
 1016 1238 l 1,2,-1
 998 1238 l 1,3,-1
 528 562 l 1,0,-1
-104 0 m 1,4,-1
 912 1470 l 1,5,-1
 1950 1470 l 1,6,-1
 1914 1262 l 1,7,-1
 1258 1262 l 1,8,-1
 1192 862 l 1,9,-1
 1780 862 l 1,10,-1
 1746 656 l 1,11,-1
 1142 656 l 1,12,-1
 1068 208 l 1,13,-1
 1758 208 l 1,14,-1
 1724 0 l 1,15,-1
 810 0 l 1,16,-1
 870 364 l 1,17,-1
 400 364 l 1,18,-1
 152 0 l 1,19,-1
 -104 0 l 1,4,-1
EndSplineSet
EndChar

StartChar: multiply
Encoding: 215 215 153
Width: 1082
GlyphClass: 2
Flags: W
LayerCount: 2
Fore
SplineSet
38 408 m 1,0,-1
 424 730 l 1,1,-1
 144 1050 l 1,2,-1
 318 1198 l 1,3,-1
 592 874 l 1,4,-1
 972 1198 l 1,5,-1
 1096 1052 l 1,6,-1
 712 730 l 1,7,-1
 990 406 l 1,8,-1
 816 260 l 1,9,-1
 544 586 l 1,10,-1
 164 260 l 1,11,-1
 38 408 l 1,0,-1
EndSplineSet
EndChar

StartChar: Oslash
Encoding: 216 216 154
Width: 1378
GlyphClass: 2
Flags: W
LayerCount: 2
Fore
SplineSet
98 734 m 0,0,1
 156 1080 156 1080 362 1292 c 128,-1,2
 568 1504 568 1504 846 1504 c 0,3,4
 998 1504 998 1504 1108 1436 c 1,5,-1
 1206 1578 l 1,6,-1
 1408 1578 l 1,7,-1
 1236 1326 l 1,8,9
 1400 1114 1400 1114 1338 734 c 0,10,11
 1280 386 1280 386 1075 176 c 128,-1,12
 870 -34 870 -34 590 -34 c 0,13,14
 444 -34 444 -34 344 22 c 1,15,-1
 248 -116 l 1,16,-1
 50 -116 l 1,17,-1
 216 122 l 1,18,19
 32 336 32 336 98 734 c 0,0,1
1072 1098 m 1,20,-1
 478 214 l 1,21,22
 528 176 528 176 626 176 c 0,23,24
 796 176 796 176 921 325 c 128,-1,25
 1046 474 1046 474 1088 734 c 0,26,27
 1126 960 1126 960 1072 1098 c 1,20,-1
976 1244 m 1,28,29
 908 1294 908 1294 810 1294 c 0,30,31
 638 1294 638 1294 513 1142 c 128,-1,32
 388 990 388 990 346 734 c 0,33,34
 308 504 308 504 374 348 c 1,35,-1
 976 1244 l 1,28,29
EndSplineSet
EndChar

StartChar: Thorn
Encoding: 222 222 160
Width: 1128
GlyphClass: 2
Flags: W
LayerCount: 2
Fore
SplineSet
58 0 m 1,0,-1
 300 1470 l 1,1,-1
 538 1470 l 1,2,-1
 498 1232 l 1,3,-1
 644 1232 l 2,4,5
 792 1232 792 1232 892 1191 c 128,-1,6
 992 1150 992 1150 1039 1080 c 128,-1,7
 1086 1010 1086 1010 1100 928 c 128,-1,8
 1114 846 1114 846 1098 750 c 0,9,10
 1058 510 1058 510 895 386 c 128,-1,11
 732 262 732 262 486 262 c 2,12,-1
 338 262 l 1,13,-1
 294 0 l 1,14,-1
 58 0 l 1,0,-1
372 472 m 1,15,-1
 500 472 l 2,16,17
 800 472 800 472 846 754 c 0,18,19
 890 1024 890 1024 592 1024 c 2,20,-1
 464 1024 l 1,21,-1
 372 472 l 1,15,-1
EndSplineSet
EndChar

StartChar: germandbls
Encoding: 223 223 161
Width: 1204
GlyphClass: 2
Flags: W
LayerCount: 2
Fore
SplineSet
58 0 m 1,0,-1
 234 1070 l 2,1,2
 268 1280 268 1280 411 1392 c 128,-1,3
 554 1504 554 1504 734 1504 c 0,4,5
 936 1504 936 1504 1042 1396 c 128,-1,6
 1148 1288 1148 1288 1118 1102 c 0,7,8
 1084 896 1084 896 912 796 c 1,9,-1
 910 792 l 1,10,11
 1022 750 1022 750 1077 653 c 128,-1,12
 1132 556 1132 556 1106 404 c 0,13,14
 1072 200 1072 200 936 83 c 128,-1,15
 800 -34 800 -34 594 -34 c 0,16,17
 466 -34 466 -34 364 2 c 1,18,-1
 404 218 l 1,19,20
 500 174 500 174 620 174 c 0,21,22
 708 174 708 174 780 240 c 128,-1,23
 852 306 852 306 870 406 c 0,24,25
 890 530 890 530 833 597 c 128,-1,26
 776 664 776 664 650 664 c 2,27,-1
 526 664 l 1,28,-1
 560 872 l 1,29,-1
 666 872 l 2,30,31
 742 872 742 872 802 929 c 128,-1,32
 862 986 862 986 880 1090 c 0,33,34
 894 1180 894 1180 847 1237 c 128,-1,35
 800 1294 800 1294 708 1294 c 0,36,37
 612 1294 612 1294 546 1229 c 128,-1,38
 480 1164 480 1164 460 1052 c 2,39,-1
 286 0 l 1,40,-1
 58 0 l 1,0,-1
EndSplineSet
EndChar

StartChar: ae
Encoding: 230 230 168
Width: 1674
GlyphClass: 2
Flags: W
LayerCount: 2
Fore
SplineSet
14 286 m 0,0,1
 38 434 38 434 165 527 c 128,-1,2
 292 620 292 620 518 654 c 0,3,4
 662 676 662 676 724 694 c 1,5,-1
 734 756 l 2,6,7
 746 826 746 826 699 873 c 128,-1,8
 652 920 652 920 570 920 c 0,9,10
 404 920 404 920 252 774 c 1,11,-1
 138 896 l 1,12,13
 336 1104 336 1104 600 1104 c 0,14,15
 828 1104 828 1104 906 946 c 1,16,17
 1052 1104 1052 1104 1256 1104 c 0,18,19
 1450 1104 1450 1104 1553 948 c 128,-1,20
 1656 792 1656 792 1616 546 c 0,21,22
 1608 494 1608 494 1598 456 c 1,23,-1
 902 456 l 1,24,-1
 896 428 l 1,25,26
 886 324 886 324 935 240 c 128,-1,27
 984 156 984 156 1104 156 c 0,28,29
 1268 156 1268 156 1376 312 c 1,30,-1
 1546 246 l 1,31,32
 1476 126 1476 126 1354 46 c 128,-1,33
 1232 -34 1232 -34 1070 -34 c 0,34,35
 948 -34 948 -34 860 25 c 128,-1,36
 772 84 772 84 728 186 c 1,37,38
 540 -34 540 -34 316 -34 c 0,39,40
 152 -34 152 -34 71 55 c 128,-1,41
 -10 144 -10 144 14 286 c 0,0,1
238 302 m 0,42,43
 228 246 228 246 266 204 c 128,-1,44
 304 162 304 162 376 162 c 0,45,46
 484 162 484 162 573 238 c 128,-1,47
 662 314 662 314 680 428 c 2,48,-1
 698 530 l 1,49,50
 570 502 570 502 510 492 c 0,51,52
 264 458 264 458 238 302 c 0,42,43
928 620 m 1,53,-1
 1404 620 l 1,54,55
 1404 624 1404 624 1404 628 c 0,56,57
 1424 748 1424 748 1374 832 c 128,-1,58
 1324 916 1324 916 1226 916 c 0,59,60
 1122 916 1122 916 1049 845 c 128,-1,61
 976 774 976 774 940 664 c 1,62,-1
 928 620 l 1,53,-1
EndSplineSet
EndChar

StartChar: eth
Encoding: 240 240 178
Width: 1048
GlyphClass: 2
Flags: W
LayerCount: 2
Fore
SplineSet
42 462 m 0,0,1
 82 698 82 698 230 839 c 128,-1,2
 378 980 378 980 576 980 c 0,3,4
 652 980 652 980 710 951 c 128,-1,5
 768 922 768 922 788 886 c 1,6,7
 780 1050 780 1050 686 1170 c 1,8,-1
 474 1024 l 1,9,-1
 366 1172 l 1,10,-1
 542 1294 l 1,11,12
 466 1338 466 1338 372 1354 c 1,13,-1
 484 1544 l 1,14,15
 578 1528 578 1528 660 1492 c 0,16,17
 706 1472 706 1472 752 1438 c 1,18,-1
 972 1590 l 1,19,-1
 1072 1438 l 1,20,-1
 886 1308 l 1,21,22
 922 1260 922 1260 948 1202 c 0,23,24
 994 1096 994 1096 1009 929 c 128,-1,25
 1024 762 1024 762 990 554 c 0,26,27
 946 290 946 290 793 128 c 128,-1,28
 640 -34 640 -34 414 -34 c 0,29,30
 208 -34 208 -34 107 106 c 128,-1,31
 6 246 6 246 42 462 c 0,0,1
272 474 m 0,32,33
 250 338 250 338 298 253 c 128,-1,34
 346 168 346 168 456 168 c 0,35,36
 558 168 558 168 633 250 c 128,-1,37
 708 332 708 332 732 474 c 0,38,39
 754 610 754 610 705 693 c 128,-1,40
 656 776 656 776 554 776 c 256,41,42
 452 776 452 776 374 695 c 128,-1,43
 296 614 296 614 272 474 c 0,32,33
EndSplineSet
EndChar

StartChar: divide
Encoding: 247 247 185
Width: 1086
GlyphClass: 2
Flags: W
LayerCount: 2
Fore
SplineSet
470 978 m 1,0,-1
 514 1248 l 1,1,-1
 790 1248 l 1,2,-1
 746 978 l 1,3,-1
 470 978 l 1,0,-1
58 620 m 1,4,-1
 92 828 l 1,5,-1
 1080 828 l 1,6,-1
 1046 620 l 1,7,-1
 58 620 l 1,4,-1
340 198 m 1,8,-1
 386 472 l 1,9,-1
 662 472 l 1,10,-1
 618 198 l 1,11,-1
 340 198 l 1,8,-1
EndSplineSet
EndChar

StartChar: oslash
Encoding: 248 248 186
Width: 1054
GlyphClass: 2
Flags: W
LayerCount: 2
Fore
SplineSet
54 536 m 0,0,1
 94 774 94 774 242 939 c 128,-1,2
 390 1104 390 1104 620 1104 c 0,3,4
 726 1104 726 1104 808 1064 c 1,5,-1
 900 1200 l 1,6,-1
 1068 1200 l 1,7,-1
 918 974 l 1,8,9
 1038 820 1038 820 990 536 c 0,10,11
 978 460 978 460 953 386 c 128,-1,12
 928 312 928 312 882 235 c 128,-1,13
 836 158 836 158 776 99 c 128,-1,14
 716 40 716 40 625 3 c 128,-1,15
 534 -34 534 -34 430 -34 c 256,16,17
 326 -34 326 -34 248 2 c 1,18,-1
 170 -114 l 1,19,-1
 0 -114 l 1,20,-1
 134 88 l 1,21,22
 6 246 6 246 54 536 c 0,0,1
758 746 m 1,23,-1
 376 190 l 1,24,25
 416 168 416 168 464 168 c 0,26,27
 560 168 560 168 647 259 c 128,-1,28
 734 350 734 350 764 536 c 0,29,30
 786 662 786 662 758 746 c 1,23,-1
682 876 m 1,31,32
 638 906 638 906 586 906 c 0,33,34
 490 906 490 906 402 815 c 128,-1,35
 314 724 314 724 282 536 c 0,36,37
 260 404 260 404 292 312 c 1,38,-1
 682 876 l 1,31,32
EndSplineSet
EndChar

StartChar: thorn
Encoding: 254 254 192
Width: 1106
GlyphClass: 2
Flags: W
LayerCount: 2
Fore
SplineSet
350 538 m 0,0,1
 322 368 322 368 370 268 c 128,-1,2
 418 168 418 168 520 168 c 0,3,4
 630 168 630 168 709 264 c 128,-1,5
 788 360 788 360 816 538 c 0,6,7
 844 708 844 708 799 807 c 128,-1,8
 754 906 754 906 642 906 c 0,9,10
 540 906 540 906 459 805 c 128,-1,11
 378 704 378 704 350 538 c 0,0,1
-28 -438 m 1,12,-1
 296 1518 l 1,13,-1
 516 1518 l 1,14,-1
 420 944 l 1,15,16
 458 1012 458 1012 539 1058 c 128,-1,17
 620 1104 620 1104 704 1104 c 0,18,19
 894 1104 894 1104 991 952 c 128,-1,20
 1088 800 1088 800 1044 538 c 0,21,22
 1020 388 1020 388 962 275 c 128,-1,23
 904 162 904 162 829 97 c 128,-1,24
 754 32 754 32 675 -1 c 128,-1,25
 596 -34 596 -34 516 -34 c 0,26,27
 418 -34 418 -34 360 15 c 128,-1,28
 302 64 302 64 284 122 c 1,29,-1
 192 -438 l 1,30,-1
 -28 -438 l 1,12,-1
EndSplineSet
EndChar

StartChar: dcroat
Encoding: 273 273 211
Width: 1100
GlyphClass: 2
Flags: W
LayerCount: 2
Fore
SplineSet
54 528 m 0,0,1
 98 796 98 796 246 941 c 128,-1,2
 394 1086 394 1086 576 1086 c 0,3,4
 666 1086 666 1086 727 1042 c 128,-1,5
 788 998 788 998 812 938 c 1,6,-1
 854 1186 l 1,7,-1
 460 1186 l 1,8,-1
 490 1366 l 1,9,-1
 884 1366 l 1,10,-1
 908 1518 l 1,11,-1
 1128 1518 l 1,12,-1
 1104 1366 l 1,13,-1
 1212 1366 l 1,14,-1
 1182 1186 l 1,15,-1
 1074 1186 l 1,16,-1
 878 0 l 1,17,-1
 660 0 l 1,18,-1
 684 140 l 1,19,20
 634 64 634 64 558 15 c 128,-1,21
 482 -34 482 -34 390 -34 c 0,22,23
 212 -34 212 -34 110 109 c 128,-1,24
 8 252 8 252 54 528 c 0,0,1
280 528 m 0,25,26
 252 354 252 354 303 261 c 128,-1,27
 354 168 354 168 456 168 c 256,28,29
 558 168 558 168 640 266 c 128,-1,30
 722 364 722 364 748 528 c 0,31,32
 774 686 774 686 726 785 c 128,-1,33
 678 884 678 884 574 884 c 0,34,35
 472 884 472 884 389 787 c 128,-1,36
 306 690 306 690 280 528 c 0,25,26
EndSplineSet
EndChar

StartChar: uni0123
Encoding: 291 291 229
Width: 1072
GlyphClass: 2
Flags: W
LayerCount: 2
Fore
SplineSet
500 1248 m 1,0,-1
 734 1626 l 1,1,-1
 886 1626 l 1,2,-1
 744 1248 l 1,3,-1
 500 1248 l 1,0,-1
290 558 m 0,4,5
 262 392 262 392 309 301 c 128,-1,6
 356 210 356 210 452 210 c 0,7,8
 554 210 554 210 628 299 c 128,-1,9
 702 388 702 388 730 558 c 0,10,11
 758 722 758 722 713 814 c 128,-1,12
 668 906 668 906 570 906 c 0,13,14
 470 906 470 906 393 813 c 128,-1,15
 316 720 316 720 290 558 c 0,4,5
64 556 m 0,16,17
 106 806 106 806 248 955 c 128,-1,18
 390 1104 390 1104 572 1104 c 0,19,20
 668 1104 668 1104 724 1056 c 128,-1,21
 780 1008 780 1008 796 948 c 1,22,-1
 818 1072 l 1,23,-1
 1038 1072 l 1,24,-1
 884 148 l 2,25,26
 834 -154 834 -154 698 -300 c 128,-1,27
 562 -446 562 -446 330 -446 c 0,28,29
 210 -446 210 -446 115 -392 c 128,-1,30
 20 -338 20 -338 -30 -238 c 1,31,-1
 134 -130 l 1,32,33
 214 -256 214 -256 368 -256 c 0,34,35
 468 -256 468 -256 541 -179 c 128,-1,36
 614 -102 614 -102 640 24 c 0,37,38
 664 136 664 136 666 148 c 1,39,40
 624 88 624 88 550 49 c 128,-1,41
 476 10 476 10 402 10 c 0,42,43
 212 10 212 10 117 159 c 128,-1,44
 22 308 22 308 64 556 c 0,16,17
EndSplineSet
EndChar

StartChar: Hbar
Encoding: 294 294 232
Width: 1378
GlyphClass: 2
Flags: W
LayerCount: 2
Fore
SplineSet
104 1090 m 1,0,-1
 136 1284 l 1,1,-1
 280 1284 l 1,2,-1
 310 1470 l 1,3,-1
 548 1470 l 1,4,-1
 518 1284 l 1,5,-1
 1102 1284 l 1,6,-1
 1132 1470 l 1,7,-1
 1370 1470 l 1,8,-1
 1338 1284 l 1,9,-1
 1484 1284 l 1,10,-1
 1452 1090 l 1,11,-1
 1306 1090 l 1,12,-1
 1126 0 l 1,13,-1
 888 0 l 1,14,-1
 996 652 l 1,15,-1
 412 652 l 1,16,-1
 304 0 l 1,17,-1
 68 0 l 1,18,-1
 248 1090 l 1,19,-1
 104 1090 l 1,0,-1
1068 1090 m 1,20,-1
 484 1090 l 1,21,-1
 446 858 l 1,22,-1
 1030 858 l 1,23,-1
 1068 1090 l 1,20,-1
EndSplineSet
EndChar

StartChar: hbar
Encoding: 295 295 233
Width: 1060
GlyphClass: 2
Flags: W
LayerCount: 2
Fore
SplineSet
110 1188 m 1,0,-1
 140 1366 l 1,1,-1
 264 1366 l 1,2,-1
 290 1518 l 1,3,-1
 508 1518 l 1,4,-1
 482 1366 l 1,5,-1
 854 1366 l 1,6,-1
 824 1188 l 1,7,-1
 454 1188 l 1,8,-1
 408 914 l 1,9,-1
 410 914 l 1,10,11
 458 972 458 972 536 1015 c 128,-1,12
 614 1058 614 1058 696 1058 c 0,13,14
 756 1058 756 1058 808 1039 c 128,-1,15
 860 1020 860 1020 906 977 c 128,-1,16
 952 934 952 934 970 848 c 128,-1,17
 988 762 988 762 968 642 c 2,18,-1
 862 0 l 1,19,-1
 640 0 l 1,20,-1
 742 614 l 2,21,22
 782 854 782 854 622 854 c 0,23,24
 526 854 526 854 448 767 c 128,-1,25
 370 680 370 680 350 564 c 2,26,-1
 256 0 l 1,27,-1
 38 0 l 1,28,-1
 236 1188 l 1,29,-1
 110 1188 l 1,0,-1
EndSplineSet
EndChar

StartChar: dotlessi
Encoding: 305 305 243
Width: 476
GlyphClass: 2
Flags: W
LayerCount: 2
Fore
SplineSet
36 0 m 1,0,-1
 212 1072 l 1,1,-1
 432 1072 l 1,2,-1
 256 0 l 1,3,-1
 36 0 l 1,0,-1
EndSplineSet
EndChar

StartChar: kgreenlandic
Encoding: 312 312 250
Width: 1010
GlyphClass: 2
Flags: W
LayerCount: 2
Fore
SplineSet
34 0 m 1,0,-1
 210 1072 l 1,1,-1
 428 1072 l 1,2,-1
 364 676 l 1,3,-1
 370 676 l 1,4,-1
 824 1072 l 1,5,-1
 1108 1072 l 1,6,-1
 550 588 l 1,7,-1
 936 0 l 1,8,-1
 670 0 l 1,9,-1
 380 418 l 1,10,-1
 310 354 l 1,11,-1
 252 0 l 1,12,-1
 34 0 l 1,0,-1
EndSplineSet
EndChar

StartChar: Lslash
Encoding: 321 321 259
Width: 1078
GlyphClass: 2
Flags: W
LayerCount: 2
Fore
SplineSet
428 672 m 1,0,-1
 350 208 l 1,1,-1
 1004 208 l 1,2,-1
 968 0 l 1,3,-1
 76 0 l 1,4,-1
 164 522 l 1,5,-1
 -22 414 l 1,6,-1
 -102 592 l 1,7,-1
 204 770 l 1,8,-1
 320 1470 l 1,9,-1
 560 1470 l 1,10,-1
 468 920 l 1,11,-1
 692 1052 l 1,12,-1
 772 874 l 1,13,-1
 428 672 l 1,0,-1
EndSplineSet
EndChar

StartChar: lslash
Encoding: 322 322 260
Width: 510
GlyphClass: 2
Flags: W
LayerCount: 2
Fore
SplineSet
390 704 m 1,0,-1
 274 0 l 1,1,-1
 52 0 l 1,2,-1
 146 564 l 1,3,-1
 -30 462 l 1,4,-1
 -106 644 l 1,5,-1
 186 812 l 1,6,-1
 304 1518 l 1,7,-1
 524 1518 l 1,8,-1
 432 954 l 1,9,-1
 608 1054 l 1,10,-1
 680 874 l 1,11,-1
 390 704 l 1,0,-1
EndSplineSet
EndChar

StartChar: Eng
Encoding: 330 330 268
Width: 1368
GlyphClass: 2
Flags: W
LayerCount: 2
Fore
SplineSet
58 0 m 1,0,-1
 300 1470 l 1,1,-1
 552 1470 l 1,2,-1
 876 612 l 1,3,-1
 964 364 l 1,4,-1
 972 364 l 1,5,6
 976 540 976 540 1016 780 c 2,7,-1
 1130 1470 l 1,8,-1
 1368 1470 l 1,9,-1
 1130 30 l 2,10,11
 1092 -198 1092 -198 973 -315 c 128,-1,12
 854 -432 854 -432 684 -432 c 0,13,14
 628 -432 628 -432 484 -410 c 1,15,-1
 516 -206 l 1,16,17
 612 -224 612 -224 666 -224 c 0,18,19
 758 -224 758 -224 804 -173 c 128,-1,20
 850 -122 850 -122 876 -4 c 1,21,-1
 544 864 l 1,22,-1
 460 1102 l 1,23,-1
 452 1102 l 1,24,25
 442 870 442 870 412 702 c 2,26,-1
 296 0 l 1,27,-1
 58 0 l 1,0,-1
EndSplineSet
EndChar

StartChar: eng
Encoding: 331 331 269
Width: 1046
GlyphClass: 2
Flags: W
LayerCount: 2
Fore
SplineSet
22 0 m 1,0,-1
 200 1072 l 1,1,-1
 412 1072 l 1,2,-1
 390 938 l 1,3,-1
 392 938 l 1,4,5
 440 1006 440 1006 521 1055 c 128,-1,6
 602 1104 602 1104 702 1104 c 0,7,8
 1034 1104 1034 1104 964 690 c 2,9,-1
 852 16 l 2,10,11
 832 -110 832 -110 784 -205 c 128,-1,12
 736 -300 736 -300 676 -350 c 128,-1,13
 616 -400 616 -400 553 -423 c 128,-1,14
 490 -446 490 -446 426 -446 c 0,15,16
 392 -446 392 -446 360 -442 c 128,-1,17
 328 -438 328 -438 294 -432 c 128,-1,18
 260 -426 260 -426 252 -424 c 1,19,-1
 286 -222 l 1,20,21
 378 -238 378 -238 424 -238 c 0,22,23
 512 -238 512 -238 560 -183 c 128,-1,24
 608 -128 608 -128 628 -14 c 2,25,-1
 738 658 l 2,26,27
 780 906 780 906 620 906 c 0,28,29
 524 906 524 906 445 823 c 128,-1,30
 366 740 366 740 346 620 c 2,31,-1
 244 0 l 1,32,-1
 22 0 l 1,0,-1
EndSplineSet
EndChar

StartChar: OE
Encoding: 338 338 276
Width: 1898
GlyphClass: 2
Flags: W
LayerCount: 2
Fore
SplineSet
98 734 m 256,0,1
 156 1082 156 1082 365 1293 c 128,-1,2
 574 1504 574 1504 856 1504 c 0,3,4
 980 1504 980 1504 1052 1470 c 1,5,-1
 1974 1470 l 1,6,-1
 1940 1260 l 1,7,-1
 1246 1260 l 1,8,-1
 1180 862 l 1,9,-1
 1806 862 l 1,10,-1
 1772 656 l 1,11,-1
 1146 656 l 1,12,-1
 1072 208 l 1,13,-1
 1786 208 l 1,14,-1
 1750 0 l 1,15,-1
 812 0 l 1,16,17
 710 -34 710 -34 600 -34 c 0,18,19
 316 -34 316 -34 178 176 c 128,-1,20
 40 386 40 386 98 734 c 256,0,1
346 734 m 0,21,22
 304 478 304 478 382 326 c 128,-1,23
 460 174 460 174 634 174 c 0,24,25
 742 174 742 174 836 242 c 1,26,-1
 998 1224 l 1,27,28
 932 1294 932 1294 820 1294 c 0,29,30
 642 1294 642 1294 515 1141 c 128,-1,31
 388 988 388 988 346 734 c 0,21,22
EndSplineSet
EndChar

StartChar: uni0163
Encoding: 355 355 293
Width: 692
GlyphClass: 2
Flags: W
LayerCount: 2
Fore
SplineSet
82 872 m 1,0,-1
 114 1072 l 1,1,-1
 270 1072 l 1,2,-1
 322 1390 l 1,3,-1
 544 1390 l 1,4,-1
 492 1072 l 1,5,-1
 722 1072 l 1,6,-1
 690 872 l 1,7,-1
 458 872 l 1,8,-1
 372 344 l 2,9,10
 360 268 360 268 382 234 c 128,-1,11
 404 200 404 200 464 200 c 2,12,-1
 580 200 l 1,13,-1
 546 0 l 1,14,-1
 436 0 l 1,15,-1
 410 -62 l 1,16,17
 482 -76 482 -76 515 -121 c 128,-1,18
 548 -166 548 -166 536 -232 c 0,19,20
 522 -314 522 -314 446 -374 c 128,-1,21
 370 -434 370 -434 222 -434 c 0,22,23
 136 -434 136 -434 62 -414 c 1,24,-1
 86 -270 l 1,25,26
 168 -288 168 -288 242 -288 c 0,27,28
 356 -288 356 -288 366 -218 c 0,29,30
 378 -150 378 -150 182 -142 c 1,31,-1
 250 30 l 1,32,33
 108 98 108 98 148 328 c 2,34,-1
 238 872 l 1,35,-1
 82 872 l 1,0,-1
EndSplineSet
Substitution2: "'locl' Localized Forms in Latin lookup 3 subtable" uni021B
Substitution2: "'locl' Localized Forms in Latin lookup 2 subtable" uni021B
Substitution2: "'aalt' Access All Alternates lookup 0 subtable" uni021B
EndChar

StartChar: tbar
Encoding: 359 359 297
Width: 694
GlyphClass: 2
Flags: W
LayerCount: 2
Fore
SplineSet
82 872 m 1,0,-1
 116 1072 l 1,1,-1
 272 1072 l 1,2,-1
 324 1390 l 1,3,-1
 546 1390 l 1,4,-1
 494 1072 l 1,5,-1
 724 1072 l 1,6,-1
 692 872 l 1,7,-1
 460 872 l 1,8,-1
 436 722 l 1,9,-1
 666 722 l 1,10,-1
 634 528 l 1,11,-1
 402 528 l 1,12,-1
 372 344 l 2,13,14
 360 268 360 268 383 234 c 128,-1,15
 406 200 406 200 466 200 c 2,16,-1
 582 200 l 1,17,-1
 550 0 l 1,18,-1
 406 0 l 2,19,20
 94 0 94 0 148 328 c 2,21,-1
 182 528 l 1,22,-1
 2 528 l 1,23,-1
 34 722 l 1,24,-1
 214 722 l 1,25,-1
 238 872 l 1,26,-1
 82 872 l 1,0,-1
EndSplineSet
EndChar

StartChar: longs
Encoding: 383 383 321
Width: 584
GlyphClass: 2
Flags: W
LayerCount: 2
Fore
SplineSet
40 0 m 1,0,-1
 238 1188 l 2,1,2
 266 1352 266 1352 356 1435 c 128,-1,3
 446 1518 446 1518 588 1518 c 2,4,-1
 744 1518 l 1,5,-1
 710 1318 l 1,6,-1
 600 1318 l 2,7,8
 540 1318 540 1318 503 1282 c 128,-1,9
 466 1246 466 1246 454 1164 c 2,10,-1
 260 0 l 1,11,-1
 40 0 l 1,0,-1
EndSplineSet
EndChar

StartChar: uni0180
Encoding: 384 384 322
Width: 1100
GlyphClass: 2
Flags: W
LayerCount: 2
Fore
SplineSet
342 530 m 0,0,1
 314 364 314 364 364 266 c 128,-1,2
 414 168 414 168 516 168 c 256,3,4
 618 168 618 168 699 262 c 128,-1,5
 780 356 780 356 808 530 c 0,6,7
 836 694 836 694 788 792 c 128,-1,8
 740 890 740 890 636 890 c 0,9,10
 534 890 534 890 451 791 c 128,-1,11
 368 692 368 692 342 530 c 0,0,1
112 1186 m 1,12,-1
 142 1368 l 1,13,-1
 266 1368 l 1,14,-1
 290 1518 l 1,15,-1
 510 1518 l 1,16,-1
 486 1368 l 1,17,-1
 848 1368 l 1,18,-1
 818 1186 l 1,19,-1
 454 1186 l 1,20,-1
 414 934 l 1,21,22
 462 996 462 996 538 1043 c 128,-1,23
 614 1090 614 1090 700 1090 c 0,24,25
 890 1090 890 1090 984 940 c 128,-1,26
 1078 790 1078 790 1036 530 c 0,27,28
 1012 382 1012 382 953 270 c 128,-1,29
 894 158 894 158 819 94 c 128,-1,30
 744 30 744 30 667 -2 c 128,-1,31
 590 -34 590 -34 516 -34 c 0,32,33
 424 -34 424 -34 360 17 c 128,-1,34
 296 68 296 68 276 138 c 1,35,-1
 252 0 l 1,36,-1
 38 0 l 1,37,-1
 234 1186 l 1,38,-1
 112 1186 l 1,12,-1
EndSplineSet
EndChar

StartChar: uni0182
Encoding: 386 386 324
Width: 1270
GlyphClass: 2
Flags: W
LayerCount: 2
Fore
SplineSet
330 208 m 1,0,-1
 662 208 l 2,1,2
 762 208 762 208 838 263 c 128,-1,3
 914 318 914 318 932 428 c 0,4,5
 948 522 948 522 896 589 c 128,-1,6
 844 656 844 656 732 656 c 2,7,-1
 404 656 l 1,8,-1
 330 208 l 1,0,-1
58 0 m 1,9,-1
 300 1470 l 1,10,-1
 1186 1470 l 1,11,-1
 1152 1260 l 1,12,-1
 504 1260 l 1,13,-1
 438 862 l 1,14,-1
 784 862 l 2,15,16
 1008 862 1008 862 1111 739 c 128,-1,17
 1214 616 1214 616 1182 428 c 0,18,19
 1152 246 1152 246 1010 123 c 128,-1,20
 868 0 868 0 660 0 c 2,21,-1
 58 0 l 1,9,-1
EndSplineSet
EndChar

StartChar: uni0183
Encoding: 387 387 325
Width: 1096
GlyphClass: 2
Flags: W
LayerCount: 2
Fore
SplineSet
338 538 m 0,0,1
 310 364 310 364 358 266 c 128,-1,2
 406 168 406 168 512 168 c 0,3,4
 614 168 614 168 694 264 c 128,-1,5
 774 360 774 360 804 538 c 0,6,7
 832 708 832 708 786 807 c 128,-1,8
 740 906 740 906 634 906 c 0,9,10
 530 906 530 906 448 804 c 128,-1,11
 366 702 366 702 338 538 c 0,0,1
34 0 m 1,12,-1
 282 1504 l 1,13,-1
 1012 1504 l 1,14,-1
 980 1304 l 1,15,-1
 470 1304 l 1,16,-1
 410 952 l 1,17,18
 442 1002 442 1002 520 1053 c 128,-1,19
 598 1104 598 1104 698 1104 c 0,20,21
 888 1104 888 1104 981 952 c 128,-1,22
 1074 800 1074 800 1032 538 c 0,23,24
 1008 390 1008 390 950 275 c 128,-1,25
 892 160 892 160 818 96 c 128,-1,26
 744 32 744 32 665 -1 c 128,-1,27
 586 -34 586 -34 510 -34 c 0,28,29
 418 -34 418 -34 354 18 c 128,-1,30
 290 70 290 70 270 138 c 1,31,-1
 248 0 l 1,32,-1
 34 0 l 1,12,-1
EndSplineSet
EndChar

StartChar: uni0184
Encoding: 388 388 326
Width: 1290
GlyphClass: 2
Flags: W
LayerCount: 2
Fore
SplineSet
116 1326 m 1,0,-1
 418 1470 l 1,1,-1
 552 1470 l 1,2,-1
 450 858 l 1,3,-1
 802 858 l 2,4,5
 1026 858 1026 858 1128 736 c 128,-1,6
 1230 614 1230 614 1198 428 c 0,7,8
 1168 250 1168 250 1029 125 c 128,-1,9
 890 0 890 0 684 0 c 2,10,-1
 70 0 l 1,11,-1
 266 1188 l 1,12,-1
 116 1326 l 1,0,-1
342 208 m 1,13,-1
 678 208 l 2,14,15
 778 208 778 208 856 264 c 128,-1,16
 934 320 934 320 952 428 c 0,17,18
 968 520 968 520 917 586 c 128,-1,19
 866 652 866 652 750 652 c 2,20,-1
 416 652 l 1,21,-1
 342 208 l 1,13,-1
EndSplineSet
EndChar

StartChar: uni0185
Encoding: 389 389 327
Width: 1102
GlyphClass: 2
Flags: W
LayerCount: 2
Fore
SplineSet
112 1370 m 1,0,-1
 390 1518 l 1,1,-1
 512 1518 l 1,2,-1
 418 954 l 1,3,4
 456 1016 456 1016 538 1060 c 128,-1,5
 620 1104 620 1104 704 1104 c 0,6,7
 896 1104 896 1104 989 952 c 128,-1,8
 1082 800 1082 800 1038 538 c 0,9,10
 992 256 992 256 839 111 c 128,-1,11
 686 -34 686 -34 518 -34 c 0,12,13
 428 -34 428 -34 365 16 c 128,-1,14
 302 66 302 66 278 138 c 1,15,-1
 254 0 l 1,16,-1
 40 0 l 1,17,-1
 244 1234 l 1,18,-1
 112 1370 l 1,0,-1
346 538 m 0,19,20
 318 364 318 364 366 266 c 128,-1,21
 414 168 414 168 518 168 c 0,22,23
 624 168 624 168 703 265 c 128,-1,24
 782 362 782 362 810 538 c 0,25,26
 838 704 838 704 794 805 c 128,-1,27
 750 906 750 906 640 906 c 0,28,29
 536 906 536 906 455 806 c 128,-1,30
 374 706 374 706 346 538 c 0,19,20
EndSplineSet
EndChar

StartChar: uni0186
Encoding: 390 390 328
Width: 1290
GlyphClass: 2
Flags: W
LayerCount: 2
Fore
SplineSet
0 352 m 1,0,-1
 228 420 l 1,1,2
 252 320 252 320 328 248 c 128,-1,3
 404 176 404 176 518 176 c 0,4,5
 694 176 694 176 826 328 c 128,-1,6
 958 480 958 480 1002 736 c 0,7,8
 1044 990 1044 990 963 1142 c 128,-1,9
 882 1294 882 1294 704 1294 c 0,10,11
 516 1294 516 1294 364 1080 c 1,12,-1
 170 1148 l 1,13,14
 260 1300 260 1300 406 1402 c 128,-1,15
 552 1504 552 1504 736 1504 c 0,16,17
 1018 1504 1018 1504 1162 1297 c 128,-1,18
 1306 1090 1306 1090 1248 736 c 0,19,20
 1188 378 1188 378 974 172 c 128,-1,21
 760 -34 760 -34 482 -34 c 0,22,23
 372 -34 372 -34 282 3 c 128,-1,24
 192 40 192 40 137 100 c 128,-1,25
 82 160 82 160 49 222 c 128,-1,26
 16 284 16 284 0 352 c 1,0,-1
EndSplineSet
EndChar

StartChar: uni018B
Encoding: 395 395 333
Width: 1270
GlyphClass: 2
Flags: W
LayerCount: 2
Fore
SplineSet
294 428 m 0,0,1
 276 320 276 320 334 264 c 128,-1,2
 392 208 392 208 490 208 c 2,3,-1
 824 208 l 1,4,-1
 898 656 l 1,5,-1
 572 656 l 2,6,7
 460 656 460 656 385 589 c 128,-1,8
 310 522 310 522 294 428 c 0,0,1
44 428 m 0,9,10
 76 616 76 616 220 739 c 128,-1,11
 364 862 364 862 586 862 c 2,12,-1
 932 862 l 1,13,-1
 998 1260 l 1,14,-1
 350 1260 l 1,15,-1
 386 1470 l 1,16,-1
 1272 1470 l 1,17,-1
 1028 0 l 1,18,-1
 422 0 l 2,19,20
 216 0 216 0 115 123 c 128,-1,21
 14 246 14 246 44 428 c 0,9,10
EndSplineSet
EndChar

StartChar: uni018C
Encoding: 396 396 334
Width: 1096
GlyphClass: 2
Flags: W
LayerCount: 2
Fore
SplineSet
282 538 m 0,0,1
 252 358 252 358 302 263 c 128,-1,2
 352 168 352 168 456 168 c 256,3,4
 560 168 560 168 640 268 c 128,-1,5
 720 368 720 368 748 538 c 0,6,7
 776 702 776 702 730 804 c 128,-1,8
 684 906 684 906 578 906 c 0,9,10
 470 906 470 906 390 808 c 128,-1,11
 310 710 310 710 282 538 c 0,0,1
56 538 m 0,12,13
 100 800 100 800 247 952 c 128,-1,14
 394 1104 394 1104 580 1104 c 0,15,16
 680 1104 680 1104 740 1054 c 128,-1,17
 800 1004 800 1004 816 954 c 1,18,-1
 876 1320 l 1,19,-1
 358 1320 l 1,20,-1
 390 1518 l 1,21,-1
 1128 1518 l 1,22,-1
 878 0 l 1,23,-1
 660 0 l 1,24,-1
 684 138 l 1,25,26
 640 70 640 70 561 18 c 128,-1,27
 482 -34 482 -34 388 -34 c 0,28,29
 308 -34 308 -34 242 -1 c 128,-1,30
 176 32 176 32 122 97 c 128,-1,31
 68 162 68 162 50 275 c 128,-1,32
 32 388 32 388 56 538 c 0,12,13
EndSplineSet
EndChar

StartChar: uni018D
Encoding: 397 397 335
Width: 1144
GlyphClass: 2
Flags: W
LayerCount: 2
Fore
SplineSet
300 642 m 0,0,1
 282 530 282 530 352 438 c 128,-1,2
 422 346 422 346 542 288 c 1,3,4
 672 348 672 348 762 440 c 128,-1,5
 852 532 852 532 870 638 c 0,6,7
 888 752 888 752 829 829 c 128,-1,8
 770 906 770 906 638 906 c 0,9,10
 504 906 504 906 411 831 c 128,-1,11
 318 756 318 756 300 642 c 0,0,1
72 634 m 0,12,13
 110 858 110 858 270 981 c 128,-1,14
 430 1104 430 1104 672 1104 c 0,15,16
 910 1104 910 1104 1021 977 c 128,-1,17
 1132 850 1132 850 1098 646 c 0,18,19
 1076 516 1076 516 976 391 c 128,-1,20
 876 266 876 266 714 186 c 1,21,22
 870 72 870 72 842 -94 c 0,23,24
 816 -256 816 -256 684 -345 c 128,-1,25
 552 -434 552 -434 364 -434 c 0,26,27
 206 -434 206 -434 105 -364 c 128,-1,28
 4 -294 4 -294 -38 -180 c 1,29,-1
 140 -86 l 1,30,31
 170 -146 170 -146 237 -190 c 128,-1,32
 304 -234 304 -234 396 -234 c 0,33,34
 486 -234 486 -234 547 -197 c 128,-1,35
 608 -160 608 -160 618 -100 c 0,36,37
 622 -72 622 -72 607 -44 c 128,-1,38
 592 -16 592 -16 548 16 c 128,-1,39
 504 48 504 48 475 67 c 128,-1,40
 446 86 446 86 376 126 c 0,41,42
 22 330 22 330 72 634 c 0,12,13
EndSplineSet
EndChar

StartChar: uni018E
Encoding: 398 398 336
Width: 1164
GlyphClass: 2
Flags: W
LayerCount: 2
Fore
SplineSet
-30 0 m 1,0,-1
 4 208 l 1,1,-1
 720 208 l 1,2,-1
 794 656 l 1,3,-1
 156 656 l 1,4,-1
 190 862 l 1,5,-1
 828 862 l 1,6,-1
 894 1260 l 1,7,-1
 176 1260 l 1,8,-1
 212 1470 l 1,9,-1
 1168 1470 l 1,10,-1
 924 0 l 1,11,-1
 -30 0 l 1,0,-1
EndSplineSet
EndChar

StartChar: uni018F
Encoding: 399 399 337
Width: 1372
GlyphClass: 2
Flags: W
LayerCount: 2
Fore
SplineSet
92 718 m 0,0,1
 104 788 104 788 118 844 c 1,2,-1
 1096 844 l 1,3,4
 1114 1060 1114 1060 1032 1177 c 128,-1,5
 950 1294 950 1294 792 1294 c 0,6,7
 570 1294 570 1294 398 1086 c 1,8,-1
 208 1168 l 1,9,10
 316 1332 316 1332 477 1418 c 128,-1,11
 638 1504 638 1504 830 1504 c 0,12,13
 1128 1504 1128 1504 1259 1288 c 128,-1,14
 1390 1072 1390 1072 1334 732 c 0,15,16
 1278 390 1278 390 1066 178 c 128,-1,17
 854 -34 854 -34 578 -34 c 0,18,19
 298 -34 298 -34 167 173 c 128,-1,20
 36 380 36 380 92 718 c 0,0,1
332 634 m 1,21,22
 328 610 328 610 328 598 c 0,23,24
 314 422 314 422 382 298 c 128,-1,25
 450 174 450 174 614 174 c 0,26,27
 764 174 764 174 891 297 c 128,-1,28
 1018 420 1018 420 1062 634 c 1,29,-1
 332 634 l 1,21,22
EndSplineSet
EndChar

StartChar: uni0190
Encoding: 400 400 338
Width: 1184
GlyphClass: 2
Flags: W
LayerCount: 2
Fore
SplineSet
50 416 m 0,0,1
 74 558 74 558 169 649 c 128,-1,2
 264 740 264 740 374 774 c 1,3,4
 296 820 296 820 249 911 c 128,-1,5
 202 1002 202 1002 220 1114 c 0,6,7
 248 1288 248 1288 397 1396 c 128,-1,8
 546 1504 546 1504 752 1504 c 0,9,10
 866 1504 866 1504 953 1468 c 128,-1,11
 1040 1432 1040 1432 1088 1375 c 128,-1,12
 1136 1318 1136 1318 1161 1263 c 128,-1,13
 1186 1208 1186 1208 1194 1154 c 1,14,-1
 982 1090 l 1,15,16
 918 1302 918 1302 734 1302 c 0,17,18
 630 1302 630 1302 553 1242 c 128,-1,19
 476 1182 476 1182 460 1090 c 0,20,21
 442 984 442 984 518 920 c 128,-1,22
 594 856 594 856 698 856 c 256,23,24
 802 856 802 856 852 860 c 1,25,-1
 820 660 l 1,26,27
 720 668 720 668 666 668 c 0,28,29
 530 668 530 668 423 600 c 128,-1,30
 316 532 316 532 296 418 c 0,31,32
 276 296 276 296 353 232 c 128,-1,33
 430 168 430 168 554 168 c 0,34,35
 648 168 648 168 750 227 c 128,-1,36
 852 286 852 286 906 368 c 1,37,-1
 1088 296 l 1,38,39
 1002 142 1002 142 849 54 c 128,-1,40
 696 -34 696 -34 508 -34 c 0,41,42
 266 -34 266 -34 141 88 c 128,-1,43
 16 210 16 210 50 416 c 0,0,1
EndSplineSet
EndChar

StartChar: uni0191
Encoding: 401 401 339
Width: 1118
GlyphClass: 2
Flags: W
LayerCount: 2
Fore
SplineSet
-210 -226 m 1,0,1
 -150 -238 -150 -238 -112 -238 c 0,2,3
 -38 -238 -38 -238 8 -184 c 128,-1,4
 54 -130 54 -130 72 -14 c 2,5,-1
 318 1470 l 1,6,-1
 1236 1470 l 1,7,-1
 1200 1260 l 1,8,-1
 520 1260 l 1,9,-1
 450 840 l 1,10,-1
 1060 840 l 1,11,-1
 1026 634 l 1,12,-1
 416 634 l 1,13,-1
 310 -14 l 2,14,15
 290 -138 290 -138 246 -226 c 128,-1,16
 202 -314 202 -314 142 -360 c 128,-1,17
 82 -406 82 -406 23 -426 c 128,-1,18
 -36 -446 -36 -446 -98 -446 c 0,19,20
 -148 -446 -148 -446 -244 -432 c 1,21,-1
 -210 -226 l 1,0,1
EndSplineSet
EndChar

StartChar: florin
Encoding: 402 402 340
Width: 658
GlyphClass: 2
Flags: W
LayerCount: 2
Fore
SplineSet
-174 -226 m 1,0,1
 -118 -238 -118 -238 -76 -238 c 0,2,3
 66 -238 66 -238 104 -12 c 2,4,-1
 250 872 l 1,5,-1
 94 872 l 1,6,-1
 128 1072 l 1,7,-1
 282 1072 l 1,8,-1
 302 1188 l 2,9,10
 330 1352 330 1352 421 1435 c 128,-1,11
 512 1518 512 1518 654 1518 c 2,12,-1
 816 1518 l 1,13,-1
 784 1320 l 1,14,-1
 654 1320 l 2,15,16
 546 1320 546 1320 520 1170 c 2,17,-1
 504 1072 l 1,18,-1
 720 1072 l 1,19,-1
 686 872 l 1,20,-1
 472 872 l 1,21,-1
 326 -12 l 2,22,23
 288 -246 288 -246 178 -346 c 128,-1,24
 68 -446 68 -446 -66 -446 c 0,25,26
 -118 -446 -118 -446 -208 -432 c 1,27,-1
 -174 -226 l 1,0,1
EndSplineSet
EndChar

StartChar: uni0194
Encoding: 404 404 342
Width: 1246
GlyphClass: 2
Flags: W
LayerCount: 2
Fore
SplineSet
152 1470 m 1,0,-1
 408 1470 l 1,1,-1
 592 374 l 1,2,-1
 594 374 l 1,3,-1
 1138 1470 l 1,4,-1
 1396 1470 l 1,5,-1
 754 258 l 1,6,7
 890 44 890 44 862 -118 c 0,8,9
 838 -260 838 -260 723 -353 c 128,-1,10
 608 -446 608 -446 456 -446 c 0,11,12
 300 -446 300 -446 213 -357 c 128,-1,13
 126 -268 126 -268 150 -118 c 0,14,15
 158 -66 158 -66 183 -13 c 128,-1,16
 208 40 208 40 255 100 c 128,-1,17
 302 160 302 160 321 181 c 128,-1,18
 340 202 340 202 392 258 c 1,19,-1
 152 1470 l 1,0,-1
392 -108 m 0,20,21
 382 -170 382 -170 408 -210 c 128,-1,22
 434 -250 434 -250 488 -250 c 256,23,24
 540 -250 540 -250 578 -210 c 128,-1,25
 616 -170 616 -170 628 -106 c 0,26,27
 646 2 646 2 550 136 c 1,28,29
 412 14 412 14 392 -108 c 0,20,21
EndSplineSet
EndChar

StartChar: uni0195
Encoding: 405 405 343
Width: 1658
GlyphClass: 2
Flags: W
LayerCount: 2
Fore
SplineSet
34 0 m 1,0,-1
 284 1518 l 1,1,-1
 504 1518 l 1,2,-1
 412 962 l 1,3,-1
 414 962 l 1,4,5
 466 1026 466 1026 542 1065 c 128,-1,6
 618 1104 618 1104 702 1104 c 0,7,8
 766 1104 766 1104 817 1085 c 128,-1,9
 868 1066 868 1066 915 1024 c 128,-1,10
 962 982 962 982 977 896 c 128,-1,11
 992 810 992 810 972 690 c 2,12,-1
 922 390 l 2,13,14
 886 168 886 168 1080 168 c 0,15,16
 1262 168 1262 168 1300 392 c 2,17,-1
 1412 1072 l 1,18,-1
 1636 1072 l 1,19,-1
 1518 354 l 2,20,21
 1486 158 1486 158 1354 62 c 128,-1,22
 1222 -34 1222 -34 1048 -34 c 0,23,24
 964 -34 964 -34 898 -16 c 128,-1,25
 832 2 832 2 777 43 c 128,-1,26
 722 84 722 84 699 162 c 128,-1,27
 676 240 676 240 694 348 c 2,28,-1
 746 660 l 2,29,30
 786 906 786 906 630 906 c 0,31,32
 534 906 534 906 454 818 c 128,-1,33
 374 730 374 730 356 614 c 2,34,-1
 254 0 l 1,35,-1
 34 0 l 1,0,-1
EndSplineSet
EndChar

StartChar: uni0196
Encoding: 406 406 344
Width: 688
GlyphClass: 2
Flags: W
LayerCount: 2
Fore
SplineSet
114 328 m 2,0,-1
 302 1470 l 1,1,-1
 540 1470 l 1,2,-1
 352 338 l 2,3,4
 338 252 338 252 361 213 c 128,-1,5
 384 174 384 174 450 174 c 0,6,7
 530 174 530 174 602 188 c 1,8,-1
 568 -16 l 1,9,10
 450 -34 450 -34 368 -34 c 0,11,12
 230 -34 230 -34 156 52 c 128,-1,13
 82 138 82 138 114 328 c 2,0,-1
EndSplineSet
EndChar

StartChar: uni0197
Encoding: 407 407 345
Width: 558
GlyphClass: 2
Flags: W
LayerCount: 2
Fore
SplineSet
38 644 m 1,0,-1
 70 834 l 1,1,-1
 204 834 l 1,2,-1
 310 1470 l 1,3,-1
 550 1470 l 1,4,-1
 444 834 l 1,5,-1
 582 834 l 1,6,-1
 550 644 l 1,7,-1
 412 644 l 1,8,-1
 306 0 l 1,9,-1
 66 0 l 1,10,-1
 174 644 l 1,11,-1
 38 644 l 1,0,-1
EndSplineSet
EndChar

StartChar: uni0198
Encoding: 408 408 346
Width: 1268
GlyphClass: 2
Flags: W
LayerCount: 2
Fore
SplineSet
58 0 m 1,0,-1
 300 1470 l 1,1,-1
 540 1470 l 1,2,-1
 430 804 l 1,3,-1
 434 804 l 1,4,-1
 998 1362 l 2,5,6
 1142 1504 1142 1504 1332 1504 c 0,7,8
 1438 1504 1438 1504 1506 1482 c 1,9,-1
 1472 1272 l 1,10,11
 1406 1294 1406 1294 1304 1294 c 0,12,13
 1226 1294 1226 1294 1176 1246 c 2,14,-1
 742 828 l 1,15,-1
 1178 0 l 1,16,-1
 888 0 l 1,17,-1
 564 654 l 1,18,-1
 374 470 l 1,19,-1
 296 0 l 1,20,-1
 58 0 l 1,0,-1
EndSplineSet
EndChar

StartChar: uni0199
Encoding: 409 409 347
Width: 994
GlyphClass: 2
Flags: W
LayerCount: 2
Fore
SplineSet
36 0 m 1,0,-1
 240 1234 l 2,1,2
 268 1400 268 1400 376 1486 c 128,-1,3
 484 1572 484 1572 636 1572 c 0,4,5
 674 1572 674 1572 808 1562 c 1,6,-1
 774 1356 l 1,7,8
 682 1366 682 1366 642 1366 c 0,9,10
 574 1366 574 1366 520 1319 c 128,-1,11
 466 1272 466 1272 452 1190 c 2,12,-1
 362 644 l 1,13,-1
 794 1072 l 1,14,-1
 1074 1072 l 1,15,-1
 624 636 l 1,16,-1
 920 0 l 1,17,-1
 658 0 l 1,18,-1
 454 470 l 1,19,-1
 310 328 l 1,20,-1
 256 0 l 1,21,-1
 36 0 l 1,0,-1
EndSplineSet
EndChar

StartChar: uni019A
Encoding: 410 410 348
Width: 502
GlyphClass: 2
Flags: W
LayerCount: 2
Fore
SplineSet
20 744 m 1,0,-1
 52 936 l 1,1,-1
 202 936 l 1,2,-1
 298 1518 l 1,3,-1
 520 1518 l 1,4,-1
 424 936 l 1,5,-1
 574 936 l 1,6,-1
 542 744 l 1,7,-1
 392 744 l 1,8,-1
 268 0 l 1,9,-1
 46 0 l 1,10,-1
 170 744 l 1,11,-1
 20 744 l 1,0,-1
EndSplineSet
EndChar

StartChar: uni019B
Encoding: 411 411 349
Width: 982
GlyphClass: 2
Flags: W
LayerCount: 2
Fore
SplineSet
-84 0 m 1,0,-1
 470 1046 l 1,1,-1
 462 1094 l 1,2,-1
 228 930 l 1,3,-1
 146 1076 l 1,4,-1
 402 1250 l 1,5,6
 370 1312 370 1312 272 1312 c 2,7,-1
 234 1312 l 1,8,-1
 268 1510 l 1,9,-1
 342 1510 l 2,10,11
 518 1510 518 1510 596 1380 c 1,12,-1
 806 1522 l 1,13,-1
 888 1378 l 1,14,-1
 658 1224 l 1,15,-1
 664 1202 l 1,16,-1
 882 0 l 1,17,-1
 638 0 l 1,18,-1
 568 548 l 2,19,20
 546 736 546 736 544 798 c 1,21,-1
 538 798 l 1,22,23
 504 712 504 712 430 548 c 2,24,-1
 164 0 l 1,25,-1
 -84 0 l 1,0,-1
EndSplineSet
EndChar

StartChar: uni019C
Encoding: 412 412 350
Width: 1858
GlyphClass: 2
Flags: W
LayerCount: 2
Fore
SplineSet
138 498 m 2,0,-1
 298 1470 l 1,1,-1
 536 1470 l 1,2,-1
 370 470 l 2,3,4
 320 174 320 174 496 174 c 0,5,6
 604 174 604 174 692 281 c 128,-1,7
 780 388 780 388 804 536 c 2,8,-1
 960 1470 l 1,9,-1
 1200 1470 l 1,10,-1
 1034 462 l 2,11,12
 1008 308 1008 308 1047 241 c 128,-1,13
 1086 174 1086 174 1160 174 c 0,14,15
 1274 174 1274 174 1356 274 c 128,-1,16
 1438 374 1438 374 1464 532 c 2,17,-1
 1620 1470 l 1,18,-1
 1858 1470 l 1,19,-1
 1616 0 l 1,20,-1
 1388 0 l 1,21,-1
 1412 142 l 1,22,-1
 1408 142 l 1,23,24
 1352 62 1352 62 1258 13 c 128,-1,25
 1164 -36 1164 -36 1072 -36 c 0,26,27
 840 -36 840 -36 804 174 c 1,28,29
 746 86 746 86 645 26 c 128,-1,30
 544 -34 544 -34 408 -34 c 0,31,32
 304 -34 304 -34 238 6 c 128,-1,33
 172 46 172 46 146 122 c 128,-1,34
 120 198 120 198 119 289 c 128,-1,35
 118 380 118 380 138 498 c 2,0,-1
EndSplineSet
EndChar

StartChar: uni019D
Encoding: 413 413 351
Width: 1384
GlyphClass: 2
Flags: W
LayerCount: 2
Fore
SplineSet
318 1470 m 1,0,-1
 568 1470 l 1,1,-1
 894 612 l 1,2,-1
 980 364 l 1,3,-1
 988 364 l 1,4,5
 1010 650 1010 650 1032 788 c 2,6,-1
 1144 1470 l 1,7,-1
 1386 1470 l 1,8,-1
 1142 0 l 1,9,-1
 892 0 l 1,10,-1
 566 848 l 1,11,-1
 478 1102 l 1,12,-1
 468 1102 l 1,13,14
 456 862 456 862 426 678 c 2,15,-1
 314 -2 l 2,16,17
 274 -238 274 -238 157 -342 c 128,-1,18
 40 -446 40 -446 -102 -446 c 0,19,20
 -174 -446 -174 -446 -240 -432 c 1,21,-1
 -206 -226 l 1,22,23
 -172 -236 -172 -236 -114 -236 c 0,24,25
 -36 -236 -36 -236 9 -179 c 128,-1,26
 54 -122 54 -122 74 0 c 2,27,-1
 318 1470 l 1,0,-1
EndSplineSet
EndChar

StartChar: uni019E
Encoding: 414 414 352
Width: 1068
GlyphClass: 2
Flags: W
LayerCount: 2
Fore
SplineSet
22 0 m 1,0,-1
 200 1072 l 1,1,-1
 412 1072 l 1,2,-1
 390 940 l 1,3,-1
 394 940 l 1,4,5
 506 1104 506 1104 702 1104 c 0,6,7
 1034 1104 1034 1104 964 690 c 2,8,-1
 778 -438 l 1,9,-1
 558 -438 l 1,10,-1
 740 660 l 2,11,12
 780 906 780 906 620 906 c 0,13,14
 524 906 524 906 445 823 c 128,-1,15
 366 740 366 740 346 620 c 2,16,-1
 244 0 l 1,17,-1
 22 0 l 1,0,-1
EndSplineSet
EndChar

StartChar: uni019F
Encoding: 415 415 353
Width: 1378
GlyphClass: 2
Flags: W
LayerCount: 2
Fore
SplineSet
98 734 m 0,0,1
 156 1080 156 1080 361 1292 c 128,-1,2
 566 1504 566 1504 846 1504 c 256,3,4
 1126 1504 1126 1504 1260 1293 c 128,-1,5
 1394 1082 1394 1082 1338 734 c 256,6,7
 1280 386 1280 386 1075 176 c 128,-1,8
 870 -34 870 -34 590 -34 c 256,9,10
 310 -34 310 -34 175 175 c 128,-1,11
 40 384 40 384 98 734 c 0,0,1
1066 630 m 1,12,-1
 334 630 l 1,13,14
 318 416 318 416 394 296 c 128,-1,15
 470 176 470 176 626 176 c 0,16,17
 778 176 778 176 896 297 c 128,-1,18
 1014 418 1014 418 1066 630 c 1,12,-1
364 822 m 1,19,-1
 1098 822 l 1,20,21
 1114 1040 1114 1040 1042 1167 c 128,-1,22
 970 1294 970 1294 810 1294 c 256,23,24
 652 1294 652 1294 535 1168 c 128,-1,25
 418 1042 418 1042 364 822 c 1,19,-1
EndSplineSet
EndChar

StartChar: uni01A2
Encoding: 418 418 356
Width: 1872
GlyphClass: 2
Flags: W
LayerCount: 2
Fore
SplineSet
98 730 m 0,0,1
 156 1082 156 1082 362 1293 c 128,-1,2
 568 1504 568 1504 840 1504 c 0,3,4
 914 1504 914 1504 1106 1464 c 128,-1,5
 1298 1424 1298 1424 1412 1424 c 0,6,7
 1610 1424 1610 1424 1872 1470 c 1,8,-1
 1630 0 l 1,9,-1
 1392 0 l 1,10,-1
 1596 1232 l 1,11,12
 1498 1214 1498 1214 1376 1214 c 0,13,14
 1298 1214 1298 1214 1194 1230 c 1,15,-1
 1010 122 l 1,16,17
 822 -34 822 -34 584 -34 c 0,18,19
 312 -34 312 -34 177 176 c 128,-1,20
 42 386 42 386 98 730 c 0,0,1
344 730 m 0,21,22
 302 474 302 474 377 324 c 128,-1,23
 452 174 452 174 620 174 c 0,24,25
 698 174 698 174 786 220 c 1,26,-1
 958 1266 l 1,27,28
 864 1296 864 1296 806 1296 c 0,29,30
 642 1296 642 1296 515 1144 c 128,-1,31
 388 992 388 992 344 730 c 0,21,22
EndSplineSet
EndChar

StartChar: uni01A3
Encoding: 419 419 357
Width: 1436
GlyphClass: 2
Flags: W
LayerCount: 2
Fore
SplineSet
54 536 m 256,0,1
 98 802 98 802 249 953 c 128,-1,2
 400 1104 400 1104 618 1104 c 0,3,4
 696 1104 696 1104 838 1075 c 128,-1,5
 980 1046 980 1046 1056 1046 c 0,6,7
 1224 1046 1224 1046 1408 1084 c 1,8,-1
 1228 0 l 1,9,-1
 1008 0 l 1,10,-1
 1150 854 l 1,11,12
 1100 846 1100 846 1020 846 c 0,13,14
 954 846 954 846 900 854 c 1,15,-1
 778 108 l 1,16,17
 634 -34 634 -34 428 -34 c 0,18,19
 212 -34 212 -34 111 118 c 128,-1,20
 10 270 10 270 54 536 c 256,0,1
282 536 m 0,21,22
 252 360 252 360 303 264 c 128,-1,23
 354 168 354 168 462 168 c 0,24,25
 508 168 508 168 574 222 c 1,26,-1
 684 890 l 1,27,28
 622 906 622 906 584 906 c 0,29,30
 470 906 470 906 390 807 c 128,-1,31
 310 708 310 708 282 536 c 0,21,22
EndSplineSet
EndChar

StartChar: uni01A5
Encoding: 421 421 359
Width: 1096
GlyphClass: 2
Flags: W
LayerCount: 2
Fore
SplineSet
340 538 m 0,0,1
 312 366 312 366 358 267 c 128,-1,2
 404 168 404 168 512 168 c 0,3,4
 616 168 616 168 697 266 c 128,-1,5
 778 364 778 364 806 538 c 0,6,7
 834 704 834 704 789 805 c 128,-1,8
 744 906 744 906 634 906 c 0,9,10
 528 906 528 906 448 804 c 128,-1,11
 368 702 368 702 340 538 c 0,0,1
-40 -438 m 1,12,-1
 230 1192 l 2,13,14
 258 1360 258 1360 369 1447 c 128,-1,15
 480 1534 480 1534 626 1534 c 0,16,17
 654 1534 654 1534 792 1524 c 1,18,-1
 758 1318 l 1,19,20
 682 1326 682 1326 630 1326 c 0,21,22
 558 1326 558 1326 506 1277 c 128,-1,23
 454 1228 454 1228 442 1150 c 2,24,-1
 408 942 l 1,25,26
 450 1006 450 1006 527 1055 c 128,-1,27
 604 1104 604 1104 698 1104 c 0,28,29
 884 1104 884 1104 980 952 c 128,-1,30
 1076 800 1076 800 1032 538 c 0,31,32
 1008 388 1008 388 949 273 c 128,-1,33
 890 158 890 158 815 94 c 128,-1,34
 740 30 740 30 661 -2 c 128,-1,35
 582 -34 582 -34 508 -34 c 0,36,37
 406 -34 406 -34 349 15 c 128,-1,38
 292 64 292 64 274 122 c 1,39,-1
 180 -438 l 1,40,-1
 -40 -438 l 1,12,-1
EndSplineSet
EndChar

StartChar: uni01A6
Encoding: 422 422 360
Width: 1264
GlyphClass: 2
Flags: W
LayerCount: 2
Fore
SplineSet
390 640 m 1,0,-1
 682 640 l 2,1,2
 924 640 924 640 960 868 c 0,3,4
 994 1074 994 1074 756 1074 c 2,5,-1
 462 1074 l 1,6,-1
 390 640 l 1,0,-1
44 0 m 1,7,-1
 288 1470 l 1,8,-1
 526 1470 l 1,9,-1
 496 1282 l 1,10,-1
 832 1282 l 2,11,12
 1050 1282 1050 1282 1144 1170 c 128,-1,13
 1238 1058 1238 1058 1210 888 c 0,14,15
 1170 642 1170 642 920 524 c 1,16,17
 952 498 952 498 974 472 c 128,-1,18
 996 446 996 446 1006 408 c 128,-1,19
 1016 370 1016 370 1018 345 c 128,-1,20
 1020 320 1020 320 1024 264 c 0,21,22
 1042 16 1042 16 1118 -170 c 1,23,-1
 852 -170 l 1,24,25
 838 -144 838 -144 829 -114 c 128,-1,26
 820 -84 820 -84 813 -61 c 128,-1,27
 806 -38 806 -38 800 -3 c 128,-1,28
 794 32 794 32 791 49 c 128,-1,29
 788 66 788 66 784 105 c 128,-1,30
 780 144 780 144 778 153 c 128,-1,31
 776 162 776 162 773 204 c 128,-1,32
 770 246 770 246 770 250 c 0,33,34
 760 348 760 348 734 391 c 128,-1,35
 708 434 708 434 630 434 c 2,36,-1
 356 434 l 1,37,-1
 284 0 l 1,38,-1
 44 0 l 1,7,-1
EndSplineSet
EndChar

StartChar: uni01A7
Encoding: 423 423 361
Width: 1178
GlyphClass: 2
Flags: W
LayerCount: 2
Fore
SplineSet
26 400 m 0,0,1
 40 490 40 490 85 563 c 128,-1,2
 130 636 130 636 200 684 c 128,-1,3
 270 732 270 732 338 763 c 128,-1,4
 406 794 406 794 496 824 c 0,5,6
 714 892 714 892 774 922 c 0,7,8
 910 990 910 990 928 1100 c 0,9,10
 942 1188 942 1188 883 1241 c 128,-1,11
 824 1294 824 1294 706 1294 c 0,12,13
 518 1294 518 1294 364 1122 c 1,14,-1
 174 1192 l 1,15,16
 260 1326 260 1326 406 1415 c 128,-1,17
 552 1504 552 1504 738 1504 c 0,18,19
 964 1504 964 1504 1086 1392 c 128,-1,20
 1208 1280 1208 1280 1178 1098 c 0,21,22
 1168 1038 1168 1038 1145 987 c 128,-1,23
 1122 936 1122 936 1096 901 c 128,-1,24
 1070 866 1070 866 1021 831 c 128,-1,25
 972 796 972 796 943 777 c 128,-1,26
 914 758 914 758 849 732 c 128,-1,27
 784 706 784 706 756 697 c 128,-1,28
 728 688 728 688 656 666 c 0,29,30
 634 658 634 658 622 654 c 0,31,32
 546 628 546 628 498 609 c 128,-1,33
 450 590 450 590 396 559 c 128,-1,34
 342 528 342 528 313 486 c 128,-1,35
 284 444 284 444 274 390 c 0,36,37
 258 296 258 296 323 235 c 128,-1,38
 388 174 388 174 506 174 c 0,39,40
 612 174 612 174 722 235 c 128,-1,41
 832 296 832 296 898 384 c 1,42,-1
 1094 310 l 1,43,44
 998 154 998 154 833 60 c 128,-1,45
 668 -34 668 -34 476 -34 c 0,46,47
 246 -34 246 -34 119 81 c 128,-1,48
 -8 196 -8 196 26 400 c 0,0,1
EndSplineSet
EndChar

StartChar: uni01A8
Encoding: 424 424 362
Width: 920
GlyphClass: 2
Flags: W
LayerCount: 2
Fore
SplineSet
6 290 m 0,0,1
 16 356 16 356 53 409 c 128,-1,2
 90 462 90 462 146 500 c 128,-1,3
 202 538 202 538 253 561 c 128,-1,4
 304 584 304 584 372 606 c 0,5,6
 538 658 538 658 584 692 c 0,7,8
 640 730 640 730 648 784 c 0,9,10
 658 842 658 842 620 874 c 128,-1,11
 582 906 582 906 508 906 c 0,12,13
 366 906 366 906 240 762 c 1,14,-1
 106 858 l 1,15,16
 176 964 176 964 294 1034 c 128,-1,17
 412 1104 412 1104 546 1104 c 0,18,19
 708 1104 708 1104 803 1018 c 128,-1,20
 898 932 898 932 874 782 c 0,21,22
 864 716 864 716 830 664 c 128,-1,23
 796 612 796 612 743 575 c 128,-1,24
 690 538 690 538 642 517 c 128,-1,25
 594 496 594 496 528 474 c 0,26,27
 514 470 514 470 483 460 c 128,-1,28
 452 450 452 450 437 445 c 128,-1,29
 422 440 422 440 396 430 c 128,-1,30
 370 420 370 420 355 413 c 128,-1,31
 340 406 340 406 320 395 c 128,-1,32
 300 384 300 384 287 374 c 128,-1,33
 274 364 274 364 262 351 c 128,-1,34
 250 338 250 338 243 322 c 128,-1,35
 236 306 236 306 234 290 c 0,36,37
 224 232 224 232 263 199 c 128,-1,38
 302 166 302 166 380 166 c 0,39,40
 542 166 542 166 678 322 c 1,41,-1
 822 224 l 1,42,43
 744 112 744 112 618 39 c 128,-1,44
 492 -34 492 -34 348 -34 c 0,45,46
 156 -34 156 -34 70 60 c 128,-1,47
 -16 154 -16 154 6 290 c 0,0,1
EndSplineSet
EndChar

StartChar: uni01A9
Encoding: 425 425 363
Width: 1196
GlyphClass: 2
Flags: W
LayerCount: 2
Fore
SplineSet
40 0 m 1,0,-1
 68 160 l 1,1,-1
 672 738 l 1,2,-1
 258 1310 l 1,3,-1
 284 1470 l 1,4,-1
 1248 1470 l 1,5,-1
 1214 1258 l 1,6,-1
 586 1258 l 1,7,-1
 944 738 l 1,8,-1
 412 208 l 1,9,-1
 1052 208 l 1,10,-1
 1016 0 l 1,11,-1
 40 0 l 1,0,-1
EndSplineSet
EndChar

StartChar: uni01AA
Encoding: 426 426 364
Width: 844
GlyphClass: 2
Flags: W
LayerCount: 2
Fore
SplineSet
204 1194 m 0,0,1
 194 1138 194 1138 224 1106 c 128,-1,2
 254 1074 254 1074 300 1074 c 0,3,4
 380 1074 380 1074 436 1122 c 1,5,6
 450 1208 450 1208 429 1262 c 128,-1,7
 408 1316 408 1316 342 1316 c 0,8,9
 292 1316 292 1316 252 1281 c 128,-1,10
 212 1246 212 1246 204 1194 c 0,0,1
-6 1186 m 0,11,12
 18 1328 18 1328 124 1416 c 128,-1,13
 230 1504 230 1504 378 1504 c 0,14,15
 542 1504 542 1504 611 1399 c 128,-1,16
 680 1294 680 1294 650 1106 c 2,17,-1
 454 -80 l 2,18,19
 428 -238 428 -238 556 -238 c 0,20,21
 608 -238 608 -238 694 -224 c 1,22,-1
 660 -428 l 1,23,24
 498 -446 498 -446 478 -446 c 0,25,26
 344 -446 344 -446 271 -362 c 128,-1,27
 198 -278 198 -278 230 -94 c 2,28,-1
 398 928 l 1,29,30
 342 882 342 882 236 882 c 0,31,32
 112 882 112 882 42 968 c 128,-1,33
 -28 1054 -28 1054 -6 1186 c 0,11,12
EndSplineSet
EndChar

StartChar: uni01AB
Encoding: 427 427 365
Width: 690
GlyphClass: 2
Flags: W
LayerCount: 2
Fore
SplineSet
82 872 m 1,0,-1
 114 1072 l 1,1,-1
 270 1072 l 1,2,-1
 322 1390 l 1,3,-1
 544 1390 l 1,4,-1
 492 1072 l 1,5,-1
 722 1072 l 1,6,-1
 688 872 l 1,7,-1
 458 872 l 1,8,-1
 372 344 l 2,9,10
 360 268 360 268 382 234 c 128,-1,11
 404 200 404 200 464 200 c 0,12,13
 528 200 528 200 600 212 c 1,14,-1
 568 12 l 2,15,16
 530 -214 530 -214 424 -330 c 128,-1,17
 318 -446 318 -446 160 -446 c 0,18,19
 82 -446 82 -446 20 -432 c 1,20,-1
 54 -224 l 1,21,22
 124 -238 124 -238 168 -238 c 0,23,24
 232 -238 232 -238 281 -188 c 128,-1,25
 330 -138 330 -138 348 -28 c 2,26,-1
 354 8 l 1,27,28
 292 16 292 16 264 28 c 0,29,30
 108 90 108 90 148 328 c 2,31,-1
 238 872 l 1,32,-1
 82 872 l 1,0,-1
EndSplineSet
EndChar

StartChar: uni01AC
Encoding: 428 428 366
Width: 1216
GlyphClass: 2
Flags: W
LayerCount: 2
Fore
SplineSet
32 1140 m 0,0,1
 60 1310 60 1310 184 1390 c 128,-1,2
 308 1470 308 1470 482 1470 c 2,3,-1
 1350 1470 l 1,4,-1
 1314 1260 l 1,5,-1
 902 1260 l 1,6,-1
 692 0 l 1,7,-1
 452 0 l 1,8,-1
 660 1260 l 1,9,-1
 448 1260 l 2,10,11
 358 1260 358 1260 305 1223 c 128,-1,12
 252 1186 252 1186 242 1122 c 0,13,14
 234 1068 234 1068 236 1026 c 1,15,-1
 26 1026 l 1,16,17
 22 1074 22 1074 32 1140 c 0,0,1
EndSplineSet
EndChar

StartChar: uni01AD
Encoding: 429 429 367
Width: 694
GlyphClass: 2
Flags: W
LayerCount: 2
Fore
SplineSet
82 872 m 1,0,-1
 114 1072 l 1,1,-1
 270 1072 l 1,2,-1
 288 1184 l 2,3,4
 316 1350 316 1350 427 1437 c 128,-1,5
 538 1524 538 1524 690 1524 c 0,6,7
 724 1524 724 1524 858 1514 c 1,8,-1
 824 1308 l 1,9,10
 752 1316 752 1316 694 1316 c 0,11,12
 620 1316 620 1316 569 1271 c 128,-1,13
 518 1226 518 1226 506 1152 c 2,14,-1
 492 1072 l 1,15,-1
 724 1072 l 1,16,-1
 690 872 l 1,17,-1
 458 872 l 1,18,-1
 372 344 l 2,19,20
 360 268 360 268 382 234 c 128,-1,21
 404 200 404 200 466 200 c 2,22,-1
 582 200 l 1,23,-1
 548 0 l 1,24,-1
 404 0 l 2,25,26
 92 0 92 0 148 328 c 2,27,-1
 238 872 l 1,28,-1
 82 872 l 1,0,-1
EndSplineSet
EndChar

StartChar: uni01AE
Encoding: 430 430 368
Width: 1104
GlyphClass: 2
Flags: W
LayerCount: 2
Fore
SplineSet
132 1260 m 1,0,-1
 168 1470 l 1,1,-1
 1240 1470 l 1,2,-1
 1204 1260 l 1,3,-1
 790 1260 l 1,4,-1
 576 -28 l 2,5,6
 558 -138 558 -138 584 -188 c 128,-1,7
 610 -238 610 -238 684 -238 c 0,8,9
 724 -238 724 -238 786 -226 c 1,10,-1
 752 -432 l 1,11,12
 654 -446 654 -446 604 -446 c 0,13,14
 542 -446 542 -446 490 -427 c 128,-1,15
 438 -408 438 -408 394 -365 c 128,-1,16
 350 -322 350 -322 333 -235 c 128,-1,17
 316 -148 316 -148 336 -28 c 2,18,-1
 548 1260 l 1,19,-1
 132 1260 l 1,0,-1
EndSplineSet
EndChar

StartChar: uni01B1
Encoding: 433 433 371
Width: 1426
GlyphClass: 2
Flags: W
LayerCount: 2
Fore
SplineSet
78 614 m 0,0,1
 112 822 112 822 240 970 c 128,-1,2
 368 1118 368 1118 564 1190 c 1,3,-1
 576 1260 l 1,4,-1
 210 1260 l 1,5,-1
 244 1470 l 1,6,-1
 788 1470 l 1,7,-1
 720 1054 l 1,8,9
 554 1010 554 1010 456 890 c 128,-1,10
 358 770 358 770 332 614 c 0,11,12
 302 432 302 432 387 306 c 128,-1,13
 472 180 472 180 650 180 c 0,14,15
 826 180 826 180 956 306 c 128,-1,16
 1086 432 1086 432 1116 614 c 0,17,18
 1140 764 1140 764 1083 886 c 128,-1,19
 1026 1008 1026 1008 870 1054 c 1,20,-1
 940 1470 l 1,21,-1
 1484 1470 l 1,22,-1
 1450 1260 l 1,23,-1
 1084 1260 l 1,24,-1
 1072 1190 l 1,25,26
 1244 1120 1244 1120 1322 971 c 128,-1,27
 1400 822 1400 822 1366 614 c 0,28,29
 1320 332 1320 332 1116 149 c 128,-1,30
 912 -34 912 -34 614 -34 c 0,31,32
 318 -34 318 -34 175 149 c 128,-1,33
 32 332 32 332 78 614 c 0,0,1
EndSplineSet
EndChar

StartChar: uni01B2
Encoding: 434 434 372
Width: 1384
GlyphClass: 2
Flags: W
LayerCount: 2
Fore
SplineSet
138 518 m 2,0,-1
 294 1470 l 1,1,-1
 536 1470 l 1,2,-1
 382 540 l 2,3,4
 348 334 348 334 399 254 c 128,-1,5
 450 174 450 174 580 174 c 0,6,7
 746 174 746 174 904 361 c 128,-1,8
 1062 548 1062 548 1108 834 c 0,9,10
 1146 1064 1146 1064 1108 1179 c 128,-1,11
 1070 1294 1070 1294 972 1294 c 0,12,13
 900 1294 900 1294 812 1268 c 1,14,-1
 848 1484 l 1,15,16
 952 1504 952 1504 1040 1504 c 0,17,18
 1248 1504 1248 1504 1330 1333 c 128,-1,19
 1412 1162 1412 1162 1358 838 c 0,20,21
 1320 608 1320 608 1210 412 c 128,-1,22
 1100 216 1100 216 924 91 c 128,-1,23
 748 -34 748 -34 546 -34 c 0,24,25
 288 -34 288 -34 190 101 c 128,-1,26
 92 236 92 236 138 518 c 2,0,-1
EndSplineSet
EndChar

StartChar: uni01B3
Encoding: 435 435 373
Width: 1232
GlyphClass: 2
Flags: W
LayerCount: 2
Fore
SplineSet
146 1470 m 1,0,-1
 420 1470 l 1,1,-1
 576 1016 l 2,2,3
 610 922 610 922 648 788 c 1,4,-1
 656 788 l 1,5,6
 720 892 720 892 808 1018 c 2,7,-1
 992 1292 l 2,8,9
 1130 1504 1130 1504 1312 1504 c 0,10,11
 1368 1504 1368 1504 1440 1494 c 1,12,-1
 1406 1288 l 1,13,14
 1378 1296 1378 1296 1306 1296 c 0,15,16
 1258 1296 1258 1296 1160 1162 c 2,17,-1
 740 596 l 1,18,-1
 642 0 l 1,19,-1
 402 0 l 1,20,-1
 500 596 l 1,21,-1
 146 1470 l 1,0,-1
EndSplineSet
EndChar

StartChar: uni01B4
Encoding: 436 436 374
Width: 986
GlyphClass: 2
Flags: W
LayerCount: 2
Fore
SplineSet
96 1072 m 1,0,-1
 342 1072 l 1,1,-1
 424 522 l 2,2,3
 442 360 442 360 450 272 c 1,4,-1
 456 272 l 1,5,6
 474 318 474 318 566 520 c 2,7,-1
 748 920 l 2,8,9
 824 1096 824 1096 1032 1096 c 0,10,11
 1064 1096 1064 1096 1166 1082 c 1,12,-1
 1130 872 l 1,13,14
 1076 888 1076 888 1042 888 c 0,15,16
 962 888 962 888 926 816 c 2,17,-1
 446 -124 l 2,18,19
 362 -292 362 -292 259 -365 c 128,-1,20
 156 -438 156 -438 24 -438 c 2,21,-1
 -50 -438 l 1,22,-1
 -16 -242 l 1,23,-1
 22 -242 l 2,24,25
 100 -242 100 -242 158 -201 c 128,-1,26
 216 -160 216 -160 260 -62 c 2,27,-1
 304 26 l 1,28,-1
 96 1072 l 1,0,-1
EndSplineSet
EndChar

StartChar: uni01B5
Encoding: 437 437 375
Width: 1172
GlyphClass: 2
Flags: W
LayerCount: 2
Fore
SplineSet
178 628 m 1,0,-1
 210 822 l 1,1,-1
 546 822 l 1,2,-1
 920 1260 l 1,3,-1
 232 1260 l 1,4,-1
 266 1470 l 1,5,-1
 1250 1470 l 1,6,-1
 1220 1288 l 1,7,-1
 822 822 l 1,8,-1
 1020 822 l 1,9,-1
 988 628 l 1,10,-1
 652 628 l 1,11,-1
 294 208 l 1,12,-1
 1060 208 l 1,13,-1
 1026 0 l 1,14,-1
 -36 0 l 1,15,-1
 -6 176 l 1,16,-1
 378 628 l 1,17,-1
 178 628 l 1,0,-1
EndSplineSet
EndChar

StartChar: uni01B6
Encoding: 438 438 376
Width: 924
GlyphClass: 2
Flags: W
LayerCount: 2
Fore
SplineSet
-50 0 m 1,0,-1
 -24 156 l 1,1,-1
 240 450 l 1,2,-1
 94 450 l 1,3,-1
 126 642 l 1,4,-1
 416 642 l 1,5,-1
 620 872 l 1,6,-1
 136 872 l 1,7,-1
 168 1072 l 1,8,-1
 944 1072 l 1,9,-1
 920 926 l 1,10,-1
 668 642 l 1,11,-1
 814 642 l 1,12,-1
 782 450 l 1,13,-1
 492 450 l 1,14,-1
 272 200 l 1,15,-1
 822 200 l 1,16,-1
 790 0 l 1,17,-1
 -50 0 l 1,0,-1
EndSplineSet
EndChar

StartChar: uni01B7
Encoding: 439 439 377
Width: 1352
GlyphClass: 2
Flags: W
LayerCount: 2
Fore
SplineSet
-12 -16 m 1,0,-1
 206 66 l 1,1,2
 224 -54 224 -54 304 -141 c 128,-1,3
 384 -228 384 -228 526 -228 c 0,4,5
 694 -228 694 -228 813 -117 c 128,-1,6
 932 -6 932 -6 962 176 c 0,7,8
 992 360 992 360 896 472 c 128,-1,9
 800 584 800 584 600 584 c 2,10,-1
 402 584 l 1,11,-1
 434 774 l 1,12,-1
 938 1260 l 1,13,-1
 262 1260 l 1,14,-1
 296 1470 l 1,15,-1
 1334 1470 l 1,16,-1
 1312 1328 l 1,17,-1
 740 786 l 1,18,-1
 766 784 l 1,19,20
 1006 750 1006 750 1128 590 c 128,-1,21
 1250 430 1250 430 1208 176 c 0,22,23
 1164 -94 1164 -94 965 -265 c 128,-1,24
 766 -436 766 -436 500 -436 c 0,25,26
 376 -436 376 -436 279 -400 c 128,-1,27
 182 -364 182 -364 124 -302 c 128,-1,28
 66 -240 66 -240 33 -169 c 128,-1,29
 0 -98 0 -98 -12 -16 c 1,0,-1
EndSplineSet
EndChar

StartChar: uni01B8
Encoding: 440 440 378
Width: 1352
GlyphClass: 2
Flags: W
LayerCount: 2
Fore
SplineSet
16 176 m 0,0,1
 58 430 58 430 238 594 c 128,-1,2
 418 758 418 758 658 784 c 1,3,-1
 686 786 l 1,4,-1
 296 1328 l 1,5,-1
 320 1470 l 1,6,-1
 1356 1470 l 1,7,-1
 1322 1260 l 1,8,-1
 646 1260 l 1,9,-1
 988 774 l 1,10,-1
 956 584 l 1,11,-1
 760 584 l 2,12,13
 560 584 560 584 426 472 c 128,-1,14
 292 360 292 360 262 176 c 0,15,16
 232 -6 232 -6 314 -117 c 128,-1,17
 396 -228 396 -228 564 -228 c 0,18,19
 708 -228 708 -228 816 -141 c 128,-1,20
 924 -54 924 -54 978 66 c 1,21,-1
 1174 -16 l 1,22,23
 1134 -98 1134 -98 1077 -169 c 128,-1,24
 1020 -240 1020 -240 941 -302 c 128,-1,25
 862 -364 862 -364 753 -400 c 128,-1,26
 644 -436 644 -436 522 -436 c 0,27,28
 254 -436 254 -436 113 -265 c 128,-1,29
 -28 -94 -28 -94 16 176 c 0,0,1
EndSplineSet
EndChar

StartChar: uni01B9
Encoding: 441 441 379
Width: 1090
GlyphClass: 2
Flags: W
LayerCount: 2
Fore
SplineSet
-12 54 m 0,0,1
 18 238 18 238 156 375 c 128,-1,2
 294 512 294 512 472 528 c 1,3,-1
 496 528 l 1,4,-1
 194 928 l 1,5,-1
 218 1072 l 1,6,-1
 1046 1072 l 1,7,-1
 1014 872 l 1,8,-1
 514 872 l 1,9,-1
 772 514 l 1,10,-1
 746 354 l 1,11,-1
 570 354 l 2,12,13
 422 354 422 354 329 269 c 128,-1,14
 236 184 236 184 216 54 c 0,15,16
 194 -74 194 -74 250 -160 c 128,-1,17
 306 -246 306 -246 426 -246 c 0,18,19
 528 -246 528 -246 607 -177 c 128,-1,20
 686 -108 686 -108 730 -10 c 1,21,-1
 918 -66 l 1,22,23
 848 -228 848 -228 710 -337 c 128,-1,24
 572 -446 572 -446 386 -446 c 0,25,26
 168 -446 168 -446 60 -303 c 128,-1,27
 -48 -160 -48 -160 -12 54 c 0,0,1
EndSplineSet
EndChar

StartChar: uni01BA
Encoding: 442 442 380
Width: 840
GlyphClass: 2
Flags: W
LayerCount: 2
Fore
SplineSet
-48 -122 m 0,0,1
 -36 -46 -36 -46 22 19 c 128,-1,2
 80 84 80 84 155 127 c 128,-1,3
 230 170 230 170 305 210 c 128,-1,4
 380 250 380 250 434 289 c 128,-1,5
 488 328 488 328 496 368 c 0,6,7
 504 418 504 418 444 450 c 128,-1,8
 384 482 384 482 272 482 c 2,9,-1
 206 482 l 1,10,-1
 226 604 l 1,11,-1
 540 872 l 1,12,-1
 124 872 l 1,13,-1
 156 1072 l 1,14,-1
 860 1072 l 1,15,-1
 834 916 l 1,16,-1
 478 616 l 1,17,-1
 514 612 l 2,18,19
 618 604 618 604 679 547 c 128,-1,20
 740 490 740 490 722 380 c 0,21,22
 710 304 710 304 652 241 c 128,-1,23
 594 178 594 178 519 134 c 128,-1,24
 444 90 444 90 370 52 c 128,-1,25
 296 14 296 14 242 -26 c 128,-1,26
 188 -66 188 -66 182 -106 c 0,27,28
 166 -204 166 -204 298 -204 c 0,29,30
 374 -204 374 -204 508 -176 c 1,31,-1
 476 -380 l 1,32,33
 328 -406 328 -406 230 -406 c 0,34,35
 86 -406 86 -406 8 -331 c 128,-1,36
 -70 -256 -70 -256 -48 -122 c 0,0,1
EndSplineSet
EndChar

StartChar: uni01BB
Encoding: 443 443 381
Width: 1074
GlyphClass: 2
Flags: W
LayerCount: 2
Fore
SplineSet
194 612 m 1,0,-1
 226 804 l 1,1,-1
 640 804 l 1,2,3
 784 936 784 936 810 1086 c 0,4,5
 828 1192 828 1192 779 1247 c 128,-1,6
 730 1302 730 1302 652 1302 c 0,7,8
 648 1302 648 1302 646 1302 c 0,9,10
 466 1300 466 1300 356 1046 c 1,11,-1
 164 1108 l 1,12,13
 230 1284 230 1284 363 1394 c 128,-1,14
 496 1504 496 1504 688 1504 c 0,15,16
 882 1504 882 1504 985 1389 c 128,-1,17
 1088 1274 1088 1274 1054 1076 c 0,18,19
 1030 936 1030 936 922 804 c 1,20,-1
 1070 804 l 1,21,-1
 1038 612 l 1,22,-1
 726 612 l 1,23,24
 708 596 708 596 661 556 c 128,-1,25
 614 516 614 516 595 500 c 128,-1,26
 576 484 576 484 536 448 c 128,-1,27
 496 412 496 412 475 390 c 128,-1,28
 454 368 454 368 423 335 c 128,-1,29
 392 302 392 302 367 269 c 128,-1,30
 342 236 342 236 320 200 c 1,31,-1
 904 200 l 1,32,-1
 870 0 l 1,33,-1
 -6 0 l 1,34,35
 20 160 20 160 131 305 c 128,-1,36
 242 450 242 450 422 612 c 1,37,-1
 194 612 l 1,0,-1
EndSplineSet
EndChar

StartChar: uni01BC
Encoding: 444 444 382
Width: 1142
GlyphClass: 2
Flags: W
LayerCount: 2
Fore
SplineSet
32 272 m 1,0,-1
 238 344 l 1,1,2
 260 262 260 262 321 215 c 128,-1,3
 382 168 382 168 478 168 c 0,4,5
 596 168 596 168 679 245 c 128,-1,6
 762 322 762 322 784 450 c 0,7,8
 802 564 802 564 734 648 c 128,-1,9
 666 732 666 732 506 732 c 0,10,11
 380 732 380 732 242 700 c 1,12,-1
 406 1262 l 1,13,-1
 316 1262 l 1,14,-1
 350 1470 l 1,15,-1
 1132 1470 l 1,16,-1
 1096 1260 l 1,17,-1
 630 1260 l 1,18,-1
 532 930 l 1,19,20
 566 934 566 934 630 934 c 0,21,22
 846 934 846 934 958 800 c 128,-1,23
 1070 666 1070 666 1036 456 c 0,24,25
 1020 360 1020 360 975 275 c 128,-1,26
 930 190 930 190 860 120 c 128,-1,27
 790 50 790 50 685 8 c 128,-1,28
 580 -34 580 -34 454 -34 c 0,29,30
 278 -34 278 -34 169 53 c 128,-1,31
 60 140 60 140 32 272 c 1,0,-1
EndSplineSet
EndChar

StartChar: uni01BD
Encoding: 445 445 383
Width: 904
GlyphClass: 2
Flags: W
LayerCount: 2
Fore
SplineSet
18 216 m 1,0,-1
 210 298 l 1,1,2
 224 238 224 238 266 202 c 128,-1,3
 308 166 308 166 366 166 c 0,4,5
 442 166 442 166 496 212 c 128,-1,6
 550 258 550 258 562 332 c 0,7,8
 574 404 574 404 527 458 c 128,-1,9
 480 512 480 512 382 512 c 0,10,11
 294 512 294 512 168 490 c 1,12,-1
 284 874 l 1,13,-1
 220 874 l 1,14,-1
 254 1072 l 1,15,-1
 840 1072 l 1,16,-1
 808 872 l 1,17,-1
 480 872 l 1,18,-1
 428 712 l 1,19,-1
 472 714 l 2,20,21
 640 714 640 714 728 608 c 128,-1,22
 816 502 816 502 790 344 c 0,23,24
 764 190 764 190 646 78 c 128,-1,25
 528 -34 528 -34 330 -34 c 0,26,27
 90 -34 90 -34 18 216 c 1,0,-1
EndSplineSet
EndChar

StartChar: uni01BE
Encoding: 446 446 384
Width: 834
GlyphClass: 2
Flags: W
LayerCount: 2
Fore
SplineSet
92 872 m 1,0,-1
 126 1072 l 1,1,-1
 270 1072 l 1,2,-1
 322 1384 l 1,3,-1
 542 1384 l 1,4,-1
 490 1072 l 1,5,-1
 714 1072 l 1,6,-1
 682 872 l 1,7,-1
 456 872 l 1,8,-1
 446 804 l 2,9,10
 436 740 436 740 464 692 c 128,-1,11
 492 644 492 644 539 612 c 128,-1,12
 586 580 586 580 634 543 c 128,-1,13
 682 506 682 506 708 443 c 128,-1,14
 734 380 734 380 720 294 c 0,15,16
 698 160 698 160 598 63 c 128,-1,17
 498 -34 498 -34 316 -34 c 0,18,19
 82 -34 82 -34 -2 200 c 1,20,-1
 170 292 l 1,21,22
 228 168 228 168 342 168 c 0,23,24
 406 168 406 168 448 201 c 128,-1,25
 490 234 490 234 498 286 c 0,26,27
 506 334 506 334 475 370 c 128,-1,28
 444 406 444 406 397 437 c 128,-1,29
 350 468 350 468 303 506 c 128,-1,30
 256 544 256 544 231 615 c 128,-1,31
 206 686 206 686 222 782 c 2,32,-1
 236 872 l 1,33,-1
 92 872 l 1,0,-1
EndSplineSet
EndChar

StartChar: uni01BF
Encoding: 447 447 385
Width: 1080
GlyphClass: 2
Flags: W
LayerCount: 2
Fore
SplineSet
-40 -438 m 1,0,-1
 210 1072 l 1,1,-1
 426 1072 l 1,2,-1
 410 986 l 1,3,4
 536 1104 536 1104 708 1104 c 0,5,6
 904 1104 904 1104 988 986 c 128,-1,7
 1072 868 1072 868 1040 676 c 0,8,9
 946 114 946 114 254 4 c 1,10,-1
 180 -438 l 1,11,-1
 -40 -438 l 1,0,-1
286 196 m 1,12,13
 480 226 480 226 630 342 c 128,-1,14
 780 458 780 458 810 648 c 0,15,16
 832 778 832 778 785 842 c 128,-1,17
 738 906 738 906 648 906 c 0,18,19
 572 906 572 906 497 863 c 128,-1,20
 422 820 422 820 378 758 c 1,21,-1
 286 196 l 1,12,13
EndSplineSet
EndChar

StartChar: uni01C0
Encoding: 448 448 386
Width: 484
GlyphClass: 2
Flags: W
LayerCount: 2
Fore
SplineSet
-22 -404 m 1,0,-1
 314 1628 l 1,1,-1
 524 1628 l 1,2,-1
 188 -404 l 1,3,-1
 -22 -404 l 1,0,-1
EndSplineSet
EndChar

StartChar: uni01C1
Encoding: 449 449 387
Width: 864
GlyphClass: 2
Flags: W
LayerCount: 2
Fore
SplineSet
-22 -404 m 1,0,-1
 314 1628 l 1,1,-1
 524 1628 l 1,2,-1
 188 -404 l 1,3,-1
 -22 -404 l 1,0,-1
356 -404 m 1,4,-1
 692 1628 l 1,5,-1
 902 1628 l 1,6,-1
 566 -404 l 1,7,-1
 356 -404 l 1,4,-1
EndSplineSet
EndChar

StartChar: uni01C2
Encoding: 450 450 388
Width: 690
GlyphClass: 2
Flags: W
LayerCount: 2
Fore
SplineSet
70 824 m 1,0,-1
 96 986 l 1,1,-1
 312 986 l 1,2,-1
 418 1628 l 1,3,-1
 630 1628 l 1,4,-1
 524 986 l 1,5,-1
 736 986 l 1,6,-1
 708 824 l 1,7,-1
 496 824 l 1,8,-1
 454 562 l 1,9,-1
 666 562 l 1,10,-1
 638 396 l 1,11,-1
 426 396 l 1,12,-1
 294 -404 l 1,13,-1
 82 -404 l 1,14,-1
 214 396 l 1,15,-1
 -2 396 l 1,16,-1
 26 562 l 1,17,-1
 242 562 l 1,18,-1
 286 824 l 1,19,-1
 70 824 l 1,0,-1
EndSplineSet
EndChar

StartChar: uni01DD
Encoding: 477 477 415
Width: 1050
GlyphClass: 2
Flags: W
LayerCount: 2
Fore
SplineSet
52 522 m 0,0,1
 62 588 62 588 70 616 c 1,2,-1
 774 616 l 1,3,4
 794 740 794 740 740 827 c 128,-1,5
 686 914 686 914 564 914 c 0,6,7
 476 914 476 914 405 870 c 128,-1,8
 334 826 334 826 290 758 c 1,9,-1
 120 826 l 1,10,11
 190 946 190 946 311 1025 c 128,-1,12
 432 1104 432 1104 598 1104 c 0,13,14
 814 1104 814 1104 920 947 c 128,-1,15
 1026 790 1026 790 984 530 c 0,16,17
 942 272 942 272 783 119 c 128,-1,18
 624 -34 624 -34 420 -34 c 0,19,20
 220 -34 220 -34 116 121 c 128,-1,21
 12 276 12 276 52 522 c 0,0,1
262 452 m 1,22,23
 242 328 242 328 290 241 c 128,-1,24
 338 154 338 154 450 154 c 256,25,26
 562 154 562 154 642 241 c 128,-1,27
 722 328 722 328 748 452 c 1,28,-1
 262 452 l 1,22,23
EndSplineSet
EndChar

StartChar: uni01E4
Encoding: 484 484 422
Width: 1414
GlyphClass: 2
Flags: W
LayerCount: 2
Fore
SplineSet
98 736 m 0,0,1
 134 948 134 948 234 1120 c 128,-1,2
 334 1292 334 1292 503 1398 c 128,-1,3
 672 1504 672 1504 880 1504 c 0,4,5
 986 1504 986 1504 1071 1467 c 128,-1,6
 1156 1430 1156 1430 1210 1373 c 128,-1,7
 1264 1316 1264 1316 1293 1262 c 128,-1,8
 1322 1208 1322 1208 1340 1152 c 1,9,-1
 1122 1084 l 1,10,11
 1100 1128 1100 1128 1087 1149 c 128,-1,12
 1074 1170 1074 1170 1040 1212 c 128,-1,13
 1006 1254 1006 1254 957 1274 c 128,-1,14
 908 1294 908 1294 846 1294 c 0,15,16
 656 1294 656 1294 522 1143 c 128,-1,17
 388 992 388 992 346 736 c 0,18,19
 304 482 304 482 387 329 c 128,-1,20
 470 176 470 176 644 176 c 0,21,22
 734 176 734 176 818 217 c 128,-1,23
 902 258 902 258 958 340 c 1,24,-1
 616 340 l 1,25,-1
 640 492 l 1,26,-1
 1034 492 l 1,27,-1
 1050 554 l 1,28,-1
 1062 618 l 1,29,-1
 706 618 l 1,30,-1
 740 822 l 1,31,-1
 1326 822 l 1,32,-1
 1272 492 l 1,33,-1
 1390 492 l 1,34,-1
 1364 340 l 1,35,-1
 1246 340 l 1,36,-1
 1190 0 l 1,37,-1
 1024 0 l 1,38,-1
 1026 150 l 1,39,40
 878 -34 878 -34 606 -34 c 256,41,42
 334 -34 334 -34 187 173 c 128,-1,43
 40 380 40 380 98 736 c 0,0,1
EndSplineSet
EndChar

StartChar: uni01E5
Encoding: 485 485 423
Width: 1078
GlyphClass: 2
Flags: W
LayerCount: 2
Fore
SplineSet
70 590 m 0,0,1
 108 818 108 818 250 961 c 128,-1,2
 392 1104 392 1104 576 1104 c 0,3,4
 668 1104 668 1104 726 1056 c 128,-1,5
 784 1008 784 1008 798 952 c 1,6,-1
 818 1072 l 1,7,-1
 1038 1072 l 1,8,-1
 892 196 l 2,9,10
 874 84 874 84 856 12 c 1,11,-1
 980 12 l 1,12,-1
 956 -130 l 1,13,-1
 810 -130 l 1,14,15
 740 -284 740 -284 626 -365 c 128,-1,16
 512 -446 512 -446 332 -446 c 0,17,18
 78 -446 78 -446 -30 -238 c 1,19,-1
 134 -130 l 1,20,21
 208 -256 208 -256 368 -256 c 0,22,23
 496 -256 496 -256 580 -130 c 1,24,-1
 258 -130 l 1,25,-1
 280 12 l 1,26,-1
 636 12 l 1,27,28
 652 66 652 66 664 136 c 2,29,-1
 678 224 l 1,30,31
 636 164 636 164 560 125 c 128,-1,32
 484 86 484 86 408 86 c 0,33,34
 226 86 226 86 129 221 c 128,-1,35
 32 356 32 356 70 590 c 0,0,1
294 590 m 0,36,37
 270 444 270 444 323 365 c 128,-1,38
 376 286 376 286 462 286 c 0,39,40
 558 286 558 286 634 369 c 128,-1,41
 710 452 710 452 734 596 c 0,42,43
 758 738 758 738 710 822 c 128,-1,44
 662 906 662 906 570 906 c 0,45,46
 472 906 472 906 394 817 c 128,-1,47
 316 728 316 728 294 590 c 0,36,37
EndSplineSet
EndChar

StartChar: uni01EF
Encoding: 495 495 433
Width: 1090
GlyphClass: 2
Flags: W
LayerCount: 2
Fore
SplineSet
324 1574 m 1,0,-1
 540 1574 l 1,1,-1
 674 1372 l 1,2,-1
 874 1574 l 1,3,-1
 1092 1574 l 1,4,-1
 746 1248 l 1,5,-1
 554 1248 l 1,6,-1
 324 1574 l 1,0,-1
-34 -66 m 1,7,-1
 174 -10 l 1,8,9
 184 -108 184 -108 240 -177 c 128,-1,10
 296 -246 296 -246 398 -246 c 0,11,12
 518 -246 518 -246 602 -161 c 128,-1,13
 686 -76 686 -76 708 56 c 0,14,15
 730 184 730 184 665 269 c 128,-1,16
 600 354 600 354 454 354 c 2,17,-1
 274 354 l 1,18,-1
 302 514 l 1,19,-1
 682 872 l 1,20,-1
 182 872 l 1,21,-1
 216 1072 l 1,22,-1
 1042 1072 l 1,23,-1
 1018 928 l 1,24,-1
 584 528 l 1,25,-1
 662 514 l 1,26,27
 806 480 806 480 885 353 c 128,-1,28
 964 226 964 226 936 56 c 0,29,30
 900 -162 900 -162 744 -304 c 128,-1,31
 588 -446 588 -446 370 -446 c 0,32,33
 184 -446 184 -446 82 -337 c 128,-1,34
 -20 -228 -20 -228 -34 -66 c 1,7,-1
EndSplineSet
EndChar

StartChar: uni01F6
Encoding: 502 502 440
Width: 1936
GlyphClass: 2
Flags: W
LayerCount: 2
Fore
SplineSet
58 0 m 1,0,-1
 300 1470 l 1,1,-1
 540 1470 l 1,2,-1
 438 858 l 1,3,-1
 1008 858 l 1,4,-1
 1110 1470 l 1,5,-1
 1352 1470 l 1,6,-1
 1178 408 l 2,7,8
 1158 288 1158 288 1202 228 c 128,-1,9
 1246 168 1246 168 1338 168 c 0,10,11
 1420 168 1420 168 1484 229 c 128,-1,12
 1548 290 1548 290 1564 386 c 2,13,-1
 1678 1072 l 1,14,-1
 1916 1072 l 1,15,-1
 1798 356 l 2,16,17
 1766 164 1766 164 1624 65 c 128,-1,18
 1482 -34 1482 -34 1302 -34 c 0,19,20
 1216 -34 1216 -34 1145 -14 c 128,-1,21
 1074 6 1074 6 1015 49 c 128,-1,22
 956 92 956 92 932 171 c 128,-1,23
 908 250 908 250 926 356 c 2,24,-1
 974 652 l 1,25,-1
 404 652 l 1,26,-1
 296 0 l 1,27,-1
 58 0 l 1,0,-1
EndSplineSet
EndChar

StartChar: uni01F7
Encoding: 503 503 441
Width: 1246
GlyphClass: 2
Flags: W
LayerCount: 2
Fore
SplineSet
-12 -430 m 1,0,-1
 302 1470 l 1,1,-1
 540 1470 l 1,2,-1
 518 1338 l 1,3,4
 722 1504 722 1504 908 1504 c 0,5,6
 1120 1504 1120 1504 1204 1367 c 128,-1,7
 1288 1230 1288 1230 1246 984 c 0,8,9
 1216 808 1216 808 1115 645 c 128,-1,10
 1014 482 1014 482 871 360 c 128,-1,11
 728 238 728 238 586 151 c 128,-1,12
 444 64 444 64 296 2 c 1,13,-1
 224 -430 l 1,14,-1
 -12 -430 l 1,0,-1
336 238 m 1,15,16
 438 286 438 286 540 357 c 128,-1,17
 642 428 642 428 740 522 c 128,-1,18
 838 616 838 616 908 734 c 128,-1,19
 978 852 978 852 998 974 c 0,20,21
 1024 1130 1024 1130 980 1213 c 128,-1,22
 936 1296 936 1296 824 1296 c 0,23,24
 742 1296 742 1296 646 1238 c 128,-1,25
 550 1180 550 1180 478 1098 c 1,26,-1
 336 238 l 1,15,16
EndSplineSet
EndChar

StartChar: Aringacute
Encoding: 506 506 444
Width: 1290
GlyphClass: 2
Flags: W
LayerCount: 2
Fore
SplineSet
-102 0 m 1,0,-1
 660 1466 l 1,1,2
 628 1484 628 1484 602 1514 c 0,3,4
 532 1590 532 1590 552 1706 c 0,5,6
 570 1816 570 1816 664 1896 c 0,7,8
 722 1946 722 1946 788 1964 c 1,9,-1
 988 2216 l 1,10,-1
 1266 2216 l 1,11,-1
 988 1956 l 1,12,13
 1036 1936 1036 1936 1070 1896 c 0,14,15
 1136 1814 1136 1814 1118 1706 c 0,16,17
 1098 1590 1098 1590 1004 1514 c 0,18,19
 968 1484 968 1484 930 1466 c 1,20,-1
 1204 0 l 1,21,-1
 950 0 l 1,22,-1
 890 364 l 1,23,-1
 334 364 l 1,24,-1
 154 0 l 1,25,-1
 -102 0 l 1,0,-1
428 562 m 1,26,-1
 860 562 l 1,27,-1
 800 942 l 2,28,29
 796 984 796 984 788 1034 c 128,-1,30
 780 1084 780 1084 772 1144 c 128,-1,31
 764 1204 764 1204 762 1234 c 1,32,-1
 750 1234 l 1,33,34
 742 1216 742 1216 616 942 c 1,35,-1
 428 562 l 1,26,-1
710 1706 m 256,36,37
 702 1654 702 1654 730 1618 c 128,-1,38
 758 1582 758 1582 814 1582 c 0,39,40
 864 1582 864 1582 905 1617 c 128,-1,41
 946 1652 946 1652 956 1706 c 0,42,43
 964 1758 964 1758 936 1794 c 128,-1,44
 908 1830 908 1830 854 1830 c 256,45,46
 802 1830 802 1830 760 1794 c 128,-1,47
 718 1758 718 1758 710 1706 c 256,36,37
EndSplineSet
EndChar

StartChar: aringacute
Encoding: 507 507 445
Width: 1024
GlyphClass: 2
Flags: W
LayerCount: 2
Fore
SplineSet
12 280 m 0,0,1
 62 584 62 584 496 650 c 0,2,3
 654 674 654 674 722 696 c 1,4,-1
 732 752 l 2,5,6
 744 830 744 830 699 875 c 128,-1,7
 654 920 654 920 566 920 c 0,8,9
 400 920 400 920 254 774 c 1,10,-1
 140 898 l 1,11,12
 236 996 236 996 354 1051 c 128,-1,13
 472 1106 472 1106 594 1106 c 0,14,15
 818 1106 818 1106 896 990 c 128,-1,16
 974 874 974 874 940 666 c 2,17,-1
 830 0 l 1,18,-1
 614 0 l 1,19,-1
 636 134 l 1,20,21
 594 66 594 66 507 16 c 128,-1,22
 420 -34 420 -34 316 -34 c 0,23,24
 150 -34 150 -34 70 54 c 128,-1,25
 -10 142 -10 142 12 280 c 0,0,1
390 1456 m 0,26,27
 408 1566 408 1566 498 1646 c 0,28,29
 556 1696 556 1696 620 1714 c 1,30,-1
 814 1966 l 1,31,-1
 1082 1966 l 1,32,-1
 814 1706 l 1,33,34
 860 1686 860 1686 890 1646 c 0,35,36
 954 1564 954 1564 936 1456 c 0,37,38
 918 1342 918 1342 825 1265 c 128,-1,39
 732 1188 732 1188 618 1188 c 0,40,41
 506 1188 506 1188 439 1265 c 128,-1,42
 372 1342 372 1342 390 1456 c 0,26,27
238 302 m 0,43,44
 228 242 228 242 267 202 c 128,-1,45
 306 162 306 162 380 162 c 0,46,47
 486 162 486 162 573 236 c 128,-1,48
 660 310 660 310 680 432 c 2,49,-1
 696 530 l 1,50,51
 612 510 612 510 492 490 c 0,52,53
 264 454 264 454 238 302 c 0,43,44
542 1456 m 0,54,55
 534 1404 534 1404 561 1368 c 128,-1,56
 588 1332 588 1332 640 1332 c 0,57,58
 690 1332 690 1332 730 1368 c 128,-1,59
 770 1404 770 1404 780 1456 c 0,60,61
 788 1510 788 1510 761 1546 c 128,-1,62
 734 1582 734 1582 682 1582 c 256,63,64
 630 1582 630 1582 590 1546 c 128,-1,65
 550 1510 550 1510 542 1456 c 0,54,55
EndSplineSet
EndChar

StartChar: uni021C
Encoding: 540 540 478
Width: 1116
GlyphClass: 2
Flags: W
LayerCount: 2
Fore
SplineSet
-58 -188 m 1,0,1
 82 -222 82 -222 240 -222 c 0,2,3
 430 -222 430 -222 563 -117 c 128,-1,4
 696 -12 696 -12 726 168 c 0,5,6
 758 360 758 360 681 447 c 128,-1,7
 604 534 604 534 482 534 c 0,8,9
 378 534 378 534 248 486 c 1,10,-1
 282 698 l 1,11,-1
 500 746 l 2,12,13
 636 774 636 774 732 853 c 128,-1,14
 828 932 828 932 848 1052 c 0,15,16
 866 1158 866 1158 808 1224 c 128,-1,17
 750 1290 750 1290 630 1290 c 0,18,19
 540 1290 540 1290 475 1247 c 128,-1,20
 410 1204 410 1204 352 1116 c 1,21,-1
 178 1210 l 1,22,23
 256 1348 256 1348 386 1426 c 128,-1,24
 516 1504 516 1504 670 1504 c 0,25,26
 914 1504 914 1504 1024 1387 c 128,-1,27
 1134 1270 1134 1270 1102 1080 c 0,28,29
 1074 916 1074 916 976 807 c 128,-1,30
 878 698 878 698 766 652 c 1,31,-1
 764 650 l 1,32,33
 876 610 876 610 942 485 c 128,-1,34
 1008 360 1008 360 974 164 c 0,35,36
 928 -118 928 -118 715 -277 c 128,-1,37
 502 -436 502 -436 206 -436 c 0,38,39
 68 -436 68 -436 -94 -406 c 1,40,-1
 -58 -188 l 1,0,1
EndSplineSet
EndChar

StartChar: uni021D
Encoding: 541 541 479
Width: 848
GlyphClass: 2
Flags: W
LayerCount: 2
Fore
SplineSet
-72 -220 m 1,0,1
 40 -246 40 -246 150 -246 c 0,2,3
 274 -246 274 -246 361 -173 c 128,-1,4
 448 -100 448 -100 470 36 c 0,5,6
 490 160 490 160 440 231 c 128,-1,7
 390 302 390 302 308 302 c 0,8,9
 246 302 246 302 152 270 c 1,10,-1
 184 466 l 1,11,-1
 342 502 l 2,12,13
 432 522 432 522 495 585 c 128,-1,14
 558 648 558 648 572 728 c 0,15,16
 584 806 584 806 553 856 c 128,-1,17
 522 906 522 906 456 906 c 0,18,19
 340 906 340 906 268 768 c 1,20,-1
 108 838 l 1,21,22
 156 952 156 952 259 1028 c 128,-1,23
 362 1104 362 1104 504 1104 c 0,24,25
 666 1104 666 1104 743 1003 c 128,-1,26
 820 902 820 902 796 762 c 0,27,28
 756 520 756 520 550 414 c 1,29,30
 628 382 628 382 673 282 c 128,-1,31
 718 182 718 182 694 42 c 0,32,33
 654 -196 654 -196 505 -321 c 128,-1,34
 356 -446 356 -446 120 -446 c 0,35,36
 26 -446 26 -446 -106 -426 c 1,37,-1
 -72 -220 l 1,0,1
EndSplineSet
EndChar

StartChar: uni0220
Encoding: 544 544 482
Width: 1350
GlyphClass: 2
Flags: W
LayerCount: 2
Fore
SplineSet
58 0 m 1,0,-1
 300 1470 l 1,1,-1
 530 1470 l 1,2,-1
 502 1304 l 1,3,-1
 504 1304 l 1,4,5
 698 1504 698 1504 938 1504 c 0,6,7
 1362 1504 1362 1504 1274 978 c 2,8,-1
 1040 -438 l 1,9,-1
 798 -438 l 1,10,-1
 1030 960 l 2,11,12
 1056 1120 1056 1120 1014 1207 c 128,-1,13
 972 1294 972 1294 842 1294 c 256,14,15
 712 1294 712 1294 592 1179 c 128,-1,16
 472 1064 472 1064 448 914 c 2,17,-1
 296 0 l 1,18,-1
 58 0 l 1,0,-1
EndSplineSet
EndChar

StartChar: uni0221
Encoding: 545 545 483
Width: 1398
GlyphClass: 2
Flags: W
LayerCount: 2
Fore
SplineSet
874 -166 m 1,0,1
 878 -214 878 -214 910 -245 c 128,-1,2
 942 -276 942 -276 994 -276 c 0,3,4
 1038 -276 1038 -276 1068 -251 c 128,-1,5
 1098 -226 1098 -226 1104 -192 c 0,6,7
 1110 -154 1110 -154 1087 -127 c 128,-1,8
 1064 -100 1064 -100 1016 -100 c 0,9,10
 942 -100 942 -100 874 -166 c 1,0,1
56 538 m 0,11,12
 100 800 100 800 247 952 c 128,-1,13
 394 1104 394 1104 582 1104 c 0,14,15
 670 1104 670 1104 730 1059 c 128,-1,16
 790 1014 790 1014 814 952 c 1,17,-1
 908 1518 l 1,18,-1
 1128 1518 l 1,19,-1
 898 124 l 2,20,21
 884 38 884 38 884 22 c 1,22,23
 960 74 960 74 1052 74 c 0,24,25
 1178 74 1178 74 1242 -1 c 128,-1,26
 1306 -76 1306 -76 1288 -186 c 0,27,28
 1268 -304 1268 -304 1181 -375 c 128,-1,29
 1094 -446 1094 -446 968 -446 c 0,30,31
 832 -446 832 -446 756 -340 c 1,32,33
 722 -388 722 -388 694 -448 c 1,34,-1
 524 -376 l 1,35,36
 596 -242 596 -242 660 -164 c 1,37,38
 648 -98 648 -98 668 50 c 2,39,-1
 682 138 l 1,40,41
 642 72 642 72 563 19 c 128,-1,42
 484 -34 484 -34 392 -34 c 0,43,44
 312 -34 312 -34 244 -2 c 128,-1,45
 176 30 176 30 122 95 c 128,-1,46
 68 160 68 160 50 274 c 128,-1,47
 32 388 32 388 56 538 c 0,11,12
282 538 m 0,48,49
 252 362 252 362 301 265 c 128,-1,50
 350 168 350 168 456 168 c 0,51,52
 558 168 558 168 639 266 c 128,-1,53
 720 364 720 364 748 538 c 0,54,55
 776 702 776 702 730 804 c 128,-1,56
 684 906 684 906 580 906 c 0,57,58
 468 906 468 906 389 807 c 128,-1,59
 310 708 310 708 282 538 c 0,48,49
EndSplineSet
EndChar

StartChar: uni0222
Encoding: 546 546 484
Width: 1380
GlyphClass: 2
Flags: W
LayerCount: 2
Fore
SplineSet
54 486 m 0,0,1
 76 620 76 620 168 737 c 128,-1,2
 260 854 260 854 404 930 c 1,3,4
 200 1040 200 1040 242 1288 c 0,5,6
 260 1400 260 1400 300 1470 c 1,7,-1
 536 1470 l 1,8,9
 510 1404 510 1404 492 1302 c 0,10,11
 474 1190 474 1190 547 1104 c 128,-1,12
 620 1018 620 1018 768 1018 c 0,13,14
 912 1018 912 1018 1012 1103 c 128,-1,15
 1112 1188 1112 1188 1132 1302 c 0,16,17
 1144 1380 1144 1380 1144 1470 c 1,18,-1
 1380 1470 l 1,19,20
 1398 1400 1398 1400 1380 1288 c 0,21,22
 1338 1038 1338 1038 1098 930 c 1,23,24
 1220 858 1220 858 1272 739 c 128,-1,25
 1324 620 1324 620 1302 486 c 0,26,27
 1286 392 1286 392 1236 304 c 128,-1,28
 1186 216 1186 216 1101 138 c 128,-1,29
 1016 60 1016 60 884 13 c 128,-1,30
 752 -34 752 -34 592 -34 c 256,31,32
 434 -34 434 -34 317 13 c 128,-1,33
 200 60 200 60 141 138 c 128,-1,34
 82 216 82 216 60 304 c 128,-1,35
 38 392 38 392 54 486 c 0,0,1
302 486 m 0,36,37
 278 344 278 344 369 259 c 128,-1,38
 460 174 460 174 628 174 c 0,39,40
 790 174 790 174 909 260 c 128,-1,41
 1028 346 1028 346 1052 486 c 256,42,43
 1076 626 1076 626 983 715 c 128,-1,44
 890 804 890 804 732 804 c 256,45,46
 574 804 574 804 450 717 c 128,-1,47
 326 630 326 630 302 486 c 0,36,37
EndSplineSet
EndChar

StartChar: uni0223
Encoding: 547 547 485
Width: 1048
GlyphClass: 2
Flags: W
LayerCount: 2
Fore
SplineSet
48 492 m 0,0,1
 74 650 74 650 155 768 c 128,-1,2
 236 886 236 886 348 938 c 1,3,4
 180 1042 180 1042 224 1300 c 0,5,6
 242 1404 242 1404 282 1486 c 1,7,-1
 500 1486 l 1,8,9
 462 1368 462 1368 452 1316 c 0,10,11
 432 1194 432 1194 463 1111 c 128,-1,12
 494 1028 494 1028 600 1028 c 0,13,14
 702 1028 702 1028 763 1111 c 128,-1,15
 824 1194 824 1194 844 1316 c 0,16,17
 852 1368 852 1368 854 1486 c 1,18,-1
 1070 1486 l 1,19,20
 1084 1406 1084 1406 1066 1300 c 0,21,22
 1022 1036 1022 1036 822 938 c 1,23,24
 918 888 918 888 959 769 c 128,-1,25
 1000 650 1000 650 974 492 c 0,26,27
 962 416 962 416 935 344 c 128,-1,28
 908 272 908 272 862 202 c 128,-1,29
 816 132 816 132 755 81 c 128,-1,30
 694 30 694 30 610 -2 c 128,-1,31
 526 -34 526 -34 424 -34 c 0,32,33
 326 -34 326 -34 251 -2 c 128,-1,34
 176 30 176 30 132 81 c 128,-1,35
 88 132 88 132 64 201 c 128,-1,36
 40 270 40 270 38 342 c 128,-1,37
 36 414 36 414 48 492 c 0,0,1
274 492 m 0,38,39
 250 348 250 348 301 258 c 128,-1,40
 352 168 352 168 458 168 c 256,41,42
 564 168 564 168 644 257 c 128,-1,43
 724 346 724 346 750 492 c 0,44,45
 774 636 774 636 724 731 c 128,-1,46
 674 826 674 826 568 826 c 0,47,48
 464 826 464 826 381 733 c 128,-1,49
 298 640 298 640 274 492 c 0,38,39
EndSplineSet
EndChar

StartChar: uni0224
Encoding: 548 548 486
Width: 1180
GlyphClass: 2
Flags: W
LayerCount: 2
Fore
SplineSet
-36 0 m 1,0,-1
 -6 176 l 1,1,-1
 920 1260 l 1,2,-1
 232 1260 l 1,3,-1
 266 1470 l 1,4,-1
 1250 1470 l 1,5,-1
 1220 1288 l 1,6,-1
 294 208 l 1,7,-1
 824 208 l 2,8,9
 1164 208 1164 208 1100 -170 c 0,10,11
 1078 -304 1078 -304 1000 -438 c 1,12,-1
 782 -438 l 1,13,14
 864 -312 864 -312 882 -202 c 0,15,16
 896 -118 896 -118 861 -59 c 128,-1,17
 826 0 826 0 728 0 c 2,18,-1
 -36 0 l 1,0,-1
EndSplineSet
EndChar

StartChar: uni0225
Encoding: 549 549 487
Width: 914
GlyphClass: 2
Flags: W
LayerCount: 2
Fore
SplineSet
-50 0 m 1,0,-1
 -24 156 l 1,1,-1
 622 876 l 1,2,-1
 136 876 l 1,3,-1
 170 1074 l 1,4,-1
 944 1074 l 1,5,-1
 920 928 l 1,6,-1
 272 200 l 1,7,-1
 646 200 l 2,8,9
 958 200 958 200 898 -166 c 0,10,11
 870 -340 870 -340 814 -438 c 1,12,-1
 618 -438 l 1,13,14
 674 -352 674 -352 698 -206 c 0,15,16
 714 -104 714 -104 684 -52 c 128,-1,17
 654 0 654 0 562 0 c 2,18,-1
 -50 0 l 1,0,-1
EndSplineSet
EndChar

StartChar: uni0234
Encoding: 564 564 502
Width: 776
GlyphClass: 2
Flags: W
LayerCount: 2
Fore
SplineSet
260 -164 m 1,0,1
 262 -210 262 -210 294 -243 c 128,-1,2
 326 -276 326 -276 378 -276 c 0,3,4
 424 -276 424 -276 453 -252 c 128,-1,5
 482 -228 482 -228 488 -194 c 0,6,7
 494 -154 494 -154 469 -127 c 128,-1,8
 444 -100 444 -100 402 -100 c 0,9,10
 326 -100 326 -100 260 -164 c 1,0,1
-92 -376 m 1,11,12
 -2 -222 -2 -222 44 -164 c 1,13,14
 26 -82 26 -82 52 70 c 2,15,-1
 292 1518 l 1,16,-1
 514 1518 l 1,17,-1
 282 124 l 2,18,19
 270 54 270 54 268 20 c 1,20,21
 346 74 346 74 436 74 c 0,22,23
 560 74 560 74 625 -1 c 128,-1,24
 690 -76 690 -76 672 -186 c 0,25,26
 652 -304 652 -304 566 -375 c 128,-1,27
 480 -446 480 -446 352 -446 c 0,28,29
 212 -446 212 -446 140 -340 c 1,30,31
 100 -394 100 -394 76 -448 c 1,32,-1
 -92 -376 l 1,11,12
EndSplineSet
EndChar

StartChar: uni0235
Encoding: 565 565 503
Width: 1368
GlyphClass: 2
Flags: W
LayerCount: 2
Fore
SplineSet
850 -164 m 1,0,1
 854 -212 854 -212 887 -244 c 128,-1,2
 920 -276 920 -276 970 -276 c 0,3,4
 1014 -276 1014 -276 1043 -252 c 128,-1,5
 1072 -228 1072 -228 1078 -192 c 256,6,7
 1084 -156 1084 -156 1061 -128 c 128,-1,8
 1038 -100 1038 -100 992 -100 c 0,9,10
 916 -100 916 -100 850 -164 c 1,0,1
22 0 m 1,11,-1
 200 1072 l 1,12,-1
 412 1072 l 1,13,-1
 390 936 l 1,14,-1
 392 936 l 1,15,16
 430 998 430 998 511 1051 c 128,-1,17
 592 1104 592 1104 702 1104 c 0,18,19
 1034 1104 1034 1104 964 690 c 2,20,-1
 870 118 l 2,21,22
 866 98 866 98 864 80 c 0,23,24
 858 46 858 46 856 22 c 1,25,26
 930 74 930 74 1024 74 c 0,27,28
 1148 74 1148 74 1214 0 c 128,-1,29
 1280 -74 1280 -74 1262 -186 c 0,30,31
 1242 -304 1242 -304 1155 -375 c 128,-1,32
 1068 -446 1068 -446 938 -446 c 256,33,34
 808 -446 808 -446 732 -338 c 1,35,36
 684 -414 684 -414 666 -448 c 1,37,-1
 498 -376 l 1,38,39
 554 -266 554 -266 634 -164 c 1,40,41
 616 -78 616 -78 642 74 c 2,42,-1
 740 660 l 2,43,44
 780 906 780 906 620 906 c 0,45,46
 524 906 524 906 445 823 c 128,-1,47
 366 740 366 740 346 620 c 2,48,-1
 244 0 l 1,49,-1
 22 0 l 1,11,-1
EndSplineSet
EndChar

StartChar: uni0236
Encoding: 566 566 504
Width: 838
GlyphClass: 2
Flags: W
LayerCount: 2
Fore
SplineSet
312 -164 m 1,0,1
 314 -206 314 -206 347 -241 c 128,-1,2
 380 -276 380 -276 432 -276 c 0,3,4
 480 -276 480 -276 509 -251 c 128,-1,5
 538 -226 538 -226 542 -194 c 0,6,7
 548 -160 548 -160 526 -130 c 128,-1,8
 504 -100 504 -100 456 -100 c 0,9,10
 378 -100 378 -100 312 -164 c 1,0,1
82 872 m 1,11,-1
 114 1072 l 1,12,-1
 270 1072 l 1,13,-1
 322 1390 l 1,14,-1
 544 1390 l 1,15,-1
 492 1072 l 1,16,-1
 724 1072 l 1,17,-1
 690 872 l 1,18,-1
 458 872 l 1,19,-1
 318 22 l 1,20,21
 394 74 394 74 490 74 c 0,22,23
 616 74 616 74 679 -1 c 128,-1,24
 742 -76 742 -76 724 -186 c 0,25,26
 704 -304 704 -304 618 -375 c 128,-1,27
 532 -446 532 -446 406 -446 c 0,28,29
 268 -446 268 -446 194 -340 c 1,30,31
 146 -414 146 -414 130 -448 c 1,32,-1
 -38 -376 l 1,33,34
 52 -216 52 -216 98 -164 c 1,35,36
 80 -80 80 -80 106 76 c 2,37,-1
 238 872 l 1,38,-1
 82 872 l 1,11,-1
EndSplineSet
EndChar

StartChar: uni0237
Encoding: 567 567 505
Width: 506
GlyphClass: 2
Flags: W
LayerCount: 2
Fore
SplineSet
-154 -226 m 1,0,-1
 -118 -226 l 2,1,2
 -50 -226 -50 -226 -7 -177 c 128,-1,3
 36 -128 36 -128 54 -18 c 2,4,-1
 234 1072 l 1,5,-1
 458 1072 l 1,6,-1
 276 -28 l 2,7,8
 244 -224 244 -224 143 -326 c 128,-1,9
 42 -428 42 -428 -114 -428 c 2,10,-1
 -186 -428 l 1,11,-1
 -154 -226 l 1,0,-1
EndSplineSet
EndChar

StartChar: uni0238
Encoding: 568 568 506
Width: 1718
GlyphClass: 2
Flags: W
LayerCount: 2
Fore
SplineSet
56 538 m 0,0,1
 100 804 100 804 248 954 c 128,-1,2
 396 1104 396 1104 580 1104 c 0,3,4
 668 1104 668 1104 728 1058 c 128,-1,5
 788 1012 788 1012 812 952 c 1,6,-1
 906 1518 l 1,7,-1
 1128 1518 l 1,8,-1
 1036 954 l 1,9,10
 1156 1104 1156 1104 1318 1104 c 0,11,12
 1508 1104 1508 1104 1603 954 c 128,-1,13
 1698 804 1698 804 1654 538 c 0,14,15
 1628 386 1628 386 1570 271 c 128,-1,16
 1512 156 1512 156 1436 92 c 128,-1,17
 1360 28 1360 28 1283 -3 c 128,-1,18
 1206 -34 1206 -34 1130 -34 c 0,19,20
 1036 -34 1036 -34 976 17 c 128,-1,21
 916 68 916 68 898 136 c 1,22,-1
 876 0 l 1,23,-1
 658 0 l 1,24,-1
 680 138 l 1,25,26
 634 66 634 66 557 16 c 128,-1,27
 480 -34 480 -34 390 -34 c 0,28,29
 314 -34 314 -34 247 -3 c 128,-1,30
 180 28 180 28 126 91 c 128,-1,31
 72 154 72 154 51 269 c 128,-1,32
 30 384 30 384 56 538 c 0,0,1
282 538 m 0,33,34
 252 358 252 358 302 263 c 128,-1,35
 352 168 352 168 456 168 c 256,36,37
 560 168 560 168 640 266 c 128,-1,38
 720 364 720 364 746 524 c 2,39,-1
 748 536 l 2,40,41
 774 696 774 696 729 801 c 128,-1,42
 684 906 684 906 578 906 c 256,43,44
 472 906 472 906 391 809 c 128,-1,45
 310 712 310 712 282 538 c 0,33,34
960 522 m 2,46,47
 934 366 934 366 982 267 c 128,-1,48
 1030 168 1030 168 1132 168 c 256,49,50
 1234 168 1234 168 1315 263 c 128,-1,51
 1396 358 1396 358 1426 538 c 0,52,53
 1454 708 1454 708 1407 807 c 128,-1,54
 1360 906 1360 906 1256 906 c 0,55,56
 1150 906 1150 906 1069 801 c 128,-1,57
 988 696 988 696 962 534 c 2,58,-1
 960 522 l 2,46,47
EndSplineSet
EndChar

StartChar: uni0239
Encoding: 569 569 507
Width: 1720
GlyphClass: 2
Flags: W
LayerCount: 2
Fore
SplineSet
56 538 m 0,0,1
 100 800 100 800 246 952 c 128,-1,2
 392 1104 392 1104 580 1104 c 0,3,4
 748 1104 748 1104 814 944 c 1,5,-1
 834 1072 l 1,6,-1
 1054 1072 l 1,7,-1
 1034 946 l 1,8,9
 1146 1104 1146 1104 1322 1104 c 0,10,11
 1512 1104 1512 1104 1605 952 c 128,-1,12
 1698 800 1698 800 1656 538 c 0,13,14
 1632 390 1632 390 1575 276 c 128,-1,15
 1518 162 1518 162 1444 97 c 128,-1,16
 1370 32 1370 32 1292 -1 c 128,-1,17
 1214 -34 1214 -34 1132 -34 c 0,18,19
 1034 -34 1034 -34 976 16 c 128,-1,20
 918 66 918 66 900 134 c 1,21,-1
 804 -438 l 1,22,-1
 582 -438 l 1,23,-1
 678 132 l 1,24,25
 632 66 632 66 556 16 c 128,-1,26
 480 -34 480 -34 390 -34 c 0,27,28
 308 -34 308 -34 241 -1 c 128,-1,29
 174 32 174 32 121 97 c 128,-1,30
 68 162 68 162 50 276 c 128,-1,31
 32 390 32 390 56 538 c 0,0,1
280 538 m 0,32,33
 250 362 250 362 299 265 c 128,-1,34
 348 168 348 168 454 168 c 0,35,36
 564 168 564 168 642 266 c 128,-1,37
 720 364 720 364 748 538 c 2,38,-1
 750 548 l 2,39,40
 776 706 776 706 729 806 c 128,-1,41
 682 906 682 906 576 906 c 0,42,43
 466 906 466 906 386 803 c 128,-1,44
 306 700 306 700 280 538 c 0,32,33
962 538 m 2,45,46
 934 368 934 368 983 268 c 128,-1,47
 1032 168 1032 168 1136 168 c 256,48,49
 1240 168 1240 168 1319 264 c 128,-1,50
 1398 360 1398 360 1428 538 c 0,51,52
 1456 704 1456 704 1413 805 c 128,-1,53
 1370 906 1370 906 1258 906 c 0,54,55
 1158 906 1158 906 1074 805 c 128,-1,56
 990 704 990 704 964 550 c 2,57,-1
 962 538 l 2,45,46
EndSplineSet
EndChar

StartChar: uni023A
Encoding: 570 570 508
Width: 1290
GlyphClass: 2
Flags: W
LayerCount: 2
Fore
SplineSet
428 562 m 1,0,-1
 484 562 l 1,1,-1
 798 960 l 1,2,3
 774 1130 774 1130 762 1234 c 1,4,-1
 750 1234 l 1,5,6
 676 1068 676 1068 616 942 c 2,7,-1
 428 562 l 1,0,-1
654 562 m 1,8,-1
 862 562 l 1,9,-1
 828 780 l 1,10,-1
 654 562 l 1,8,-1
-102 0 m 1,11,-1
 664 1470 l 1,12,-1
 928 1470 l 1,13,-1
 982 1188 l 1,14,-1
 1276 1562 l 1,15,-1
 1446 1562 l 1,16,-1
 1014 1016 l 1,17,-1
 1204 0 l 1,18,-1
 950 0 l 1,19,-1
 890 364 l 1,20,-1
 498 364 l 1,21,-1
 60 -190 l 1,22,-1
 -112 -190 l 1,23,-1
 40 0 l 1,24,-1
 -102 0 l 1,11,-1
EndSplineSet
EndChar

StartChar: uni023B
Encoding: 571 571 509
Width: 1290
GlyphClass: 2
Flags: W
LayerCount: 2
Fore
SplineSet
98 736 m 0,0,1
 156 1082 156 1082 365 1293 c 128,-1,2
 574 1504 574 1504 864 1504 c 0,3,4
 964 1504 964 1504 1054 1468 c 1,5,-1
 1108 1578 l 1,6,-1
 1284 1578 l 1,7,-1
 1182 1382 l 1,8,9
 1282 1294 1282 1294 1314 1148 c 1,10,-1
 1096 1080 l 1,11,12
 1082 1120 1082 1120 1058 1154 c 1,13,-1
 548 194 l 1,14,15
 588 176 588 176 644 176 c 0,16,17
 762 176 762 176 860 249 c 128,-1,18
 958 322 958 322 1012 420 c 1,19,-1
 1220 352 l 1,20,21
 1182 286 1182 286 1132 228 c 128,-1,22
 1082 170 1082 170 1006 106 c 128,-1,23
 930 42 930 42 828 4 c 128,-1,24
 726 -34 726 -34 610 -34 c 0,25,26
 512 -34 512 -34 440 -10 c 1,27,-1
 384 -116 l 1,28,-1
 208 -116 l 1,29,-1
 300 56 l 1,30,31
 166 152 166 152 112 326 c 128,-1,32
 58 500 58 500 98 736 c 0,0,1
420 280 m 1,33,-1
 948 1268 l 1,34,35
 892 1294 892 1294 828 1294 c 0,36,37
 644 1294 644 1294 515 1138 c 128,-1,38
 386 982 386 982 346 736 c 0,39,40
 296 434 296 434 420 280 c 1,33,-1
EndSplineSet
EndChar

StartChar: uni023C
Encoding: 572 572 510
Width: 972
GlyphClass: 2
Flags: W
LayerCount: 2
Fore
SplineSet
56 538 m 0,0,1
 96 784 96 784 248 944 c 128,-1,2
 400 1104 400 1104 624 1104 c 0,3,4
 686 1104 686 1104 742 1084 c 1,5,-1
 804 1206 l 1,6,-1
 960 1206 l 1,7,-1
 856 1008 l 1,8,9
 894 976 894 976 922 914 c 128,-1,10
 950 852 950 852 952 788 c 1,11,-1
 766 734 l 1,12,13
 760 766 760 766 744 794 c 1,14,-1
 426 170 l 1,15,16
 438 168 438 168 464 168 c 0,17,18
 610 168 610 168 716 354 c 1,19,-1
 894 298 l 1,20,21
 844 178 844 178 718 72 c 128,-1,22
 592 -34 592 -34 430 -34 c 0,23,24
 372 -34 372 -34 324 -22 c 1,25,-1
 278 -116 l 1,26,-1
 122 -116 l 1,27,-1
 200 34 l 1,28,29
 100 106 100 106 65 243 c 128,-1,30
 30 380 30 380 56 538 c 0,0,1
318 262 m 1,31,-1
 640 892 l 1,32,33
 622 904 622 904 586 904 c 0,34,35
 470 904 470 904 389 800 c 128,-1,36
 308 696 308 696 282 538 c 0,37,38
 252 362 252 362 318 262 c 1,31,-1
EndSplineSet
EndChar

StartChar: uni023D
Encoding: 573 573 511
Width: 1070
GlyphClass: 2
Flags: W
LayerCount: 2
Fore
SplineSet
38 730 m 1,0,-1
 70 924 l 1,1,-1
 220 924 l 1,2,-1
 312 1470 l 1,3,-1
 550 1470 l 1,4,-1
 460 924 l 1,5,-1
 818 924 l 1,6,-1
 786 730 l 1,7,-1
 428 730 l 1,8,-1
 342 208 l 1,9,-1
 994 208 l 1,10,-1
 960 0 l 1,11,-1
 68 0 l 1,12,-1
 188 730 l 1,13,-1
 38 730 l 1,0,-1
EndSplineSet
EndChar

StartChar: uni023E
Encoding: 574 574 512
Width: 1108
GlyphClass: 2
Flags: W
LayerCount: 2
Fore
SplineSet
788 1260 m 1,0,-1
 748 1016 l 1,1,-1
 918 1260 l 1,2,-1
 788 1260 l 1,0,-1
132 1260 m 1,3,-1
 168 1470 l 1,4,-1
 1068 1470 l 1,5,-1
 1144 1578 l 1,6,-1
 1306 1578 l 1,7,-1
 1230 1470 l 1,8,-1
 1238 1470 l 1,9,-1
 1202 1260 l 1,10,-1
 1082 1260 l 1,11,-1
 698 714 l 1,12,-1
 578 0 l 1,13,-1
 340 0 l 1,14,-1
 384 270 l 1,15,-1
 126 -96 l 1,16,-1
 -36 -96 l 1,17,-1
 434 572 l 1,18,-1
 548 1260 l 1,19,-1
 132 1260 l 1,3,-1
EndSplineSet
EndChar

StartChar: uni023F
Encoding: 575 575 513
Width: 922
GlyphClass: 2
Flags: W
LayerCount: 2
Fore
SplineSet
-14 224 m 1,0,-1
 162 322 l 1,1,2
 238 158 238 158 410 158 c 0,3,4
 488 158 488 158 544 192 c 128,-1,5
 600 226 600 226 610 284 c 0,6,7
 614 312 614 312 605 335 c 128,-1,8
 596 358 596 358 580 374 c 128,-1,9
 564 390 564 390 531 407 c 128,-1,10
 498 424 498 424 474 433 c 128,-1,11
 450 442 450 442 408 457 c 128,-1,12
 366 472 366 472 344 482 c 0,13,14
 224 530 224 530 163 598 c 128,-1,15
 102 666 102 666 122 790 c 0,16,17
 146 936 146 936 273 1020 c 128,-1,18
 400 1104 400 1104 562 1104 c 0,19,20
 696 1104 696 1104 791 1035 c 128,-1,21
 886 966 886 966 924 858 c 1,22,-1
 762 764 l 1,23,24
 678 914 678 914 528 914 c 0,25,26
 452 914 452 914 403 879 c 128,-1,27
 354 844 354 844 346 786 c 0,28,29
 328 678 328 678 514 622 c 0,30,31
 584 600 584 600 636 576 c 128,-1,32
 688 552 688 552 743 513 c 128,-1,33
 798 474 798 474 822 415 c 128,-1,34
 846 356 846 356 834 284 c 0,35,36
 812 146 812 146 690 56 c 128,-1,37
 568 -34 568 -34 376 -34 c 0,38,39
 282 -34 282 -34 212 -2 c 1,40,41
 230 -146 230 -146 250 -186 c 0,42,43
 290 -278 290 -278 404 -278 c 0,44,45
 476 -278 476 -278 520 -268 c 1,46,-1
 492 -434 l 1,47,48
 412 -446 412 -446 366 -446 c 0,49,50
 286 -446 286 -446 228 -418 c 128,-1,51
 170 -390 170 -390 137 -351 c 128,-1,52
 104 -312 104 -312 82 -249 c 128,-1,53
 60 -186 60 -186 55 -137 c 128,-1,54
 50 -88 50 -88 46 -18 c 0,55,56
 38 144 38 144 -14 224 c 1,0,-1
EndSplineSet
EndChar

StartChar: uni0240
Encoding: 576 576 514
Width: 924
GlyphClass: 2
Flags: W
LayerCount: 2
Fore
SplineSet
-50 0 m 1,0,-1
 -24 156 l 1,1,-1
 620 872 l 1,2,-1
 136 872 l 1,3,-1
 168 1072 l 1,4,-1
 944 1072 l 1,5,-1
 920 926 l 1,6,-1
 230 154 l 1,7,8
 288 140 288 140 334 92 c 128,-1,9
 380 44 380 44 410 -11 c 128,-1,10
 440 -66 440 -66 469 -120 c 128,-1,11
 498 -174 498 -174 540 -210 c 128,-1,12
 582 -246 582 -246 634 -246 c 0,13,14
 698 -246 698 -246 752 -236 c 1,15,-1
 720 -432 l 1,16,17
 666 -446 666 -446 588 -446 c 0,18,19
 502 -446 502 -446 441 -402 c 128,-1,20
 380 -358 380 -358 341 -296 c 128,-1,21
 302 -234 302 -234 269 -170 c 128,-1,22
 236 -106 236 -106 187 -57 c 128,-1,23
 138 -8 138 -8 74 0 c 1,24,-1
 -50 0 l 1,0,-1
EndSplineSet
EndChar

StartChar: uni0241
Encoding: 577 577 515
Width: 1128
GlyphClass: 2
Flags: W
LayerCount: 2
Fore
SplineSet
198 1142 m 1,0,1
 266 1300 266 1300 410 1402 c 128,-1,2
 554 1504 554 1504 732 1504 c 0,3,4
 924 1504 924 1504 1028 1389 c 128,-1,5
 1132 1274 1132 1274 1102 1088 c 0,6,7
 1088 998 1088 998 1041 926 c 128,-1,8
 994 854 994 854 937 803 c 128,-1,9
 880 752 880 752 823 704 c 128,-1,10
 766 656 766 656 721 594 c 128,-1,11
 676 532 676 532 664 458 c 2,12,-1
 588 0 l 1,13,-1
 348 0 l 1,14,-1
 428 478 l 2,15,16
 442 564 442 564 489 638 c 128,-1,17
 536 712 536 712 591 762 c 128,-1,18
 646 812 646 812 701 859 c 128,-1,19
 756 906 756 906 800 967 c 128,-1,20
 844 1028 844 1028 856 1096 c 0,21,22
 870 1186 870 1186 825 1241 c 128,-1,23
 780 1296 780 1296 698 1296 c 0,24,25
 610 1296 610 1296 533 1238 c 128,-1,26
 456 1180 456 1180 404 1076 c 1,27,-1
 198 1142 l 1,0,1
EndSplineSet
EndChar

StartChar: uni0250
Encoding: 592 592 516
Width: 1026
GlyphClass: 2
Flags: W
LayerCount: 2
Fore
SplineSet
324 540 m 1,0,1
 430 566 430 566 526 582 c 0,2,3
 642 602 642 602 705 647 c 128,-1,4
 768 692 768 692 780 770 c 0,5,6
 790 828 790 828 751 868 c 128,-1,7
 712 908 712 908 638 908 c 0,8,9
 536 908 536 908 449 834 c 128,-1,10
 362 760 362 760 342 650 c 2,11,-1
 324 540 l 1,0,1
80 406 m 2,12,-1
 190 1072 l 1,13,-1
 406 1072 l 1,14,-1
 382 938 l 1,15,16
 420 1002 420 1002 508 1053 c 128,-1,17
 596 1104 596 1104 704 1104 c 0,18,19
 866 1104 866 1104 950 1018 c 128,-1,20
 1034 932 1034 932 1010 790 c 0,21,22
 960 486 960 486 504 418 c 0,23,24
 382 400 382 400 296 376 c 0,25,26
 294 368 294 368 291 344 c 128,-1,27
 288 320 288 320 286 312 c 0,28,29
 274 240 274 240 321 196 c 128,-1,30
 368 152 368 152 454 152 c 0,31,32
 620 152 620 152 766 298 c 1,33,-1
 882 174 l 1,34,35
 786 74 786 74 666 20 c 128,-1,36
 546 -34 546 -34 426 -34 c 0,37,38
 204 -34 204 -34 125 81 c 128,-1,39
 46 196 46 196 80 406 c 2,12,-1
EndSplineSet
EndChar

StartChar: uni0251
Encoding: 593 593 517
Width: 1082
GlyphClass: 2
Flags: W
LayerCount: 2
Fore
SplineSet
282 538 m 0,0,1
 252 358 252 358 302 263 c 128,-1,2
 352 168 352 168 456 168 c 0,3,4
 544 168 544 168 628 259 c 128,-1,5
 712 350 712 350 742 538 c 0,6,7
 770 702 770 702 725 804 c 128,-1,8
 680 906 680 906 576 906 c 0,9,10
 470 906 470 906 390 807 c 128,-1,11
 310 708 310 708 282 538 c 0,0,1
56 538 m 0,12,13
 100 800 100 800 245 952 c 128,-1,14
 390 1104 390 1104 578 1104 c 0,15,16
 666 1104 666 1104 725 1057 c 128,-1,17
 784 1010 784 1010 808 954 c 1,18,-1
 828 1072 l 1,19,-1
 1048 1072 l 1,20,-1
 870 0 l 1,21,-1
 656 0 l 1,22,-1
 678 140 l 1,23,24
 634 68 634 68 555 17 c 128,-1,25
 476 -34 476 -34 386 -34 c 0,26,27
 308 -34 308 -34 240 -1 c 128,-1,28
 172 32 172 32 120 97 c 128,-1,29
 68 162 68 162 50 275 c 128,-1,30
 32 388 32 388 56 538 c 0,12,13
EndSplineSet
EndChar

StartChar: uni0252
Encoding: 594 594 518
Width: 1082
GlyphClass: 2
Flags: W
LayerCount: 2
Fore
SplineSet
28 0 m 1,0,-1
 206 1072 l 1,1,-1
 424 1072 l 1,2,-1
 404 952 l 1,3,4
 526 1104 526 1104 688 1104 c 0,5,6
 876 1104 876 1104 970 952 c 128,-1,7
 1064 800 1064 800 1020 538 c 0,8,9
 994 386 994 386 937 272 c 128,-1,10
 880 158 880 158 806 94 c 128,-1,11
 732 30 732 30 655 -2 c 128,-1,12
 578 -34 578 -34 502 -34 c 0,13,14
 408 -34 408 -34 347 18 c 128,-1,15
 286 70 286 70 266 138 c 1,16,-1
 244 0 l 1,17,-1
 28 0 l 1,0,-1
334 538 m 0,18,19
 306 366 306 366 353 267 c 128,-1,20
 400 168 400 168 500 168 c 0,21,22
 604 168 604 168 684 264 c 128,-1,23
 764 360 764 360 794 538 c 0,24,25
 822 708 822 708 775 807 c 128,-1,26
 728 906 728 906 622 906 c 0,27,28
 518 906 518 906 440 804 c 128,-1,29
 362 702 362 702 334 538 c 0,18,19
EndSplineSet
EndChar

StartChar: uni0253
Encoding: 595 595 519
Width: 1094
GlyphClass: 2
Flags: W
LayerCount: 2
Fore
SplineSet
336 538 m 0,0,1
 308 366 308 366 355 267 c 128,-1,2
 402 168 402 168 510 168 c 0,3,4
 614 168 614 168 693 264 c 128,-1,5
 772 360 772 360 802 538 c 0,6,7
 830 704 830 704 785 805 c 128,-1,8
 740 906 740 906 632 906 c 0,9,10
 526 906 526 906 445 805 c 128,-1,11
 364 704 364 704 336 538 c 0,0,1
32 0 m 1,12,-1
 226 1178 l 2,13,14
 256 1362 256 1362 369 1461 c 128,-1,15
 482 1560 482 1560 644 1560 c 0,16,17
 698 1560 698 1560 836 1542 c 1,18,-1
 798 1334 l 1,19,20
 682 1350 682 1350 646 1350 c 0,21,22
 566 1350 566 1350 510 1293 c 128,-1,23
 454 1236 454 1236 438 1136 c 2,24,-1
 408 952 l 1,25,26
 458 1018 458 1018 533 1061 c 128,-1,27
 608 1104 608 1104 694 1104 c 0,28,29
 886 1104 886 1104 979 951 c 128,-1,30
 1072 798 1072 798 1030 538 c 0,31,32
 984 258 984 258 833 112 c 128,-1,33
 682 -34 682 -34 508 -34 c 0,34,35
 412 -34 412 -34 353 18 c 128,-1,36
 294 70 294 70 268 138 c 1,37,-1
 246 0 l 1,38,-1
 32 0 l 1,12,-1
EndSplineSet
EndChar

StartChar: uni0254
Encoding: 596 596 520
Width: 970
GlyphClass: 2
Flags: W
LayerCount: 2
Fore
SplineSet
-10 298 m 1,0,-1
 188 354 l 1,1,2
 198 280 198 280 248 224 c 128,-1,3
 298 168 298 168 374 168 c 0,4,5
 480 168 480 168 565 264 c 128,-1,6
 650 360 650 360 680 536 c 0,7,8
 706 696 706 696 660 801 c 128,-1,9
 614 906 614 906 498 906 c 0,10,11
 428 906 428 906 368 854 c 128,-1,12
 308 802 308 802 274 732 c 1,13,-1
 96 788 l 1,14,15
 142 910 142 910 262 1007 c 128,-1,16
 382 1104 382 1104 532 1104 c 0,17,18
 742 1104 742 1104 846 950 c 128,-1,19
 950 796 950 796 906 536 c 256,20,21
 862 276 862 276 708 121 c 128,-1,22
 554 -34 554 -34 344 -34 c 0,23,24
 192 -34 192 -34 96 66 c 128,-1,25
 0 166 0 166 -10 298 c 1,0,-1
EndSplineSet
EndChar

StartChar: uni0255
Encoding: 597 597 521
Width: 972
GlyphClass: 2
Flags: W
LayerCount: 2
Fore
SplineSet
424 164 m 1,0,1
 472 134 472 134 534 134 c 256,2,3
 596 134 596 134 636 158 c 128,-1,4
 676 182 676 182 682 218 c 0,5,6
 688 250 688 250 666 268 c 128,-1,7
 644 286 644 286 606 286 c 0,8,9
 500 286 500 286 424 164 c 1,0,1
58 550 m 0,10,11
 96 784 96 784 247 944 c 128,-1,12
 398 1104 398 1104 618 1104 c 0,13,14
 772 1104 772 1104 856 1005 c 128,-1,15
 940 906 940 906 948 788 c 1,16,-1
 752 732 l 1,17,18
 742 802 742 802 702 854 c 128,-1,19
 662 906 662 906 586 906 c 0,20,21
 472 906 472 906 390 801 c 128,-1,22
 308 696 308 696 282 538 c 0,23,24
 256 376 256 376 308 274 c 1,25,26
 368 348 368 348 454 401 c 128,-1,27
 540 454 540 454 642 454 c 0,28,29
 760 454 760 454 822 389 c 128,-1,30
 884 324 884 324 868 220 c 0,31,32
 848 102 848 102 750 34 c 128,-1,33
 652 -34 652 -34 500 -34 c 0,34,35
 398 -34 398 -34 328 -14 c 1,36,37
 292 -88 292 -88 280 -128 c 1,38,-1
 96 -84 l 1,39,40
 118 -14 118 -14 166 66 c 1,41,42
 4 226 4 226 58 550 c 0,10,11
EndSplineSet
EndChar

StartChar: uni0256
Encoding: 598 598 522
Width: 1098
GlyphClass: 2
Flags: W
LayerCount: 2
Fore
SplineSet
56 538 m 0,0,1
 100 804 100 804 248 954 c 128,-1,2
 396 1104 396 1104 582 1104 c 0,3,4
 670 1104 670 1104 730 1059 c 128,-1,5
 790 1014 790 1014 816 954 c 1,6,-1
 908 1518 l 1,7,-1
 1128 1518 l 1,8,-1
 868 -60 l 2,9,10
 838 -238 838 -238 968 -238 c 0,11,12
 1016 -238 1016 -238 1112 -224 c 1,13,-1
 1078 -428 l 1,14,15
 910 -446 910 -446 894 -446 c 0,16,17
 760 -446 760 -446 688 -361 c 128,-1,18
 616 -276 616 -276 648 -74 c 2,19,-1
 684 138 l 1,20,21
 638 66 638 66 560 16 c 128,-1,22
 482 -34 482 -34 392 -34 c 0,23,24
 312 -34 312 -34 244 -2 c 128,-1,25
 176 30 176 30 122 95 c 128,-1,26
 68 160 68 160 50 274 c 128,-1,27
 32 388 32 388 56 538 c 0,0,1
282 538 m 0,28,29
 254 364 254 364 300 266 c 128,-1,30
 346 168 346 168 456 168 c 0,31,32
 558 168 558 168 639 268 c 128,-1,33
 720 368 720 368 748 538 c 0,34,35
 776 702 776 702 731 804 c 128,-1,36
 686 906 686 906 580 906 c 256,37,38
 474 906 474 906 392 808 c 128,-1,39
 310 710 310 710 282 538 c 0,28,29
EndSplineSet
EndChar

StartChar: uni0257
Encoding: 599 599 523
Width: 1098
GlyphClass: 2
Flags: W
LayerCount: 2
Fore
SplineSet
56 538 m 0,0,1
 100 802 100 802 248 954 c 128,-1,2
 396 1106 396 1106 582 1106 c 0,3,4
 670 1106 670 1106 731 1059 c 128,-1,5
 792 1012 792 1012 814 952 c 1,6,-1
 860 1222 l 2,7,8
 888 1386 888 1386 996 1473 c 128,-1,9
 1104 1560 1104 1560 1254 1560 c 0,10,11
 1330 1560 1330 1560 1420 1550 c 1,12,-1
 1386 1342 l 1,13,14
 1340 1350 1340 1350 1258 1350 c 0,15,16
 1190 1350 1190 1350 1138 1303 c 128,-1,17
 1086 1256 1086 1256 1072 1174 c 2,18,-1
 878 0 l 1,19,-1
 660 0 l 1,20,-1
 684 142 l 1,21,22
 642 70 642 70 562 18 c 128,-1,23
 482 -34 482 -34 392 -34 c 0,24,25
 310 -34 310 -34 242 -1 c 128,-1,26
 174 32 174 32 121 97 c 128,-1,27
 68 162 68 162 50 275 c 128,-1,28
 32 388 32 388 56 538 c 0,0,1
282 538 m 0,29,30
 252 358 252 358 300 263 c 128,-1,31
 348 168 348 168 456 168 c 0,32,33
 556 168 556 168 637 265 c 128,-1,34
 718 362 718 362 748 538 c 0,35,36
 776 702 776 702 730 804 c 128,-1,37
 684 906 684 906 580 906 c 0,38,39
 470 906 470 906 390 806 c 128,-1,40
 310 706 310 706 282 538 c 0,29,30
EndSplineSet
EndChar

StartChar: uni0258
Encoding: 600 600 524
Width: 1050
GlyphClass: 2
Flags: W
LayerCount: 2
Fore
SplineSet
44 456 m 1,0,1
 48 486 48 486 58 550 c 0,2,3
 100 800 100 800 256 953 c 128,-1,4
 412 1106 412 1106 608 1106 c 0,5,6
 812 1106 812 1106 920 953 c 128,-1,7
 1028 800 1028 800 986 540 c 0,8,9
 942 276 942 276 781 121 c 128,-1,10
 620 -34 620 -34 408 -34 c 0,11,12
 244 -34 244 -34 147 45 c 128,-1,13
 50 124 50 124 22 244 c 1,14,-1
 216 312 l 1,15,16
 238 244 238 244 295 200 c 128,-1,17
 352 156 352 156 438 156 c 0,18,19
 558 156 558 156 641 242 c 128,-1,20
 724 328 724 328 746 456 c 1,21,-1
 44 456 l 1,0,1
292 620 m 1,22,-1
 772 620 l 1,23,24
 788 744 788 744 739 830 c 128,-1,25
 690 916 690 916 578 916 c 256,26,27
 466 916 466 916 389 830 c 128,-1,28
 312 744 312 744 292 620 c 1,22,-1
EndSplineSet
EndChar

StartChar: uni025A
Encoding: 602 602 526
Width: 1246
GlyphClass: 2
Flags: W
LayerCount: 2
Fore
SplineSet
42 458 m 1,0,-1
 766 768 l 1,1,2
 716 914 716 914 568 914 c 0,3,4
 402 914 402 914 292 758 c 1,5,-1
 116 826 l 1,6,7
 188 948 188 948 312 1026 c 128,-1,8
 436 1104 436 1104 602 1104 c 0,9,10
 740 1104 740 1104 833 1037 c 128,-1,11
 926 970 926 970 964 860 c 1,12,-1
 1128 936 l 1,13,14
 1138 866 1138 866 1173 822 c 128,-1,15
 1208 778 1208 778 1260 778 c 0,16,17
 1318 778 1318 778 1344 790 c 1,18,-1
 1314 604 l 1,19,20
 1260 588 1260 588 1202 588 c 0,21,22
 1146 588 1146 588 1101 617 c 128,-1,23
 1056 646 1056 646 1042 692 c 1,24,-1
 996 670 l 1,25,26
 996 600 996 600 984 534 c 0,27,28
 942 284 942 284 787 125 c 128,-1,29
 632 -34 632 -34 420 -34 c 0,30,31
 310 -34 310 -34 230 12 c 128,-1,32
 150 58 150 58 107 131 c 128,-1,33
 64 204 64 204 48 288 c 128,-1,34
 32 372 32 372 42 458 c 1,0,-1
264 360 m 1,35,36
 266 264 266 264 318 209 c 128,-1,37
 370 154 370 154 452 154 c 0,38,39
 548 154 548 154 621 224 c 128,-1,40
 694 294 694 294 726 408 c 1,41,42
 750 464 750 464 760 526 c 0,43,44
 764 548 764 548 766 572 c 1,45,-1
 264 360 l 1,35,36
EndSplineSet
EndChar

StartChar: uni025B
Encoding: 603 603 527
Width: 932
GlyphClass: 2
Flags: W
LayerCount: 2
Fore
SplineSet
18 308 m 0,0,1
 34 404 34 404 93 470 c 128,-1,2
 152 536 152 536 228 566 c 1,3,4
 110 646 110 646 136 796 c 0,5,6
 158 932 158 932 278 1018 c 128,-1,7
 398 1104 398 1104 572 1104 c 0,8,9
 838 1104 838 1104 926 848 c 1,10,-1
 732 770 l 1,11,12
 708 828 708 828 658 867 c 128,-1,13
 608 906 608 906 542 906 c 0,14,15
 462 906 462 906 415 872 c 128,-1,16
 368 838 368 838 358 778 c 0,17,18
 348 720 348 720 390 681 c 128,-1,19
 432 642 432 642 522 642 c 2,20,-1
 638 642 l 1,21,-1
 608 464 l 1,22,-1
 492 464 l 2,23,24
 378 464 378 464 317 420 c 128,-1,25
 256 376 256 376 244 310 c 0,26,27
 232 240 232 240 288 204 c 128,-1,28
 344 168 344 168 424 168 c 0,29,30
 498 168 498 168 570 206 c 128,-1,31
 642 244 642 244 686 298 c 1,32,-1
 844 216 l 1,33,34
 772 104 772 104 652 35 c 128,-1,35
 532 -34 532 -34 388 -34 c 0,36,37
 204 -34 204 -34 98 57 c 128,-1,38
 -8 148 -8 148 18 308 c 0,0,1
EndSplineSet
EndChar

StartChar: uni025C
Encoding: 604 604 528
Width: 932
GlyphClass: 2
Flags: W
LayerCount: 2
Fore
SplineSet
-26 216 m 1,0,-1
 162 298 l 1,1,2
 186 244 186 244 245 206 c 128,-1,3
 304 168 304 168 378 168 c 0,4,5
 458 168 458 168 526 204 c 128,-1,6
 594 240 594 240 606 310 c 0,7,8
 616 376 616 376 569 420 c 128,-1,9
 522 464 522 464 408 464 c 2,10,-1
 292 464 l 1,11,-1
 322 642 l 1,12,-1
 438 642 l 2,13,14
 528 642 528 642 582 681 c 128,-1,15
 636 720 636 720 646 778 c 0,16,17
 656 838 656 838 620 872 c 128,-1,18
 584 906 584 906 504 906 c 0,19,20
 440 906 440 906 377 867 c 128,-1,21
 314 828 314 828 270 770 c 1,22,-1
 100 848 l 1,23,24
 274 1104 274 1104 540 1104 c 0,25,26
 714 1104 714 1104 806 1018 c 128,-1,27
 898 932 898 932 876 796 c 0,28,29
 852 648 852 648 706 566 c 1,30,-1
 708 566 l 1,31,32
 774 536 774 536 811 470 c 128,-1,33
 848 404 848 404 832 308 c 0,34,35
 806 148 806 148 670 57 c 128,-1,36
 534 -34 534 -34 348 -34 c 0,37,38
 206 -34 206 -34 107 36 c 128,-1,39
 8 106 8 106 -26 216 c 1,0,-1
EndSplineSet
EndChar

StartChar: uni025D
Encoding: 605 605 529
Width: 1110
GlyphClass: 2
Flags: W
LayerCount: 2
Fore
SplineSet
-26 216 m 1,0,-1
 162 298 l 1,1,2
 182 248 182 248 241 208 c 128,-1,3
 300 168 300 168 378 168 c 0,4,5
 470 168 470 168 533 209 c 128,-1,6
 596 250 596 250 606 314 c 0,7,8
 616 380 616 380 568 422 c 128,-1,9
 520 464 520 464 406 464 c 2,10,-1
 292 464 l 1,11,-1
 322 642 l 1,12,-1
 436 642 l 2,13,14
 528 642 528 642 582 681 c 128,-1,15
 636 720 636 720 646 778 c 0,16,17
 668 906 668 906 506 906 c 0,18,19
 374 906 374 906 270 770 c 1,20,-1
 100 848 l 1,21,22
 280 1104 280 1104 540 1104 c 0,23,24
 768 1104 768 1104 848 962 c 1,25,-1
 1010 1052 l 1,26,27
 1020 982 1020 982 1058 933 c 128,-1,28
 1096 884 1096 884 1146 884 c 0,29,30
 1202 884 1202 884 1234 898 c 1,31,-1
 1204 710 l 1,32,33
 1150 694 1150 694 1098 694 c 0,34,35
 1036 694 1036 694 987 725 c 128,-1,36
 938 756 938 756 922 800 c 1,37,-1
 868 774 l 1,38,39
 856 728 856 728 854 724 c 0,40,41
 814 622 814 622 708 568 c 1,42,-1
 708 566 l 1,43,44
 770 536 770 536 810 471 c 128,-1,45
 850 406 850 406 834 312 c 0,46,47
 808 150 808 150 672 58 c 128,-1,48
 536 -34 536 -34 344 -34 c 0,49,50
 202 -34 202 -34 104 37 c 128,-1,51
 6 108 6 108 -26 216 c 1,0,-1
EndSplineSet
EndChar

StartChar: uni025E
Encoding: 606 606 530
Width: 1044
GlyphClass: 2
Flags: W
LayerCount: 2
Fore
SplineSet
282 538 m 0,0,1
 248 336 248 336 315 252 c 128,-1,2
 382 168 382 168 490 168 c 0,3,4
 690 168 690 168 714 310 c 0,5,6
 724 370 724 370 681 414 c 128,-1,7
 638 458 638 458 538 458 c 2,8,-1
 464 458 l 1,9,-1
 494 644 l 1,10,-1
 568 644 l 2,11,12
 648 644 648 644 697 683 c 128,-1,13
 746 722 746 722 756 776 c 0,14,15
 766 840 766 840 726 873 c 128,-1,16
 686 906 686 906 612 906 c 0,17,18
 506 906 506 906 410 817 c 128,-1,19
 314 728 314 728 282 538 c 0,0,1
56 538 m 0,20,21
 82 696 82 696 150 819 c 128,-1,22
 218 942 218 942 345 1023 c 128,-1,23
 472 1104 472 1104 644 1104 c 0,24,25
 804 1104 804 1104 907 1025 c 128,-1,26
 1010 946 1010 946 986 796 c 0,27,28
 972 716 972 716 929 656 c 128,-1,29
 886 596 886 596 830 564 c 1,30,31
 974 488 974 488 944 312 c 0,32,33
 916 138 916 138 777 52 c 128,-1,34
 638 -34 638 -34 456 -34 c 0,35,36
 208 -34 208 -34 111 123 c 128,-1,37
 14 280 14 280 56 538 c 0,20,21
EndSplineSet
EndChar

StartChar: uni025F
Encoding: 607 607 531
Width: 518
GlyphClass: 2
Flags: W
LayerCount: 2
Fore
SplineSet
-44 500 m 1,0,-1
 -12 694 l 1,1,-1
 176 694 l 1,2,-1
 238 1072 l 1,3,-1
 460 1072 l 1,4,-1
 398 694 l 1,5,-1
 572 694 l 1,6,-1
 540 500 l 1,7,-1
 366 500 l 1,8,-1
 278 -28 l 2,9,10
 246 -224 246 -224 145 -326 c 128,-1,11
 44 -428 44 -428 -112 -428 c 2,12,-1
 -184 -428 l 1,13,-1
 -150 -226 l 1,14,-1
 -116 -226 l 2,15,16
 24 -226 24 -226 58 -18 c 2,17,-1
 144 500 l 1,18,-1
 -44 500 l 1,0,-1
EndSplineSet
EndChar

StartChar: uni0260
Encoding: 608 608 532
Width: 1098
GlyphClass: 2
Flags: W
LayerCount: 2
Fore
SplineSet
64 558 m 0,0,1
 106 806 106 806 248 955 c 128,-1,2
 390 1104 390 1104 574 1104 c 0,3,4
 664 1104 664 1104 720 1057 c 128,-1,5
 776 1010 776 1010 796 948 c 1,6,-1
 842 1222 l 2,7,8
 868 1384 868 1384 980 1472 c 128,-1,9
 1092 1560 1092 1560 1242 1560 c 0,10,11
 1276 1560 1276 1560 1412 1550 c 1,12,-1
 1378 1344 l 1,13,14
 1308 1352 1308 1352 1248 1352 c 0,15,16
 1180 1352 1180 1352 1124 1304 c 128,-1,17
 1068 1256 1068 1256 1054 1176 c 2,18,-1
 884 148 l 2,19,20
 836 -136 836 -136 707 -291 c 128,-1,21
 578 -446 578 -446 330 -446 c 0,22,23
 80 -446 80 -446 -28 -238 c 1,24,-1
 134 -130 l 1,25,26
 218 -256 218 -256 366 -256 c 0,27,28
 476 -256 476 -256 549 -169 c 128,-1,29
 622 -82 622 -82 646 52 c 2,30,-1
 666 148 l 1,31,32
 624 88 624 88 550 49 c 128,-1,33
 476 10 476 10 402 10 c 0,34,35
 212 10 212 10 117 158 c 128,-1,36
 22 306 22 306 64 558 c 0,0,1
290 558 m 0,37,38
 262 386 262 386 311 298 c 128,-1,39
 360 210 360 210 454 210 c 0,40,41
 556 210 556 210 629 301 c 128,-1,42
 702 392 702 392 730 560 c 0,43,44
 756 718 756 718 714 812 c 128,-1,45
 672 906 672 906 572 906 c 0,46,47
 474 906 474 906 396 814 c 128,-1,48
 318 722 318 722 290 558 c 0,37,38
EndSplineSet
EndChar

StartChar: uni0262
Encoding: 610 610 534
Width: 1046
GlyphClass: 2
Flags: W
LayerCount: 2
Fore
SplineSet
54 532 m 0,0,1
 98 792 98 792 253 948 c 128,-1,2
 408 1104 408 1104 634 1104 c 0,3,4
 906 1104 906 1104 986 830 c 1,5,-1
 788 748 l 1,6,7
 738 904 738 904 602 904 c 0,8,9
 482 904 482 904 396 805 c 128,-1,10
 310 706 310 706 282 532 c 0,11,12
 254 360 254 360 308 265 c 128,-1,13
 362 170 362 170 478 170 c 0,14,15
 566 170 566 170 631 224 c 128,-1,16
 696 278 696 278 722 372 c 1,17,-1
 732 428 l 1,18,-1
 488 428 l 1,19,-1
 518 608 l 1,20,-1
 968 608 l 1,21,-1
 868 0 l 1,22,-1
 702 0 l 1,23,-1
 710 94 l 1,24,25
 672 42 672 42 594 4 c 128,-1,26
 516 -34 516 -34 432 -34 c 0,27,28
 228 -34 228 -34 119 114 c 128,-1,29
 10 262 10 262 54 532 c 0,0,1
EndSplineSet
EndChar

StartChar: uni0263
Encoding: 611 611 535
Width: 982
GlyphClass: 2
Flags: W
LayerCount: 2
Fore
SplineSet
98 1072 m 1,0,-1
 340 1072 l 1,1,-1
 428 308 l 1,2,-1
 432 234 l 1,3,-1
 436 234 l 1,4,-1
 470 306 l 1,5,-1
 810 1072 l 1,6,-1
 1054 1072 l 1,7,-1
 570 120 l 1,8,9
 680 -10 680 -10 656 -154 c 0,10,11
 636 -280 636 -280 543 -363 c 128,-1,12
 450 -446 450 -446 324 -446 c 0,13,14
 202 -446 202 -446 135 -366 c 128,-1,15
 68 -286 68 -286 88 -154 c 0,16,17
 110 -18 110 -18 264 118 c 1,18,-1
 98 1072 l 1,0,-1
274 -154 m 0,19,20
 266 -206 266 -206 287 -243 c 128,-1,21
 308 -280 308 -280 352 -280 c 0,22,23
 398 -280 398 -280 432 -242 c 128,-1,24
 466 -204 466 -204 474 -154 c 0,25,26
 490 -54 490 -54 404 38 c 1,27,28
 292 -44 292 -44 274 -154 c 0,19,20
EndSplineSet
Substitution2: "'sups' Superscript lookup 5 subtable" uni02E0
Substitution2: "'aalt' Access All Alternates lookup 0 subtable" uni02E0
EndChar

StartChar: uni0264
Encoding: 612 612 536
Width: 916
GlyphClass: 2
Flags: W
LayerCount: 2
Fore
SplineSet
468 628 m 1,0,1
 328 474 328 474 306 336 c 0,2,3
 294 264 294 264 318 216 c 128,-1,4
 342 168 342 168 396 168 c 256,5,6
 450 168 450 168 487 217 c 128,-1,7
 524 266 524 266 536 336 c 0,8,9
 560 480 560 480 468 628 c 1,0,1
82 888 m 1,10,-1
 114 1084 l 1,11,12
 192 1104 192 1104 248 1104 c 0,13,14
 338 1104 338 1104 400 1067 c 128,-1,15
 462 1030 462 1030 522 958 c 1,16,17
 682 1104 682 1104 850 1104 c 0,18,19
 914 1104 914 1104 976 1086 c 1,20,-1
 944 884 l 1,21,22
 888 904 888 904 820 904 c 0,23,24
 740 904 740 904 634 802 c 1,25,26
 714 668 714 668 743 567 c 128,-1,27
 772 466 772 466 750 332 c 0,28,29
 724 170 724 170 621 68 c 128,-1,30
 518 -34 518 -34 362 -34 c 0,31,32
 202 -34 202 -34 135 69 c 128,-1,33
 68 172 68 172 94 332 c 0,34,35
 116 466 116 466 185 573 c 128,-1,36
 254 680 254 680 366 802 c 1,37,38
 290 904 290 904 206 904 c 0,39,40
 190 904 190 904 82 888 c 1,10,-1
EndSplineSet
EndChar

StartChar: uni0265
Encoding: 613 613 537
Width: 1056
GlyphClass: 2
Flags: W
LayerCount: 2
Fore
SplineSet
76 382 m 2,0,-1
 190 1072 l 1,1,-1
 410 1072 l 1,2,-1
 300 408 l 2,3,4
 260 168 260 168 424 168 c 0,5,6
 516 168 516 168 595 255 c 128,-1,7
 674 342 674 342 692 458 c 2,8,-1
 794 1072 l 1,9,-1
 1014 1072 l 1,10,-1
 764 -438 l 1,11,-1
 544 -438 l 1,12,-1
 636 108 l 1,13,-1
 634 108 l 1,14,15
 588 50 588 50 512 8 c 128,-1,16
 436 -34 436 -34 344 -34 c 0,17,18
 294 -34 294 -34 252 -23 c 128,-1,19
 210 -12 210 -12 168 17 c 128,-1,20
 126 46 126 46 102 92 c 128,-1,21
 78 138 78 138 69 212 c 128,-1,22
 60 286 60 286 76 382 c 2,0,-1
EndSplineSet
EndChar

StartChar: uni0266
Encoding: 614 614 538
Width: 1056
GlyphClass: 2
Flags: W
LayerCount: 2
Fore
SplineSet
34 0 m 1,0,-1
 234 1214 l 2,1,2
 262 1380 262 1380 374 1470 c 128,-1,3
 486 1560 486 1560 636 1560 c 0,4,5
 708 1560 708 1560 826 1548 c 1,6,-1
 790 1342 l 1,7,8
 734 1350 734 1350 640 1350 c 0,9,10
 566 1350 566 1350 513 1299 c 128,-1,11
 460 1248 460 1248 448 1170 c 2,12,-1
 412 962 l 1,13,-1
 414 962 l 1,14,15
 540 1104 540 1104 702 1104 c 0,16,17
 766 1104 766 1104 818 1085 c 128,-1,18
 870 1066 870 1066 915 1023 c 128,-1,19
 960 980 960 980 975 894 c 128,-1,20
 990 808 990 808 972 690 c 2,21,-1
 858 0 l 1,22,-1
 638 0 l 1,23,-1
 746 660 l 2,24,25
 786 906 786 906 630 906 c 0,26,27
 534 906 534 906 454 819 c 128,-1,28
 374 732 374 732 356 614 c 2,29,-1
 254 0 l 1,30,-1
 34 0 l 1,0,-1
EndSplineSet
Substitution2: "'sups' Superscript lookup 5 subtable" uni02B1
Substitution2: "'aalt' Access All Alternates lookup 0 subtable" uni02B1
EndChar

StartChar: uni0267
Encoding: 615 615 539
Width: 1062
GlyphClass: 2
Flags: W
LayerCount: 2
Fore
SplineSet
34 0 m 1,0,-1
 234 1214 l 2,1,2
 262 1380 262 1380 374 1470 c 128,-1,3
 486 1560 486 1560 636 1560 c 0,4,5
 708 1560 708 1560 826 1548 c 1,6,-1
 790 1342 l 1,7,8
 734 1350 734 1350 640 1350 c 0,9,10
 566 1350 566 1350 513 1298 c 128,-1,11
 460 1246 460 1246 446 1168 c 2,12,-1
 412 962 l 1,13,-1
 414 962 l 1,14,15
 540 1104 540 1104 702 1104 c 0,16,17
 764 1104 764 1104 815 1086 c 128,-1,18
 866 1068 866 1068 912 1026 c 128,-1,19
 958 984 958 984 975 897 c 128,-1,20
 992 810 992 810 972 690 c 2,21,-1
 850 -46 l 2,22,23
 816 -250 816 -250 717 -347 c 128,-1,24
 618 -444 618 -444 442 -444 c 0,25,26
 378 -444 378 -444 276 -434 c 1,27,-1
 310 -234 l 1,28,29
 372 -244 372 -244 432 -244 c 0,30,31
 520 -244 520 -244 566 -199 c 128,-1,32
 612 -154 612 -154 632 -34 c 2,33,-1
 746 660 l 2,34,35
 786 906 786 906 630 906 c 0,36,37
 534 906 534 906 454 817 c 128,-1,38
 374 728 374 728 356 614 c 2,39,-1
 254 0 l 1,40,-1
 34 0 l 1,0,-1
EndSplineSet
EndChar

StartChar: uni0268
Encoding: 616 616 540
Width: 506
GlyphClass: 2
Flags: W
LayerCount: 2
Fore
SplineSet
248 1232 m 1,0,-1
 290 1490 l 1,1,-1
 524 1490 l 1,2,-1
 482 1232 l 1,3,-1
 248 1232 l 1,0,-1
-20 494 m 1,4,-1
 12 688 l 1,5,-1
 164 688 l 1,6,-1
 228 1072 l 1,7,-1
 448 1072 l 1,8,-1
 384 688 l 1,9,-1
 532 688 l 1,10,-1
 500 494 l 1,11,-1
 352 494 l 1,12,-1
 270 0 l 1,13,-1
 50 0 l 1,14,-1
 132 494 l 1,15,-1
 -20 494 l 1,4,-1
EndSplineSet
EndChar

StartChar: uni0269
Encoding: 617 617 541
Width: 628
GlyphClass: 2
Flags: W
LayerCount: 2
Fore
SplineSet
66 320 m 2,0,-1
 190 1072 l 1,1,-1
 412 1072 l 1,2,-1
 290 332 l 2,3,4
 264 174 264 174 394 174 c 0,5,6
 450 174 450 174 538 188 c 1,7,-1
 504 -16 l 1,8,9
 348 -34 348 -34 312 -34 c 0,10,11
 180 -34 180 -34 108 51 c 128,-1,12
 36 136 36 136 66 320 c 2,0,-1
EndSplineSet
EndChar

StartChar: uni026B
Encoding: 619 619 543
Width: 500
GlyphClass: 2
Flags: W
LayerCount: 2
Fore
SplineSet
-20 678 m 1,0,-1
 14 880 l 1,1,2
 110 908 110 908 152 908 c 0,3,4
 158 908 158 908 175 907 c 128,-1,5
 192 906 192 906 196 906 c 1,6,-1
 298 1518 l 1,7,-1
 518 1518 l 1,8,-1
 410 862 l 1,9,10
 416 862 416 862 422 862 c 0,11,12
 452 862 452 862 498 868 c 256,13,14
 544 874 544 874 594 888 c 1,15,-1
 560 686 l 1,16,17
 512 672 512 672 468 668 c 0,18,19
 442 664 442 664 416 664 c 0,20,21
 398 664 398 664 376 666 c 1,22,-1
 266 0 l 1,23,-1
 46 0 l 1,24,-1
 162 704 l 1,25,26
 158 704 158 704 141 706 c 128,-1,27
 124 708 124 708 118 708 c 0,28,29
 90 708 90 708 68 704 c 128,-1,30
 46 700 46 700 14 689 c 128,-1,31
 -18 678 -18 678 -20 678 c 1,0,-1
EndSplineSet
EndChar

StartChar: uni026C
Encoding: 620 620 544
Width: 854
GlyphClass: 2
Flags: W
LayerCount: 2
Fore
SplineSet
104 828 m 0,0,1
 122 932 122 932 197 1004 c 128,-1,2
 272 1076 272 1076 386 1076 c 0,3,4
 476 1076 476 1076 536 1014 c 1,5,-1
 620 1518 l 1,6,-1
 842 1518 l 1,7,-1
 712 730 l 1,8,-1
 910 730 l 1,9,-1
 878 542 l 1,10,-1
 680 542 l 1,11,-1
 590 0 l 1,12,-1
 368 0 l 1,13,-1
 458 542 l 1,14,-1
 394 542 l 2,15,16
 248 542 248 542 165 620 c 128,-1,17
 82 698 82 698 104 828 c 0,0,1
292 828 m 0,18,19
 286 786 286 786 315 758 c 128,-1,20
 344 730 344 730 392 730 c 2,21,-1
 490 730 l 1,22,-1
 494 772 l 2,23,24
 498 822 498 822 465 863 c 128,-1,25
 432 904 432 904 386 904 c 0,26,27
 352 904 352 904 325 884 c 128,-1,28
 298 864 298 864 292 828 c 0,18,19
EndSplineSet
EndChar

